<?xml version="1.0" encoding="UTF-8"?>
<svg version="1.1" xmlns="http://www.w3.org/2000/svg" width="512" height="512">
<path d="M0 0 C1.2422937 -0.01283524 2.4845874 -0.02567047 3.76452637 -0.03889465 C5.11970618 -0.04706738 6.47489057 -0.05451008 7.83007812 -0.0612793 C8.51751602 -0.06535482 9.20495392 -0.06943035 9.91322327 -0.07362938 C13.55803116 -0.09446726 17.20280175 -0.10877392 20.84765625 -0.11816406 C24.58181296 -0.12917183 28.31536444 -0.16351157 32.04930878 -0.20333576 C34.94585137 -0.22970593 37.84225484 -0.23787417 40.73890686 -0.24144554 C42.11340888 -0.24626593 43.48790666 -0.25774718 44.86228943 -0.27648354 C58.04316136 -0.44487943 68.32011361 2.16567892 78.86132812 10.17700195 C79.89257812 10.89887695 80.92382812 11.62075195 81.98632812 12.36450195 C89.84047803 19.19324895 95.32967427 30.76473783 96.18164062 41.0402832 C96.62779354 45.5028746 97.19078687 49.46640627 99.86132812 53.17700195 C105.81855557 57.63210114 113.07137422 60.06324676 119.90283203 62.86499023 C124.29471736 64.81267069 128.2475107 67.26491076 132.23632812 69.92700195 C132.92960205 70.38131592 133.62287598 70.83562988 134.3371582 71.30371094 C138.08078555 73.81001051 141.40252686 76.51166911 144.73632812 79.55200195 C147.23057264 81.5627173 148.19331033 82.21371744 151.41992188 82.03637695 C154.32622548 81.26136266 157.0580936 80.26545133 159.86132812 79.17700195 C173.52869061 74.81791281 187.55688742 74.20571754 200.86132812 80.17700195 C214.76938481 88.21700184 222.75980826 100.4048363 230.23632812 114.23950195 C231.22309885 116.04869402 232.21204558 117.85668573 233.2010498 119.66465759 C234.16526952 121.42830764 235.1270894 123.19326905 236.08886719 124.95825195 C237.99863772 128.42635315 239.97220967 131.85141682 241.96948242 135.26953125 C249.7502156 148.69325072 252.32145596 162.12654527 249.16992188 177.5637207 C248.25402316 180.25010144 247.17936604 182.66566157 245.86132812 185.17700195 C245.29478516 186.37583008 245.29478516 186.37583008 244.71679688 187.59887695 C240.1128165 196.33392129 232.06158709 204.71016265 223.86132812 210.17700195 C223.96743408 211.41450195 223.96743408 211.41450195 224.07568359 212.67700195 C224.75019306 221.17416159 225.01825817 229.61260467 224.99169922 238.13598633 C224.98633135 240.17577539 224.99169089 242.2153444 224.99804688 244.25512695 C224.99746562 251.99019863 224.64288428 259.53429569 223.6484375 267.21313477 C223.93077745 271.14387679 225.3452796 272.35387963 228.23632812 274.92700195 C230.10560442 276.35121246 231.98069479 277.76782215 233.86132812 279.17700195 C241.93343688 286.76222161 249.15942199 296.89269802 250.02246094 308.30834961 C250.06841382 310.80636965 250.09660997 313.30359458 250.11132812 315.80200195 C250.13195312 316.65407227 250.15257812 317.50614258 250.17382812 318.3840332 C250.23790398 328.9725682 246.68992202 337.20822462 241.54882812 346.30200195 C241.02828857 347.23560547 240.50774902 348.16920898 239.97143555 349.13110352 C238.85786346 351.11921297 237.73865849 353.10417632 236.61425781 355.08618164 C235.42856957 357.17682414 234.24971055 359.27135217 233.07714844 361.36938477 C231.29065727 364.56376653 229.48528322 367.74672098 227.67382812 370.92700195 C227.12879639 371.90169434 226.58376465 372.87638672 226.0222168 373.88061523 C218.28342116 387.28623981 207.1750632 399.28060148 191.79882812 403.42700195 C179.59729917 405.66429419 169.5173219 403.99251849 157.91894531 400.13598633 C157.06075195 399.85819336 156.20255859 399.58040039 155.31835938 399.29418945 C154.55499268 399.03234863 153.79162598 398.77050781 153.00512695 398.50073242 C149.16559829 397.92093342 146.5369397 400.30570871 143.53320312 402.4621582 C136.78199716 407.24364752 130.00499668 411.85368013 122.79882812 415.92700195 C122.14446777 416.30526123 121.49010742 416.68352051 120.81591797 417.07324219 C117.51055848 418.92706108 114.37163309 420.4065266 110.73242188 421.48168945 C104.74058619 423.36373283 104.74058619 423.36373283 99.86132812 427.17700195 C96.81991294 433.54836676 95.81840206 440.66424525 94.46630859 447.54223633 C93.28450749 452.68912796 90.90383877 456.91748705 87.86132812 461.17700195 C87.41273438 461.8215332 86.96414063 462.46606445 86.50195312 463.13012695 C79.59644321 472.05297684 68.81526733 477.90446318 57.86132812 480.17700195 C55.81701628 480.28331578 53.76964745 480.33554851 51.72265625 480.35400391 C50.48036255 480.36683914 49.23806885 480.37967438 47.95812988 480.39289856 C46.60295007 480.40107128 45.24776568 480.40851399 43.89257812 480.4152832 C43.20514023 480.41935873 42.51770233 480.42343426 41.80943298 480.42763329 C38.16462509 480.44847117 34.5198545 480.46277783 30.875 480.47216797 C27.14084329 480.48317573 23.40729181 480.51751547 19.67334747 480.55733967 C16.77680488 480.58370984 13.88040141 480.59187807 10.98374939 480.59544945 C9.60924737 480.60026984 8.23474959 480.61175109 6.86036682 480.63048744 C-6.32050511 480.79888334 -16.59745736 478.18832498 -27.13867188 470.17700195 C-28.68554688 469.09418945 -28.68554688 469.09418945 -30.26367188 467.98950195 C-38.11782178 461.16075495 -43.60701802 449.58926608 -44.45898438 439.3137207 C-44.90513729 434.85112931 -45.46813062 430.88759763 -48.13867188 427.17700195 C-54.09589932 422.72190277 -61.34871797 420.29075714 -68.18017578 417.48901367 C-72.57189173 415.54140833 -76.52533523 413.08971023 -80.51367188 410.42700195 C-81.15908936 410.00314209 -81.80450684 409.57928223 -82.46948242 409.14257812 C-85.23040308 407.28869931 -87.80118244 405.49704322 -90.22119141 403.20214844 C-94.37801497 399.28581316 -94.37801497 399.28581316 -99.76611328 398.18237305 C-102.69432072 398.84502073 -105.43694029 399.72904241 -108.26367188 400.73950195 C-110.29873184 401.36721168 -112.33786638 401.98186342 -114.38085938 402.58325195 C-115.36538086 402.87329102 -116.34990234 403.16333008 -117.36425781 403.4621582 C-129.02878583 406.46759098 -141.68473382 404.09366356 -152.17382812 398.38793945 C-164.40560721 390.84946726 -170.48313356 379.9320166 -177.45117188 367.67700195 C-178.10053711 366.54004883 -178.74990234 365.4030957 -179.41894531 364.23168945 C-180.72130167 361.94789385 -182.02132024 359.6627633 -183.31884766 357.3762207 C-184.94292899 354.52111449 -186.58253583 351.67576384 -188.22851562 348.83325195 C-196.82682753 333.88802221 -201.00752557 320.22952259 -197.44726562 302.7902832 C-196.53136691 300.10390247 -195.45670979 297.68834234 -194.13867188 295.17700195 C-193.76097656 294.3777832 -193.38328125 293.57856445 -192.99414062 292.75512695 C-188.39016025 284.02008261 -180.33893084 275.64384126 -172.13867188 270.17700195 C-172.20940918 269.35200195 -172.28014648 268.52700195 -172.35302734 267.67700195 C-173.02753681 259.17984231 -173.29560192 250.74139923 -173.26904297 242.21801758 C-173.2636751 240.17822851 -173.26903464 238.13865951 -173.27539062 236.09887695 C-173.27480937 228.36380527 -172.92022803 220.81970822 -171.92578125 213.14086914 C-172.2081212 209.21012712 -173.62262335 208.00012428 -176.51367188 205.42700195 C-178.38294817 204.00279144 -180.25803854 202.58618175 -182.13867188 201.17700195 C-190.21078063 193.59178229 -197.43676574 183.46130588 -198.29980469 172.0456543 C-198.34575757 169.54763425 -198.37395372 167.05040933 -198.38867188 164.55200195 C-198.40929687 163.69993164 -198.42992187 162.84786133 -198.45117188 161.9699707 C-198.51467033 151.47685175 -195.03661631 143.25991046 -189.95117188 134.23950195 C-189.18353516 132.85613647 -189.18353516 132.85613647 -188.40039062 131.44482422 C-183.92268149 123.4383991 -179.29655038 115.51708943 -174.63867188 107.61450195 C-174.29405914 107.02814972 -173.94944641 106.44179749 -173.59439087 105.837677 C-172.60334865 104.15509033 -171.60549516 102.47652125 -170.60742188 100.7980957 C-170.03443359 99.83315186 -169.46144531 98.86820801 -168.87109375 97.87402344 C-162.07995813 87.30163404 -152.18772582 80.50634581 -140.13867188 77.17700195 C-139.51605469 76.99008789 -138.8934375 76.80317383 -138.25195312 76.6105957 C-128.86880847 74.68540336 -120.30391412 75.94013744 -111.30322266 78.73583984 C-102.80348204 81.76517308 -102.80348204 81.76517308 -94.15039062 81.21606445 C-91.87519008 79.31315047 -91.87519008 79.31315047 -89.81054688 76.9309082 C-86.20793709 73.21769198 -82.13653719 70.85578702 -77.70117188 68.23950195 C-76.84483154 67.71477295 -75.98849121 67.19004395 -75.10620117 66.64941406 C-70.77867409 64.05724022 -66.60166074 61.87167375 -61.83007812 60.21606445 C-52.94333306 57.3260728 -52.94333306 57.3260728 -46.83447266 50.72338867 C-44.76338323 44.88466842 -43.7322264 38.8684737 -42.67919922 32.77954102 C-41.6076267 27.62011779 -39.16906024 23.41954567 -36.13867188 19.17700195 C-35.69007813 18.5324707 -35.24148437 17.88793945 -34.77929688 17.22387695 C-26.60838173 6.66595289 -13.24638313 0.11942759 0 0 Z M-34.13867188 176.17700195 C-34.7703125 176.72743164 -35.40195313 177.27786133 -36.05273438 177.8449707 C-51.0658221 191.72693538 -60.44472603 213.09787206 -61.55273438 233.30200195 C-62.39218792 259.00219518 -55.73988389 281.0708536 -38.13867188 300.17700195 C-37.31496094 301.1205957 -37.31496094 301.1205957 -36.47460938 302.08325195 C-21.52313037 318.28682525 1.53907013 327.22295505 23.24023438 328.20825195 C46.92370961 328.00386382 68.27438504 320.15716452 85.86132812 304.17700195 C86.49296875 303.62657227 87.12460937 303.07614258 87.77539062 302.5090332 C102.78847835 288.62706852 112.16738228 267.25613184 113.27539062 247.05200195 C114.11484417 221.35180872 107.46254014 199.28315031 89.86132812 180.17700195 C89.3121875 179.54793945 88.76304687 178.91887695 88.19726562 178.27075195 C73.24578662 162.06717865 50.18358612 153.13104885 28.48242188 152.14575195 C4.79894664 152.35014009 -16.55172879 160.19683938 -34.13867188 176.17700195 Z " fill="#910DF7" transform="translate(230.138671875,15.822998046875)"/>
</svg>
