<?xml version="1.0" encoding="UTF-8"?>
<svg version="1.1" xmlns="http://www.w3.org/2000/svg" width="512" height="512">
<path d="M0 0 C9.88494999 8.18324074 17.41153287 17.9311785 23.85668945 29.00683594 C24.3465332 29.83699219 24.83637695 30.66714844 25.34106445 31.52246094 C36.77814371 52.55192925 41.05004589 75.37941209 41.23168945 99.00683594 C41.24586914 100.31201172 41.26004883 101.6171875 41.2746582 102.96191406 C41.19207471 119.53642044 37.82191601 134.82134404 32.48168945 150.44433594 C32.22169159 151.21520538 31.96169373 151.98607483 31.69381714 152.78030396 C16.52354188 197.51581753 -10.30053974 234.12825936 -43.33081055 267.31933594 C-44.31053833 268.306073 -44.31053833 268.306073 -45.31005859 269.31274414 C-49.7578806 273.74600332 -54.37950214 277.91705108 -59.14331055 282.00683594 C-60.1075293 282.85246094 -61.07174805 283.69808594 -62.06518555 284.56933594 C-86.64778159 305.75654579 -113.77716138 323.79292286 -141.83081055 340.00683594 C-142.92965576 340.64210205 -144.02850098 341.27736816 -145.16064453 341.93188477 C-147.2314669 343.11959268 -149.30796909 344.29746985 -151.39086914 345.46386719 C-153.05322458 346.39575351 -154.70560231 347.3462384 -156.3371582 348.33105469 C-161.52841968 351.29377713 -166.22454375 351.95661848 -172.14331055 351.00683594 C-175.32327154 349.93444337 -178.11843155 348.43351946 -181.01831055 346.75683594 C-182.23804565 346.08128662 -182.23804565 346.08128662 -183.48242188 345.39208984 C-186.05149659 343.9557715 -188.59864051 342.48589794 -191.14331055 341.00683594 C-191.94591309 340.54696289 -192.74851563 340.08708984 -193.57543945 339.61328125 C-223.70340122 322.29046946 -253.03570815 302.14318949 -278.51831055 278.42089844 C-280.61534302 276.4923775 -282.73992708 274.62402291 -284.8972168 272.76464844 C-289.47210176 268.77328924 -293.79111069 264.55110708 -298.08081055 260.25683594 C-298.87422852 259.4626123 -299.66764648 258.66838867 -300.48510742 257.85009766 C-305.34128618 252.942959 -309.91297318 247.99323775 -314.15893555 242.54589844 C-316.31713761 239.78441942 -318.60054058 237.15739485 -320.89331055 234.50683594 C-331.76157972 221.46153769 -341.0731224 206.93032953 -349.14331055 192.00683594 C-349.57321289 191.21519043 -350.00311523 190.42354492 -350.44604492 189.60791016 C-357.1283237 177.06522412 -362.11686288 164.06984696 -366.64331055 150.63183594 C-366.89892761 149.88259857 -367.15454468 149.13336121 -367.41790771 148.36141968 C-380.56069502 109.55578996 -378.28841376 69.81974372 -360.89331055 32.81933594 C-347.47765635 7.01100771 -324.06907266 -11.0902402 -296.64331055 -19.86816406 C-279.78778429 -24.83677068 -259.00435596 -23.26677915 -242.14331055 -18.99316406 C-241.49668457 -18.83219238 -240.85005859 -18.6712207 -240.18383789 -18.50537109 C-216.40654905 -12.35882089 -194.58138817 0.99388264 -176.14331055 17.00683594 C-175.36342773 17.6784375 -174.58354492 18.35003906 -173.7800293 19.04199219 C-171.8894344 20.6844261 -170.01046737 22.33786895 -168.14331055 24.00683594 C-164.49823189 22.46145697 -162.10966506 20.23591809 -159.26831055 17.50683594 C-115.36846519 -23.37364008 -49.56549334 -39.70940746 0 0 Z " fill="#AD2CB4" transform="translate(423.143310546875,91.9931640625)"/>
</svg>
