<?xml version="1.0" encoding="UTF-8"?>
<svg version="1.1" xmlns="http://www.w3.org/2000/svg" width="512" height="512">
<path d="M0 0 C15.57239765 11.14409208 33.44582292 14.49770007 52.33032227 11.9230957 C64.52742265 9.75502996 74.81365657 4.74107141 84.75073242 -2.58032227 C97.14113837 -11.70419799 110.20268934 -17.86754684 125.06323242 -21.76782227 C125.94881836 -22.00114258 126.8344043 -22.23446289 127.74682617 -22.47485352 C155.46237521 -29.1515629 186.00418661 -23.43054577 210.27954102 -8.87719727 C247.80420372 14.46143774 271.92230261 49.21504873 281.96557617 92.08374023 C294.78333954 154.70584782 281.56778198 224.53927951 247.06323242 278.23217773 C241.26819969 286.98263261 234.88304319 295.25543478 228.06323242 303.23217773 C227.40323242 304.00432617 226.74323242 304.77647461 226.06323242 305.57202148 C221.20735077 311.09926556 216.06383464 316.33177184 210.87573242 321.54467773 C210.19824951 322.2268335 209.5207666 322.90898926 208.82275391 323.61181641 C198.16840742 334.23217773 198.16840742 334.23217773 195.06323242 334.23217773 C195.06767365 335.3750827 195.07211487 336.51798767 195.07669067 337.69552612 C195.11732681 348.49404915 195.14725998 359.29255655 195.16685677 370.09113884 C195.17727051 375.64209061 195.19138559 381.19298038 195.21411133 386.74389648 C195.23592576 392.1060967 195.24781915 397.46823748 195.25298691 402.83047867 C195.25666726 404.87088073 195.26385389 406.91127974 195.27469254 408.95165634 C195.28932184 411.82111254 195.29120561 414.69032665 195.2902832 417.55981445 C195.29747375 418.39348038 195.30466431 419.2271463 195.31207275 420.08607483 C195.29406912 425.30030327 194.63531717 430.10044434 193.49275017 435.18940926 C192.99464465 437.21047235 192.99464465 437.21047235 193.06323242 439.23217773 C201.38424378 435.63901374 204.72933693 428.72106996 209.08862305 421.20288086 C212.3649557 415.77661563 216.29997323 411.11380733 222.06323242 408.23217773 C227.07434822 407.68239704 230.96019735 407.67063261 235.50073242 409.98217773 C240.65356201 414.50661347 242.06777092 418.14443097 242.62573242 424.91967773 C242.75141602 426.41047852 242.75141602 426.41047852 242.87963867 427.93139648 C242.94022461 428.6906543 243.00081055 429.44991211 243.06323242 430.23217773 C243.75030273 429.8106543 244.43737305 429.38913086 245.14526367 428.95483398 C246.04631836 428.40698242 246.94737305 427.85913086 247.87573242 427.29467773 C249.21571289 426.47676758 249.21571289 426.47676758 250.58276367 425.64233398 C256.14202881 422.48186987 261.8233939 422.54500564 268.06323242 423.23217773 C272.88219933 424.93793904 275.43524654 427.22359435 278.12573242 431.54467773 C279.8476365 438.31750044 278.54045843 443.18482816 275.06323242 449.23217773 C275.67811523 449.63049805 276.29299805 450.02881836 276.92651367 450.43920898 C277.73475586 450.96901367 278.54299805 451.49881836 279.37573242 452.04467773 C280.17624023 452.56674805 280.97674805 453.08881836 281.80151367 453.62670898 C283.82174109 455.06075643 285.52657068 456.29113133 287.06323242 458.23217773 C286.75073242 461.41967773 286.75073242 461.41967773 286.06323242 464.23217773 C283.81323242 464.91967773 283.81323242 464.91967773 281.06323242 465.23217773 C280.48093243 464.7518468 279.89863243 464.27151587 279.29868698 463.77662945 C276.27534446 461.68783434 274.20343861 461.84787255 270.54595947 461.83345032 C269.89325695 461.82680349 269.24055442 461.82015666 268.56807303 461.81330842 C266.38303234 461.79466969 264.19853881 461.79728415 262.01342773 461.79980469 C260.44634731 461.79078802 258.87927396 461.78046103 257.31221008 461.7689209 C253.05843182 461.74131345 248.80478724 461.73206132 244.55093098 461.72606683 C240.10525006 461.71669289 235.65966938 461.69049031 231.21405029 461.6660614 C222.79582792 461.6223657 214.37762497 461.59383761 205.95932364 461.57073802 C196.37531697 461.54370279 186.79141098 461.49979026 177.20747614 461.4544493 C157.49278237 461.36155905 137.77805846 461.28989837 118.06323242 461.23217773 C117.40323242 462.55217773 116.74323242 463.87217773 116.06323242 465.23217773 C113.68823242 464.98217773 113.68823242 464.98217773 111.06323242 464.23217773 C108.19844488 460.68529793 109.06323242 458.13740267 109.06323242 453.23217773 C63.52323242 453.56217773 17.98323242 453.89217773 -28.93676758 454.23217773 C-27.61676758 455.55217773 -26.29676758 456.87217773 -24.93676758 458.23217773 C-24.68676758 460.98217773 -24.68676758 460.98217773 -24.93676758 463.23217773 C-27.18676758 464.41967773 -27.18676758 464.41967773 -29.93676758 465.23217773 C-30.51948394 464.76179266 -31.1022003 464.29140759 -31.70257473 463.80676842 C-34.72211546 461.6786886 -36.7587418 461.8547951 -40.43385315 461.85122681 C-41.08443898 461.84654683 -41.7350248 461.84186686 -42.40532535 461.83704507 C-44.58341309 461.82508727 -46.76087254 461.83455478 -48.93896484 461.84399414 C-50.50117358 461.83992881 -52.06337943 461.83458714 -53.62557983 461.82806396 C-57.8672163 461.81438106 -62.108634 461.81969269 -66.35027432 461.82920122 C-70.78649569 461.83679143 -75.2226982 461.82975411 -79.65892029 461.82504272 C-87.10793424 461.81958388 -94.55685897 461.82678076 -102.00585938 461.84106445 C-110.62308062 461.85739722 -119.24008901 461.85209847 -127.85730511 461.83558524 C-135.25186982 461.82198118 -142.64637038 461.82004523 -150.04094356 461.82790124 C-154.45922679 461.83258295 -158.87740989 461.83318888 -163.29568672 461.82329178 C-167.44815564 461.81463985 -171.60034942 461.82061132 -175.75278854 461.83797455 C-177.27861893 461.84194866 -178.80447238 461.84078958 -180.33029366 461.83418655 C-182.40939922 461.82601717 -184.48761702 461.83623528 -186.56666565 461.85122681 C-187.73122567 461.85235788 -188.89578569 461.85348896 -190.09563541 461.85465431 C-193.27534567 462.27716725 -193.92270505 462.87632869 -195.93676758 465.23217773 C-198.49926758 465.23217773 -198.49926758 465.23217773 -200.93676758 464.23217773 C-203.27743934 460.72117009 -203.21557221 457.33100085 -202.52661133 453.22045898 C-201.21023604 448.78314095 -198.67571651 446.21821219 -194.78051758 444.00952148 C-190.92907485 442.21860062 -187.17624509 440.77920709 -182.93676758 440.23217773 C-183.26676758 439.57217773 -183.59676758 438.91217773 -183.93676758 438.23217773 C-184.48935649 433.19546566 -184.47606306 429.31076871 -182.18676758 424.73217773 C-179.39912486 421.63479694 -177.42741426 420.50523914 -173.33520508 419.75561523 C-157.89072592 418.99735915 -144.54985116 428.0385814 -132.09692383 436.22827148 C-127.50498031 439.14009723 -124.32727007 439.59763553 -118.93676758 439.23217773 C-113.8382925 437.39672671 -111.02016189 434.53781844 -107.93676758 430.23217773 C-107.39407227 429.60182617 -106.85137695 428.97147461 -106.29223633 428.32202148 C-102.24158653 422.94328978 -101.59289323 418.23017775 -101.79223633 411.65014648 C-101.82165407 409.85624258 -101.84826196 408.06229112 -101.87255859 406.26831055 C-101.88731232 405.29953979 -101.90206604 404.33076904 -101.91726685 403.3326416 C-101.94520888 398.89007621 -101.83642419 394.45324838 -101.73521423 390.01202393 C-101.63786913 385.14200008 -101.61295276 380.27274505 -101.5949707 375.40185547 C-101.57268886 372.89727803 -101.525156 370.39280775 -101.45336914 367.88916016 C-100.33456554 353.13068637 -100.33456554 353.13068637 -105.96435547 340.23291016 C-109.33264047 337.31748132 -113.02234628 335.33040093 -116.93676758 333.23217773 C-118.71059416 331.76367828 -120.450453 330.25122639 -122.12426758 328.66967773 C-123.29989258 327.58686523 -123.29989258 327.58686523 -124.49926758 326.48217773 C-125.30364258 325.73967773 -126.10801758 324.99717773 -126.93676758 324.23217773 C-128.32895508 322.99467773 -128.32895508 322.99467773 -129.74926758 321.73217773 C-135.23334022 316.84419995 -140.25457447 311.8855681 -144.93676758 306.23217773 C-145.6715332 305.38526367 -146.40629883 304.53834961 -147.16333008 303.66577148 C-158.90953618 289.96186437 -168.65260456 275.25575528 -176.93676758 259.23217773 C-177.34636719 258.45487305 -177.7559668 257.67756836 -178.17797852 256.87670898 C-190.00044206 234.24698174 -197.96423402 209.43679283 -201.93676758 184.23217773 C-202.09757813 183.21752441 -202.25838867 182.20287109 -202.42407227 181.1574707 C-206.24438633 155.76616682 -207.3992823 127.63710075 -202.93676758 102.23217773 C-202.78079102 101.34353027 -202.62481445 100.45488281 -202.46411133 99.53930664 C-196.44342501 66.64294556 -182.80097294 37.90103106 -158.93676758 14.23217773 C-158.45240234 13.75055176 -157.96803711 13.26892578 -157.46899414 12.77270508 C-112.86410186 -31.01279205 -50.46679982 -36.4710947 0 0 Z " fill="#050505" transform="translate(214.936767578125,35.767822265625)"/>
<path d="M0 0 C20.17257529 14.03747268 40.81003915 19.53869159 65.31591797 15.60839844 C78.82964215 12.86648339 90.55626301 6.08308343 101.47485352 -2.05102539 C112.37210751 -10.03803351 124.81882095 -15.12512736 137.76123047 -18.77441406 C138.62232422 -19.020625 139.48341797 -19.26683594 140.37060547 -19.52050781 C166.13944019 -25.47031838 194.46649377 -17.98793672 216.76123047 -4.77441406 C226.62996167 1.53169539 235.34855108 9.11975199 243.76123047 17.22558594 C244.72416016 18.11117187 244.72416016 18.11117187 245.70654297 19.01464844 C266.91625554 39.0405631 278.26027734 67.16113029 283.76123047 95.22558594 C283.92494141 96.00820801 284.08865234 96.79083008 284.25732422 97.59716797 C289.94794642 125.52707094 287.56287519 155.37866089 282.76123047 183.22558594 C282.62233398 184.1019873 282.4834375 184.97838867 282.34033203 185.88134766 C275.55861888 228.34039397 253.82179633 268.99119822 224.76123047 300.22558594 C223.54803357 301.61719415 222.33946832 303.01285781 221.13623047 304.41308594 C215.47431171 310.88199082 209.72660702 316.00155353 202.76123047 321.22558594 C202.76123047 292.84558594 202.76123047 264.46558594 202.76123047 235.22558594 C206.32699021 236.65188983 208.93856093 237.93198422 212.13623047 239.85058594 C218.82898102 243.19696121 225.44232093 243.3183125 232.76123047 242.22558594 C238.24714621 240.28896613 242.43801329 237.50360625 245.38623047 232.41308594 C247.39427051 227.36896621 247.96764477 222.41305951 246.01904297 217.26464844 C241.18655524 208.62260835 232.54231988 201.63944717 225.10498047 195.28417969 C221.84139332 192.41766231 218.68041186 189.44572896 215.51123047 186.47558594 C208.96852676 180.34660845 202.38020567 174.27210923 195.76123047 168.22558594 C193.78129134 166.41392849 191.80231485 164.60122279 189.82373047 162.78808594 C189.08473511 162.11096558 189.08473511 162.11096558 188.33081055 161.42016602 C184.08330179 157.52586896 179.84936989 153.61697296 175.61694336 149.70629883 C172.00596478 146.37105791 168.38675883 143.04500109 164.76123047 139.72558594 C160.58529195 135.90223326 156.41970275 132.06792788 152.26123047 128.22558594 C146.10974054 122.54229325 139.93844231 116.88089473 133.76123047 111.22558594 C127.58401603 105.57027477 121.41317753 99.90838645 115.26123047 94.22558594 C114.16749348 93.21645726 113.07374353 92.20734261 111.97998047 91.19824219 C109.8930101 89.2724351 107.81010921 87.34237225 105.72998047 85.40917969 C102.76187566 82.65725574 99.77137307 79.93145073 96.76123047 77.22558594 C96.23529297 76.7520166 95.70935547 76.27844727 95.16748047 75.79052734 C83.43270675 65.30750984 70.8653099 55.59584446 54.51123047 55.72558594 C53.67785156 55.73058105 52.84447266 55.73557617 51.98583984 55.74072266 C44.73302752 55.94437444 39.12902195 57.72097661 32.76123047 61.22558594 C31.88853516 61.66 31.01583984 62.09441406 30.11669922 62.54199219 C17.51324017 69.01902605 5.93910249 77.58155797 -5.23876953 86.22558594 C-5.77824219 86.6388916 -6.31771484 87.05219727 -6.87353516 87.47802734 C-19.92300726 97.48337519 -32.23669265 108.26464599 -44.26611328 119.46777344 C-46.85439914 121.87690203 -49.47616093 124.24542307 -52.11376953 126.60058594 C-56.97183963 130.95473953 -61.737018 135.40435267 -66.5 139.86181641 C-70.56505756 143.66573099 -74.64344185 147.45428974 -78.73876953 151.22558594 C-85.93734994 157.85809766 -93.08814148 164.54146165 -100.23876953 171.22558594 C-102.78001276 173.60103959 -105.32167627 175.97604197 -107.86376953 178.35058594 C-108.48388916 178.93018066 -109.10400879 179.50977539 -109.74291992 180.10693359 C-113.28089681 183.41028431 -116.83494551 186.69494959 -120.40429688 189.96435547 C-136.90678247 203.81325765 -136.90678247 203.81325765 -145.60986328 222.76855469 C-145.7909283 229.97920261 -144.39092604 235.27342541 -140.23876953 241.22558594 C-136.67106413 244.79329134 -133.81978937 245.49353618 -128.92626953 245.72558594 C-115.96554022 245.18190176 -107.08401011 236.05100571 -97.98876953 227.72949219 C-96.23876953 226.22558594 -96.23876953 226.22558594 -95.23876953 226.22558594 C-94.97490994 236.68468116 -94.71394481 247.14384449 -94.45646667 257.60309887 C-94.33676538 262.46207851 -94.21614376 267.32103132 -94.09326172 272.17993164 C-93.97424966 276.88725181 -93.85786008 281.59463077 -93.74313354 286.30205727 C-93.69938614 288.07939186 -93.65476387 289.85670519 -93.60916138 291.63399315 C-93.27986784 304.500361 -93.18779325 317.35513749 -93.23876953 330.22558594 C-94.51748605 329.26718414 -95.79611499 328.3086655 -97.07470703 327.35009766 C-97.78675293 326.81633514 -98.49879883 326.28257263 -99.23242188 325.7326355 C-113.48676587 315.02561631 -126.47723057 302.46302343 -137.23876953 288.22558594 C-137.66996094 287.6601709 -138.10115234 287.09475586 -138.54541016 286.51220703 C-154.43380716 265.60729866 -166.64549456 243.04095798 -175.23876953 218.22558594 C-175.65400879 217.05527832 -175.65400879 217.05527832 -176.07763672 215.86132812 C-189.9101737 176.56624417 -193.42737929 129.97474682 -184.23876953 89.22558594 C-184.0515332 88.3611084 -183.86429688 87.49663086 -183.67138672 86.60595703 C-175.55314727 49.90562586 -152.90316047 17.56558751 -121.23876953 -2.77441406 C-82.42433343 -27.3695081 -37.62526564 -26.51451754 0 0 Z " fill="#8C76E5" transform="translate(206.23876953125,39.7744140625)"/>
<path d="M0 0 C4.03183668 1.67747949 7.06915848 4.46822734 10.3125 7.3125 C11.22902344 8.10720703 11.22902344 8.10720703 12.1640625 8.91796875 C13.45809531 10.04069376 14.75054168 11.16524954 16.04150391 12.29150391 C18.56581514 14.49358942 21.09784792 16.68668793 23.62988281 18.87988281 C24.88356884 19.96597426 26.1368195 21.05256844 27.38964844 22.13964844 C33.32680617 27.29050902 39.2936641 32.40625761 45.26611328 37.51611328 C48.76352798 40.50925416 52.25766391 43.5062223 55.75244141 46.50244141 C58.65552183 48.99114291 61.5593367 51.47897552 64.46484375 53.96484375 C71.12768834 59.66727831 77.76871705 65.39385689 84.39208984 71.14208984 C90.90354268 76.79007108 97.45000398 82.39681312 104 88 C111.8098223 94.68090389 119.60279057 101.38002006 127.36352539 108.11791992 C132.45589539 112.53628996 137.57102149 116.92763036 142.69726562 121.30664062 C146.89900454 124.89900454 146.89900454 124.89900454 148 126 C148.10441673 128.55135445 148.14332645 131.07587645 148.14044189 133.62796021 C148.14489858 134.84077378 148.14489858 134.84077378 148.1494453 136.07808864 C148.15817127 138.80874253 148.15964384 141.53935277 148.16113281 144.27001953 C148.16575837 146.21937657 148.17078267 148.1687327 148.17617798 150.11808777 C148.18933244 155.43031227 148.19575327 160.74252411 148.20018864 166.05476236 C148.20311548 169.37201897 148.20721961 172.68927209 148.21169281 176.00652695 C148.22537799 186.38037988 148.2350387 196.75422487 148.2388947 207.12808621 C148.24337308 219.11168338 148.26090651 231.09516635 148.2898953 243.0787288 C148.31150814 252.33398585 148.32159883 261.58921077 148.32293582 270.84449279 C148.32398446 276.37519518 148.32990451 281.90579036 148.34775543 287.43646622 C148.36422838 292.64191862 148.36639532 297.84718319 148.35761642 303.05265236 C148.35684554 304.962211 148.36119553 306.8717797 148.37107468 308.78131294 C148.38378346 311.39114484 148.37792315 314.00031049 148.36749268 316.61013794 C148.37554908 317.36336464 148.38360548 318.11659134 148.39190602 318.89264309 C148.34393906 324.0353205 147.24392983 327.47937054 145 332 C142.057073 331.38157359 139.78595799 330.44906509 137.19921875 328.92578125 C136.47661865 328.50796387 135.75401855 328.09014648 135.00952148 327.65966797 C134.24325439 327.21510254 133.4769873 326.77053711 132.6875 326.3125 C116.79095696 316.85470718 116.79095696 316.85470718 99 315 C95.1973971 317.0050088 93.38209159 318.42686262 91 322 C90.76130721 326.85342006 91.04404864 331.22024321 92 336 C91.21753906 336.13277344 90.43507813 336.26554687 89.62890625 336.40234375 C88.61699219 336.57894531 87.60507812 336.75554687 86.5625 336.9375 C85.55316406 337.11152344 84.54382813 337.28554688 83.50390625 337.46484375 C81.0712562 337.74751097 81.0712562 337.74751097 80 339 C78.21928754 339.08726223 76.4351686 339.10699041 74.65234375 339.09765625 C73.57275391 339.09443359 72.49316406 339.09121094 71.38085938 339.08789062 C69.67639648 339.07532227 69.67639648 339.07532227 67.9375 339.0625 C66.79732422 339.05798828 65.65714844 339.05347656 64.48242188 339.04882812 C61.65489649 339.03699747 58.8274736 339.0205141 56 339 C56.16210339 338.28573255 56.32420677 337.57146509 56.49122238 336.83555317 C56.99434665 334.03150762 57.13125607 331.47689189 57.14044189 328.63114929 C57.14615204 327.56723969 57.15186218 326.50333008 57.15774536 325.40718079 C57.15886322 324.25018173 57.15998108 323.09318268 57.16113281 321.90112305 C57.16609772 320.67453979 57.17106262 319.44795654 57.17617798 318.1842041 C57.18826313 314.82661618 57.19573848 311.46909035 57.20018864 308.1114881 C57.20312602 306.01099174 57.20723205 303.91050074 57.21169281 301.8100071 C57.22535601 295.22978101 57.23502864 288.6495673 57.2388947 282.06932801 C57.24337388 274.48856174 57.26092008 266.90797591 57.2898953 259.32726449 C57.31154948 253.45701981 57.32160096 247.58682576 57.32293582 241.71654159 C57.3239811 238.21525579 57.32982964 234.71413989 57.34775543 231.21289635 C57.36737924 227.30422586 57.36293226 223.39577901 57.35644531 219.48706055 C57.37026749 217.76067101 57.37026749 217.76067101 57.3843689 215.99940491 C57.35138191 209.64759096 57.02049903 204.65643297 54 199 C49.32512634 194.61958289 45.21539893 194.42181581 39.13647461 194.48242188 C38.26580856 194.4754126 37.39514252 194.46840332 36.49809265 194.46118164 C33.63251448 194.44363819 30.7679312 194.45521033 27.90234375 194.46875 C25.90507315 194.46605428 23.90780383 194.46217119 21.91053772 194.45715332 C17.73018872 194.45126343 13.55018217 194.45980585 9.36987305 194.47851562 C4.01410935 194.50131954 -1.34085316 194.48816959 -6.69658756 194.46422577 C-10.81874115 194.44976674 -14.94070498 194.45437404 -19.0628643 194.46473694 C-21.03761325 194.46740316 -23.01237948 194.46413815 -24.98710823 194.45481873 C-27.74715913 194.44464985 -30.50591464 194.46015812 -33.26586914 194.48242188 C-34.08003296 194.47432495 -34.89419678 194.46622803 -35.73303223 194.45788574 C-39.68327389 194.51686304 -41.56904257 194.72447855 -44.98338318 196.90734863 C-48.06150521 200.10152822 -48.12528872 201.87870815 -48.12698364 206.21136475 C-48.12980347 207.31611145 -48.13262329 208.42085815 -48.13552856 209.55908203 C-48.13350433 210.7767627 -48.1314801 211.99444336 -48.12939453 213.24902344 C-48.13114685 214.52714905 -48.13289917 215.80527466 -48.13470459 217.12213135 C-48.13927414 220.63471004 -48.13749084 224.14725945 -48.1343255 227.65983868 C-48.13179728 231.33525866 -48.13414094 235.01067611 -48.13571167 238.68609619 C-48.13753292 244.86332652 -48.13512916 251.04054492 -48.13037109 257.21777344 C-48.12493818 264.35338926 -48.12668423 271.48897647 -48.1321975 278.62459159 C-48.13674137 284.75121675 -48.13737264 290.87783332 -48.13475883 297.00445962 C-48.13320184 300.66327397 -48.13298628 304.32207489 -48.13629532 307.98088837 C-48.13973064 312.06507549 -48.13496344 316.14921367 -48.12939453 320.23339844 C-48.13243088 322.04777405 -48.13243088 322.04777405 -48.13552856 323.89880371 C-48.13129883 325.57284271 -48.13129883 325.57284271 -48.12698364 327.28070068 C-48.12660662 328.24598568 -48.12622959 329.21127068 -48.12584114 330.20580673 C-48.03102637 333.55293901 -48.03102637 333.55293901 -47 339 C-55.91 339 -64.82 339 -74 339 C-73.67 338.01 -73.34 337.02 -73 336 C-72.50846344 331.2457939 -72.27709904 327.30678251 -74.625 323.0625 C-79.13397605 319.14681028 -83.32134524 317.28696382 -89.28515625 317.4296875 C-94.264965 318.4758056 -98.62841781 321.04792249 -103.05859375 323.46875 C-106 325 -106 325 -108 325 C-108.02578125 324.20335937 -108.0515625 323.40671875 -108.078125 322.5859375 C-108.48076302 315.06392724 -109.46190814 310.80017274 -114.6875 305.1875 C-118.25742217 303.35429673 -122.00190386 302.85841481 -126 303 C-127.67796422 303.63769765 -129.34641837 304.30150875 -131 305 C-131.8858661 289.66666721 -132.281116 274.34775544 -132.53515625 258.9921875 C-132.57840557 256.49496179 -132.62182072 253.99773895 -132.66539001 251.5005188 C-132.75577025 246.27463188 -132.84369942 241.04871086 -132.92993164 235.82275391 C-133.01667598 230.57789671 -133.10678341 225.33311722 -133.20043945 220.08837891 C-133.24629531 217.51334704 -133.29211247 214.93831449 -133.33789062 212.36328125 C-133.36053671 211.09037357 -133.38318279 209.8174659 -133.40651512 208.50598526 C-133.51744967 202.12860604 -133.61656147 195.75137462 -133.69229126 189.37347412 C-133.70713247 188.12419254 -133.72197369 186.87491096 -133.73726463 185.58777237 C-133.76680011 183.08770331 -133.79593859 180.58762953 -133.82467079 178.08755112 C-133.91926152 170.72398197 -134.10205996 163.36912373 -134.36050892 156.00952721 C-134.51490983 151.38937629 -134.6223363 146.76882493 -134.72128105 142.14719009 C-134.77866987 140.00158257 -134.85732739 137.85641914 -134.95912361 135.71245956 C-135.75945857 118.60841412 -135.75945857 118.60841412 -131.46463013 113.36566162 C-128.60013751 110.4818767 -125.38619253 108.24369943 -122 106 C-120.15345154 104.51629858 -118.31784311 103.0187355 -116.5 101.5 C-115.6028125 100.778125 -114.705625 100.05625 -113.78125 99.3125 C-110.75980812 96.8002899 -107.87558227 94.17599173 -105 91.5 C-100.41239887 87.23081848 -95.66557272 83.24241483 -90.78125 79.3125 C-87.75980812 76.8002899 -84.87558227 74.17599173 -82 71.5 C-77.41239887 67.23081848 -72.66557272 63.24241483 -67.78125 59.3125 C-64.75980664 56.80028867 -61.87559922 54.17597543 -59 51.5 C-54.38998361 47.2104224 -49.62216764 43.19589103 -44.71484375 39.24609375 C-41.89326505 36.9116941 -39.19409288 34.48009402 -36.5 32 C-32.94329756 28.72581577 -29.32838189 25.59357567 -25.5625 22.5625 C-20.45113363 18.43689715 -15.62982877 14.06085284 -10.81640625 9.59765625 C-7.27112315 6.32773494 -3.65329198 3.14827809 0 0 Z " fill="#FEFEFE" transform="translate(253,142)"/>
<path d="M0 0 C5.17075461 3.90772278 9.80495256 8.37695809 14.48291016 12.85253906 C16.20045884 14.47681374 17.97263122 16.02675464 19.76953125 17.5625 C24.3349088 21.51145527 28.71312412 25.66010505 33.11791992 29.78588867 C39.00347339 35.29761713 44.94156259 40.74868788 50.89453125 46.1875 C52.89526787 48.02003019 54.89490751 49.85375561 56.89453125 51.6875 C59.8820851 54.42657634 62.86998425 57.16527217 65.859375 59.90234375 C71.59785356 65.15758201 77.32370817 70.4261441 83.03881836 75.70678711 C86.64979694 79.04202802 90.26900289 82.36808485 93.89453125 85.6875 C98.07046977 89.51085268 102.23605897 93.34515805 106.39453125 97.1875 C112.54602118 102.87079269 118.71731941 108.53219121 124.89453125 114.1875 C126.87397206 115.99970092 128.85315014 117.81218791 130.83203125 119.625 C131.3216333 120.07335205 131.81123535 120.5217041 132.31567383 120.98364258 C134.96946807 123.41581838 137.61722134 125.85427316 140.2578125 128.30078125 C141.09916748 129.07989868 141.09916748 129.07989868 141.95751953 129.87475586 C143.0723687 130.90748373 144.18663741 131.94083861 145.30029297 132.97485352 C148.29472033 135.74576858 151.33593495 138.43359885 154.45703125 141.0625 C158.46868217 144.56527343 161.44840454 147.80815755 162.45703125 153.1875 C161.70729078 157.18611583 159.91912246 159.59826661 156.89453125 162.1875 C152.03046266 164.94074637 147.42599777 166.30515933 141.89453125 165.1875 C132.74085332 161.95214832 125.73665767 156.10948799 118.62597656 149.73339844 C116.22534717 147.59002769 113.78860833 145.48961786 111.35253906 143.38671875 C109.44924204 141.74327424 107.55041304 140.09479028 105.65234375 138.4453125 C102.05724081 135.32485956 98.44786765 132.22138964 94.83203125 129.125 C94.25775391 128.63322266 93.68347656 128.14144531 93.09179688 127.63476562 C91.35965261 126.15201896 89.62716253 124.66967752 87.89453125 123.1875 C80.07444246 116.49781366 72.2718691 109.78917166 64.50024414 103.04321289 C60.31135554 99.4093019 56.10830612 95.79251281 51.89453125 92.1875 C47.04537764 88.03890131 42.21381672 83.87075656 37.39453125 79.6875 C30.82844282 73.98887055 24.23460448 68.32344982 17.62841797 62.67138672 C14.13378015 59.68062234 10.64194818 56.68657918 7.15087891 53.69165039 C4.2012118 51.16177218 1.2483048 48.63586171 -1.7109375 46.1171875 C-2.90521109 45.09926702 -4.09922377 44.08104035 -5.29296875 43.0625 C-6.16211914 42.3209668 -6.16211914 42.3209668 -7.04882812 41.56445312 C-11.67285057 37.60025721 -16.16171148 33.50977244 -20.60546875 29.34375 C-25.68914521 24.8324625 -25.68914521 24.8324625 -31.98046875 22.9375 C-35.9361496 24.51977234 -37.96815124 26.80633821 -40.8515625 29.88671875 C-43.22164149 32.30608881 -45.70967034 34.38716817 -48.35546875 36.5 C-52.41869176 39.76068034 -56.29674559 43.13913396 -60.10546875 46.6875 C-64.69279743 50.95696073 -69.43992087 54.94510515 -74.32421875 58.875 C-77.34566211 61.38721133 -80.22986953 64.01152457 -83.10546875 66.6875 C-87.71548514 70.9770776 -92.48330111 74.99160897 -97.390625 78.94140625 C-100.2122037 81.2758059 -102.91137587 83.70740598 -105.60546875 86.1875 C-109.16217119 89.46168423 -112.77708686 92.59392433 -116.54296875 95.625 C-121.07863318 99.28321015 -125.36248045 103.13492965 -129.62475586 107.10131836 C-133.71207881 110.88240558 -137.98590119 114.38439966 -142.32421875 117.875 C-145.87731961 120.82926364 -149.24570555 123.95663424 -152.62719727 127.10375977 C-155.83845925 130.07465628 -159.1317469 132.88711077 -162.54296875 135.625 C-166.72791967 138.99102527 -170.68794698 142.51989804 -174.60546875 146.1875 C-180.23970345 151.44772591 -186.00475963 156.46737948 -192.10546875 161.1875 C-193.27722656 162.10402344 -193.27722656 162.10402344 -194.47265625 163.0390625 C-199.30719107 166.56877477 -203.95923534 169.09848019 -210.10546875 168.1875 C-213.72442757 166.31353181 -215.79868202 164.10786018 -217.10546875 160.1875 C-218.21534222 152.72107848 -217.08261131 147.42849856 -212.7421875 141.265625 C-207.56834963 134.93340246 -201.26330344 129.54399969 -195.20654297 124.08300781 C-192.81599595 121.92634885 -190.45013651 119.74446331 -188.08837891 117.55639648 C-186.53343198 116.11616682 -184.97392166 114.68099983 -183.4140625 113.24609375 C-179.62269948 109.74983226 -175.8644767 106.21847334 -172.10546875 102.6875 C-166.75009698 97.65762091 -161.37407978 92.6519037 -155.96875 87.67578125 C-151.83095826 83.86412088 -147.71535158 80.02922174 -143.60546875 76.1875 C-137.85448409 70.812906 -132.08488699 65.45935602 -126.29296875 60.12890625 C-124.11728181 58.12537188 -121.95195517 56.11135949 -119.79296875 54.08984375 C-113.89992349 48.58493202 -107.92342994 43.30004766 -101.62890625 38.25 C-99.33859939 36.3780464 -97.15713967 34.43903647 -94.98046875 32.4375 C-83.27787108 21.94479656 -70.23342966 12.79810096 -57.10546875 4.1875 C-56.46335449 3.7642041 -55.82124023 3.3409082 -55.15966797 2.90478516 C-36.21471311 -9.44604295 -19.71188359 -13.08485549 0 0 Z " fill="#FDAC00" transform="translate(285.10546875,110.8125)"/>
<path d="M0 0 C2.79754718 -0.27234572 5.36896647 -0.3501988 8.16577148 -0.29638672 C9.4318222 -0.2896418 9.4318222 -0.2896418 10.72344971 -0.28276062 C13.5230296 -0.26362989 16.32178009 -0.22231982 19.12109375 -0.1796875 C21.0616007 -0.1592722 23.00211738 -0.13976277 24.94264221 -0.12112427 C29.01411395 -0.07852901 33.08525979 -0.02500055 37.15649414 0.03613281 C42.37993532 0.11370465 47.60322619 0.16444567 52.82705593 0.2070179 C56.83600124 0.2426128 60.84467526 0.29233805 64.85341072 0.3463707 C66.7795216 0.3706357 68.70569309 0.39049568 70.63189507 0.40591812 C73.32330486 0.42960688 76.0137583 0.47225986 78.70483398 0.52001953 C79.90421349 0.5249366 79.90421349 0.5249366 81.12782288 0.529953 C86.50704513 0.65373769 86.50704513 0.65373769 88.70390511 2.19686031 C90.46402004 4.64554914 90.38000199 6.26508507 90.38768005 9.26914978 C90.39758469 10.36133316 90.40748932 11.45351654 90.41769409 12.57879639 C90.41319244 13.77732239 90.4086908 14.97584839 90.40405273 16.21069336 C90.41091599 17.47267044 90.41777924 18.73464752 90.42485046 20.03486633 C90.44281521 23.49773018 90.44160731 26.96034109 90.43590808 30.42323756 C90.43282079 33.31346643 90.43890357 36.2036464 90.44494683 39.09386832 C90.45900149 45.91214813 90.45742317 52.73030269 90.44604492 59.54858398 C90.43456403 66.58385193 90.4486364 73.61873865 90.4754414 80.65395635 C90.49759023 86.69312252 90.50423761 92.73216895 90.49836498 98.77137285 C90.49499203 102.37877659 90.49743248 105.98593598 90.51461601 109.59330559 C90.53293986 113.61575374 90.51890669 117.63745909 90.50170898 121.65991211 C90.51137695 122.85641388 90.52104492 124.05291565 90.53100586 125.28567505 C90.51625465 126.92817986 90.51625465 126.92817986 90.50120544 128.60386658 C90.50089152 130.03048819 90.50089152 130.03048819 90.50057125 131.48593044 C89.84485762 134.77918726 88.6296848 135.96851082 86 138 C83.19943686 138.39980782 80.79014666 138.55763415 77.99023438 138.53344727 C77.18652908 138.54206284 76.38282379 138.55067841 75.55476379 138.55955505 C72.90076401 138.58223949 70.24781794 138.57547237 67.59375 138.56640625 C65.74816575 138.57164051 63.90258418 138.57791626 62.05700684 138.58518982 C58.19005744 138.59559839 54.32347594 138.59102569 50.45654297 138.57641602 C45.4995479 138.55922154 40.5437112 138.58272889 35.5868454 138.61790562 C31.77610586 138.63985844 27.96564445 138.63844341 24.15486145 138.6301403 C22.32720163 138.62931973 20.4995216 138.63620333 18.67192078 138.65091133 C16.11714295 138.66832017 13.56445892 138.65384768 11.00976562 138.63110352 C9.8765966 138.64864182 9.8765966 138.64864182 8.72053528 138.66653442 C5.14742194 138.60176648 3.31570755 138.26121204 0.5335083 135.95925903 C-1.38555284 132.25598661 -1.57365123 129.09732865 -1.54589844 125.02075195 C-1.55623611 124.22917191 -1.56657379 123.43759186 -1.57722473 122.62202454 C-1.60677538 119.99390405 -1.60815841 117.36655567 -1.609375 114.73828125 C-1.62440588 112.87304791 -1.64114301 111.00782762 -1.65948486 109.1426239 C-1.70329501 104.19885742 -1.72313722 99.25526659 -1.73822021 94.31134033 C-1.75731501 89.45028081 -1.79968928 84.58943837 -1.83984375 79.72851562 C-1.90768475 71.06600372 -1.94742411 62.4036631 -1.97060394 53.74092293 C-1.98741195 47.78245647 -2.01950268 41.8243053 -2.06307602 35.86597538 C-2.09018829 31.94383195 -2.10899494 28.02167691 -2.12595367 24.09947777 C-2.13566758 22.24128334 -2.14875792 20.38310324 -2.16536713 18.52495766 C-2.18756835 15.96735008 -2.19735973 13.40998318 -2.20410156 10.85229492 C-2.21362602 10.09622892 -2.22315048 9.34016293 -2.23296356 8.56118584 C-2.22949257 4.81439883 -2.13464954 3.20197431 0 0 Z " fill="#8C76E5" transform="translate(213,343)"/>
<path d="M0 0 C-1 3 -1 3 -4.25390625 4.65625 C-5.68804407 5.27562537 -7.12441293 5.88985026 -8.5625 6.5 C-20.99917862 12.07033469 -31.93233581 19.5992522 -41.83984375 28.9609375 C-43.85157275 30.85989326 -45.9303668 32.61421681 -48.0625 34.375 C-76.19504322 58.93425648 -88.80377305 98.48235153 -91.76855469 134.48925781 C-93.86441614 166.28091142 -90.42507319 198.07332973 -81.5 228.6875 C-80.90453841 230.75341368 -80.31078286 232.81981988 -79.71875 234.88671875 C-79.43153076 235.88944824 -79.14431152 236.89217773 -78.84838867 237.92529297 C-77.70993615 242.05124149 -76.69956933 246.20446597 -75.71020508 250.3684082 C-74.27247309 255.69577605 -72.39661785 259.637446 -68.4375 263.5 C-62.86565203 265.93135184 -57.46200958 265.95445289 -51.60546875 264.33984375 C-42.71893851 260.74476759 -35.7243854 253.88498456 -28.75 247.50390625 C-27 246 -27 246 -26 246 C-25.73614041 256.45909523 -25.47517528 266.91825855 -25.21769714 277.37751293 C-25.09799585 282.23649257 -24.97737422 287.09544538 -24.85449219 291.9543457 C-24.73548013 296.66166588 -24.61909055 301.36904483 -24.50436401 306.07647133 C-24.4606166 307.85380592 -24.41599434 309.63111925 -24.37039185 311.40840721 C-24.04109831 324.27477507 -23.94902372 337.12955156 -24 350 C-25.27871652 349.0415982 -26.55734546 348.08307957 -27.8359375 347.12451172 C-28.5479834 346.59074921 -29.2600293 346.05698669 -29.99365234 345.50704956 C-44.24799634 334.80003037 -57.23846104 322.23743749 -68 308 C-68.43119141 307.43458496 -68.86238281 306.86916992 -69.30664062 306.28662109 C-85.19503763 285.38171272 -97.40672503 262.81537205 -106 238 C-106.41523926 236.82969238 -106.41523926 236.82969238 -106.83886719 235.63574219 C-120.67140417 196.34065824 -124.18860976 149.74916088 -115 109 C-114.81276367 108.13552246 -114.62552734 107.27104492 -114.43261719 106.38037109 C-106.31437774 69.68003992 -83.66439094 37.34000157 -52 17 C-36.05598074 6.89693803 -19.15074636 -0.64432418 0 0 Z " fill="#FCFCFC" transform="translate(137,20)"/>
<path d="M0 0 C1.03125 0.7425 2.0625 1.485 3.125 2.25 C14.42402679 13.05776476 19.88320532 27.79908588 20.375 43.1875 C20.1234908 59.92124569 13.61068915 73.32841562 2 85 C1.46890625 85.56589844 0.9378125 86.13179688 0.390625 86.71484375 C-10.23623641 97.04042816 -24.73738291 99.33493703 -38.89208984 99.38500977 C-52.57360156 99.16609611 -64.62216243 93.05422433 -74.6875 83.875 C-86.82587903 70.8320783 -90.96654906 56.34405464 -90.37890625 39.0078125 C-89.54915829 25.05035943 -82.38087027 13.47800798 -72.375 3.99609375 C-51.74880211 -13.33941139 -21.73734371 -17.09575446 0 0 Z " fill="#070604" transform="translate(292,208)"/>
<path d="M0 0 C3.63326668 0.60554445 4.74144325 1.6558915 7 4.5 C8.87259441 8.24518881 7.85834349 12.52092422 7 16.5 C5.83843035 18.93814619 4.54887974 21.14432606 3.05859375 23.39453125 C1.79070792 25.91626726 1.81038142 27.71406555 2 30.5 C8.06236235 30.11238092 11.3779357 28.30788725 16.125 24.625 C17.31386762 23.73012568 18.50394965 22.83686218 19.6953125 21.9453125 C20.25621582 21.5232251 20.81711914 21.1011377 21.39501953 20.66625977 C27.2439605 16.41612423 31.7137295 14.86085346 39 15.5 C41.9375 17.1875 41.9375 17.1875 44 19.5 C44.625 21.875 44.625 21.875 44 24.5 C41.55391575 27.99440607 39.90640844 29.99643976 36.1875 32.0625 C35.465625 32.536875 34.74375 33.01125 34 33.5 C33.81759117 36.06007489 33.81759117 36.06007489 34 38.5 C34.81984375 38.67015625 35.6396875 38.8403125 36.484375 39.015625 C37.56203125 39.25796875 38.6396875 39.5003125 39.75 39.75 C41.35101563 40.09804688 41.35101563 40.09804688 42.984375 40.453125 C46 41.5 46 41.5 50 45.5 C-2.47 45.5 -54.94 45.5 -109 45.5 C-109.33 43.52 -109.66 41.54 -110 39.5 C-107.31091581 36.04260604 -105.28721766 34.23783637 -101 33.5 C-94.91785013 33.18331838 -88.99276313 33.43461989 -83 34.5 C-82.14517768 32.72294348 -82.14517768 32.72294348 -82 30.5 C-83.60656891 28.32341409 -83.60656891 28.32341409 -85.875 26.375 C-90.9241969 21.71284955 -90.9241969 21.71284955 -91.1875 17.5 C-91 14.5 -91 14.5 -89 12.5 C-82.53877803 11.41113465 -77.20659249 13.13214737 -71.4375 15.875 C-70.67171631 16.22570557 -69.90593262 16.57641113 -69.11694336 16.93774414 C-62.11510191 20.24250965 -55.62179141 24.24879672 -49.16015625 28.49609375 C-43.57100208 32.04026692 -38.46688738 32.22794806 -32 31.5 C-24.35169242 29.16180311 -20.12890503 25.14125623 -16 18.5 C-14.86235181 16.70986939 -13.72029173 14.92263223 -12.57641602 13.13647461 C-11.79155073 11.90407184 -11.01432584 10.66676064 -10.24584961 9.42407227 C-4.84973026 0.80828838 -4.84973026 0.80828838 0 0 Z " fill="#FCAB00" transform="translate(130,451.5)"/>
<path d="M0 0 C2.375 1.375 2.375 1.375 4 4 C5.48028485 12.41345572 2.59380772 19.10928841 -2 26 C-2.16713569 28.62531524 -2.16713569 28.62531524 -2 31 C3.37012643 30.57625709 6.65967912 28.44836738 10.8125 25.25 C12.0499268 24.33821183 13.28950791 23.42933998 14.53125 22.5234375 C15.12679687 22.08741211 15.72234375 21.65138672 16.3359375 21.20214844 C22.07513896 17.05604691 26.78819936 14.15743405 34.046875 14.65234375 C36.88809468 15.15808085 38.25805196 15.65215699 40 18 C40.875 21.125 40.875 21.125 40 25 C36.94092483 28.35219213 33.56118092 31.19557002 30 34 C30.33 35.32 30.66 36.64 31 38 C31.85271484 38.14695312 31.85271484 38.14695312 32.72265625 38.296875 C38.22914031 39.36323919 42.2731199 40.98284249 47 44 C47 44.33 47 44.66 47 45 C-5.47 45 -57.94 45 -112 45 C-112.33 42.69 -112.66 40.38 -113 38 C-110.0269552 34.94660264 -107.48968799 33.07083831 -103.20703125 32.8671875 C-97.3719293 32.88061696 -91.74402575 32.93134405 -86 34 C-85.49620971 31.71305777 -85.49620971 31.71305777 -86 29 C-87.45252688 27.70886499 -88.91415807 26.42267241 -90.4609375 25.24609375 C-92.72353316 23.41419523 -93.88802152 21.68183044 -95 19 C-94.8125 15.75 -94.8125 15.75 -94 13 C-89.79035731 10.89517866 -84.86671839 11.39189127 -80.50585938 12.8125 C-77.86924941 13.95618829 -75.31101211 15.19589884 -72.75 16.5 C-71.83557129 16.94980225 -70.92114258 17.39960449 -69.97900391 17.86303711 C-63.55703537 21.07175573 -57.40922708 24.58348312 -51.3984375 28.50390625 C-46.23272844 31.72616451 -40.91122235 31.5822271 -35 31 C-24.47053127 27.74382816 -19.72091361 18.66651927 -14.37304688 9.7734375 C-13.86708984 8.9484375 -13.36113281 8.1234375 -12.83984375 7.2734375 C-12.38988037 6.52497559 -11.93991699 5.77651367 -11.47631836 5.00537109 C-8.27117396 0.6516327 -5.40955982 -0.78889414 0 0 Z " fill="#FCAB00" transform="translate(445,452)"/>
<path d="M0 0 C-1.12921875 0.27650391 -1.12921875 0.27650391 -2.28125 0.55859375 C-24.22826542 6.55140743 -42.58410515 21.94327 -60 36 C-61.46566406 37.17369141 -61.46566406 37.17369141 -62.9609375 38.37109375 C-68.34697163 42.72367316 -73.55568304 47.22868315 -78.67578125 51.890625 C-80.72042335 53.74626657 -82.78784149 55.56756376 -84.875 57.375 C-90.3458302 62.1441606 -95.66407667 67.0813022 -101 72 C-102.04424496 72.96096561 -103.08851576 73.92190315 -104.1328125 74.8828125 C-110.58467609 80.8246631 -117.0054558 86.79908942 -123.41333008 92.78833008 C-127.95442572 97.03053885 -132.51532877 101.25057379 -137.0859375 105.4609375 C-141.23971199 109.29051495 -145.37248965 113.14214453 -149.5 117 C-153.68060951 120.90664662 -157.86432051 124.80967951 -162.06787109 128.69165039 C-163.14113704 129.68289254 -164.21309521 130.6755527 -165.28369141 131.66967773 C-167.89779419 134.09105609 -170.53372573 136.47549694 -173.23046875 138.8046875 C-180.39635179 145.05282692 -185.73414843 151.46829685 -190 160 C-190.0716735 162.55157655 -190.09308442 165.07472971 -190.0625 167.625 C-190.05798828 168.33140625 -190.05347656 169.0378125 -190.04882812 169.765625 C-190.03703875 171.51045275 -190.01910324 173.255237 -190 175 C-194.73526074 174.36517708 -196.96383749 173.82331576 -200 170 C-201.84778757 164.45663729 -202.08479595 158.92938826 -200.03515625 153.39453125 C-194.90725196 144.4036964 -186.70012742 137.74708599 -179.10107422 130.89550781 C-176.7105272 128.73884885 -174.34466776 126.55696331 -171.98291016 124.36889648 C-170.42796323 122.92866682 -168.86845291 121.49349983 -167.30859375 120.05859375 C-163.51723073 116.56233226 -159.75900795 113.03097334 -156 109.5 C-150.64462823 104.47012091 -145.26861103 99.4644037 -139.86328125 94.48828125 C-135.72548951 90.67662088 -131.60988283 86.84172174 -127.5 83 C-121.74901534 77.625406 -115.97941824 72.27185602 -110.1875 66.94140625 C-108.01181306 64.93787188 -105.84648642 62.92385949 -103.6875 60.90234375 C-97.79445474 55.39743202 -91.81796119 50.11254766 -85.5234375 45.0625 C-83.23313064 43.1905464 -81.05167092 41.25153647 -78.875 39.25 C-67.17240233 28.75729656 -54.12796091 19.61060096 -41 11 C-40.35788574 10.5767041 -39.71577148 10.1534082 -39.05419922 9.71728516 C-28.85593789 3.06870913 -11.81810491 -7.87873661 0 0 Z " fill="#FBFAF7" transform="translate(269,104)"/>
<path d="M0 0 C1.09307866 27.00136851 1.11043806 53.98005506 1 81 C-0.11339523 80.0594015 -1.22482944 79.11648145 -2.33544922 78.17260742 C-2.95459198 77.64777267 -3.57373474 77.12293793 -4.2116394 76.5821991 C-21.00353415 61.7260673 -34.55563637 38.5601897 -43 18 C-42.17048828 18.23783203 -42.17048828 18.23783203 -41.32421875 18.48046875 C-33.25401784 20.28439601 -26.03503687 19.27397401 -19 15 C-13.17673077 10.99269801 -7.95778902 6.26867155 -2.75 1.50390625 C-1 0 -1 0 0 0 Z " fill="#8C76E4" transform="translate(111,266)"/>
<path d="M0 0 C3.63 0 7.26 0 11 0 C11.00808685 1.65735168 11.01617371 3.31470337 11.02450562 5.02227783 C11.10189742 20.62021862 11.18950083 36.21806684 11.28752708 51.81589127 C11.33766373 59.83541199 11.38410652 67.85492243 11.421875 75.87451172 C11.45480068 82.86381788 11.49463507 89.85304454 11.54279006 96.84226298 C11.56804936 100.54351254 11.58983229 104.2447094 11.60334396 107.94602203 C11.61855145 112.07643573 11.64918183 116.20659611 11.68115234 120.33691406 C11.68331253 121.56618118 11.68547272 122.7954483 11.68769836 124.06196594 C11.69886185 125.18654709 11.71002533 126.31112823 11.7215271 127.4697876 C11.72705786 128.44688816 11.73258862 129.42398872 11.73828697 130.43069839 C12.0079147 133.07770055 12.65120641 134.72908321 14 137 C12.41906283 137.1357675 10.83473048 137.23234745 9.25 137.3125 C8.36828125 137.37050781 7.4865625 137.42851562 6.578125 137.48828125 C4 137 4 137 1.87298584 134.96818542 C-0.46284497 131.26651358 -0.57477588 128.2625268 -0.54589844 124.02075195 C-0.55623611 123.22917191 -0.56657379 122.43759186 -0.57722473 121.62202454 C-0.60677538 118.99390405 -0.60815841 116.36655567 -0.609375 113.73828125 C-0.62440588 111.87304791 -0.64114301 110.00782762 -0.65948486 108.1426239 C-0.70329501 103.19885742 -0.72313722 98.25526659 -0.73822021 93.31134033 C-0.75731501 88.45028067 -0.79971525 83.58943868 -0.83984375 78.72851562 C-0.92230087 68.13488182 -0.96224995 57.54135458 -0.99105835 46.94745636 C-1.00020758 43.93157352 -1.01207653 40.91571168 -1.0246582 37.89984131 C-1.04509941 32.9480821 -1.06020121 27.9963355 -1.07102203 23.04454613 C-1.07572948 21.17953211 -1.08201239 19.31452136 -1.08992767 17.4495182 C-1.100243 14.88454145 -1.10421704 12.3196334 -1.10644531 9.75463867 C-1.11299007 8.61279775 -1.11299007 8.61279775 -1.11966705 7.44788933 C-1.11426363 2.22852726 -1.11426363 2.22852726 0 0 Z " fill="#F9F8FC" transform="translate(212,344)"/>
<path d="M0 0 C11.84282516 0 21.48405783 3.95622755 30.15625 12 C35.31895709 17.39387308 38.3266178 23.07301777 41 30 C41.433125 31.051875 41.86625 32.10375 42.3125 33.1875 C43 36 43 36 43 44 C28.81 44 14.62 44 0 44 C0 29.48 0 14.96 0 0 Z " fill="#FCAB00" transform="translate(261,205)"/>
<path d="M0 0 C14.52 0 29.04 0 44 0 C42.67856977 13.21430235 38.11156892 24.06336691 28 33 C19.78923638 39.36080762 10.51662339 44 0 44 C0 29.48 0 14.96 0 0 Z " fill="#F7A700" transform="translate(260,256)"/>
<path d="M0 0 C14.19 0 28.38 0 43 0 C43 14.19 43 28.38 43 43 C30.10462136 43 21.18058054 37.96298719 12.06640625 29.125 C4.3650787 20.91025062 0 11.23625929 0 0 Z " fill="#FCAC01" transform="translate(210,256)"/>
<path d="M0 0 C0 14.19 0 28.38 0 43 C-14.19 43 -28.38 43 -43 43 C-43 30.94804381 -38.57051075 23.17272813 -30.6875 14.4375 C-29.800625 13.633125 -28.91375 12.82875 -28 12 C-27.38769531 11.44441406 -26.77539062 10.88882813 -26.14453125 10.31640625 C-18.49374635 3.83623325 -10.07567521 0 0 0 Z " fill="#FDAC01" transform="translate(253,206)"/>
<path d="M0 0 C4.62 0 9.24 0 14 0 C14.23074219 0.96679688 14.46148437 1.93359375 14.69921875 2.9296875 C18.4899028 18.30026799 24.14670684 30.28677458 38.0625 39.0625 C39.00222656 39.61035156 39.94195312 40.15820312 40.91015625 40.72265625 C41.59980469 41.14417969 42.28945312 41.56570313 43 42 C43 42.33 43 42.66 43 43 C33.66523974 43.8975731 25.61078007 40.21062306 18.1875 34.6875 C9.37952072 27.29707977 2.77059338 18.33424565 0 7 C0 4.69 0 2.38 0 0 Z " fill="#FAF9F6" transform="translate(210,256)"/>
<path d="M0 0 C0 0.66 0 1.32 0 2 C-1.87109375 3.19140625 -1.87109375 3.19140625 -4.4375 4.5625 C-16.35700135 11.58288427 -23.05911047 21.44472548 -27.09765625 34.56640625 C-27.80668517 37.35965042 -28.41498753 40.17817516 -29 43 C-33.62 43 -38.24 43 -43 43 C-43 30.94804381 -38.57051075 23.17272813 -30.6875 14.4375 C-29.800625 13.633125 -28.91375 12.82875 -28 12 C-27.38769531 11.44441406 -26.77539062 10.88882813 -26.14453125 10.31640625 C-18.75019776 4.05344619 -9.86461164 -0.48805425 0 0 Z " fill="#F9F8F6" transform="translate(253,206)"/>
<path d="M0 0 C1.2065625 0.0309375 1.2065625 0.0309375 2.4375 0.0625 C3.51368304 4.03226129 3.26043628 6.36785625 2 10.25 C0.49987915 15.75729298 0.15938562 20.83409187 0.1875 26.5 C0.19080322 27.26916748 0.19410645 28.03833496 0.19750977 28.83081055 C0.26172291 32.71124084 0.60669419 36.2607326 1.4375 40.0625 C1.55428799 42.73928073 1.4829506 45.38091457 1.4375 48.0625 C-1.0375 48.5575 -1.0375 48.5575 -3.5625 49.0625 C-8.26503531 42.51984218 -7.7578204 34.4476808 -7.75 26.6875 C-7.74919434 25.85259033 -7.74838867 25.01768066 -7.74755859 24.1574707 C-7.50924064 0.18315221 -7.50924064 0.18315221 0 0 Z " fill="#030205" transform="translate(289.5625,385.9375)"/>
<path d="M0 0 C2.4375 0.1875 2.4375 0.1875 3.4375 1.1875 C3.38180649 8.51119679 2.11242329 15.8373247 1 23.0625 C0.81679199 24.27462158 0.81679199 24.27462158 0.62988281 25.51123047 C-0.06926845 29.89227573 -0.86162905 34.06143283 -2.5625 38.1875 C-4.5625 39.1875 -4.5625 39.1875 -6.5625 39.1875 C-8.5625 37.1875 -8.5625 37.1875 -8.8046875 33.40234375 C-8.66116291 27.11621846 -7.66284694 20.951408 -6.6875 14.75 C-6.51347656 13.56728516 -6.33945312 12.38457031 -6.16015625 11.16601562 C-5.98613281 10.04001953 -5.81210937 8.91402344 -5.6328125 7.75390625 C-5.47570801 6.73240479 -5.31860352 5.71090332 -5.15673828 4.65844727 C-4.33708687 1.25019256 -3.54384255 0.25930555 0 0 Z " fill="#07050B" transform="translate(381.5625,113.8125)"/>
<path d="M0 0 C2.375 -0.125 2.375 -0.125 5 0 C8.4941425 3.4941425 8.35868913 8.68921077 9.125 13.4375 C9.30675781 14.48099609 9.48851562 15.52449219 9.67578125 16.59960938 C10.78302136 23.30548836 11.82196351 30.20382135 11 37 C10.34 37.66 9.68 38.32 9 39 C7 39 7 39 5 38 C2.65874206 32.46025189 1.88537873 26.45637595 0.875 20.5625 C0.69324219 19.55123047 0.51148438 18.53996094 0.32421875 17.49804688 C-2.01329449 4.02658898 -2.01329449 4.02658898 0 0 Z " fill="#06050B" transform="translate(132,114)"/>
<path d="M0 0 C0.66 0.66 1.32 1.32 2 2 C1.84765625 4.03515625 1.84765625 4.03515625 1 6 C-2.01146252 7.21515154 -4.88685738 8.10764654 -8 9 C-9.32856128 9.43878154 -10.65526625 9.88320765 -11.98046875 10.33203125 C-13.40358221 10.80487902 -14.82675968 11.2775342 -16.25 11.75 C-16.93521729 11.98517334 -17.62043457 12.22034668 -18.32641602 12.46264648 C-22.25739114 13.73269809 -25.02271932 14.26409696 -29 13 C-29.3125 10.6875 -29.3125 10.6875 -29 8 C-24.95922919 4.96349121 -20.41108772 3.69728587 -15.625 2.3125 C-14.89539063 2.08755859 -14.16578125 1.86261719 -13.4140625 1.63085938 C-8.85020656 0.29022669 -4.80449192 -0.41963284 0 0 Z " fill="#060509" transform="translate(438,165)"/>
<path d="M0 0 C4.35501092 0.22875677 7.89579573 1.15537276 12.00390625 2.51953125 C13.02581055 2.83954102 13.02581055 2.83954102 14.06835938 3.16601562 C18.23521801 4.50693555 22.06481547 6.14475753 25.94140625 8.20703125 C25.98412725 9.8731503 25.98204457 11.5408601 25.94140625 13.20703125 C25.61140625 13.53703125 25.28140625 13.86703125 24.94140625 14.20703125 C18.50797925 13.73539399 12.64709218 12.10966882 6.50390625 10.20703125 C5.13975586 9.79710937 5.13975586 9.79710937 3.74804688 9.37890625 C-2.91785127 7.34777373 -2.91785127 7.34777373 -4.05859375 6.20703125 C-4.18359375 3.70703125 -4.18359375 3.70703125 -4.05859375 1.20703125 C-3.05859375 0.20703125 -3.05859375 0.20703125 0 0 Z " fill="#050408" transform="translate(81.05859375,164.79296875)"/>
<path d="M0 0 C3.44046413 0.55145028 4.50772358 1.99929 6.55273438 4.72070312 C6.96974609 5.30916016 7.38675781 5.89761719 7.81640625 6.50390625 C8.44772461 7.34598633 8.44772461 7.34598633 9.09179688 8.20507812 C16.89444577 18.79006693 16.89444577 18.79006693 16.50390625 23.37890625 C16.25640625 24.05953125 16.00890625 24.74015625 15.75390625 25.44140625 C14.43390625 25.77140625 13.11390625 26.10140625 11.75390625 26.44140625 C9.39742318 23.45898236 7.07247534 20.45337919 4.75390625 17.44140625 C3.64208984 16.02021484 3.64208984 16.02021484 2.5078125 14.5703125 C1.78464844 13.62027344 1.06148438 12.67023438 0.31640625 11.69140625 C-0.36292969 10.8096875 -1.04226562 9.92796875 -1.7421875 9.01953125 C-3.39902548 6.17923757 -3.65828208 4.67115592 -3.24609375 1.44140625 C-2.24609375 0.44140625 -2.24609375 0.44140625 0 0 Z " fill="#050408" transform="translate(109.24609375,139.55859375)"/>
<path d="M0 0 C2.375 0.3125 2.375 0.3125 3.375 1.3125 C3.98597784 4.9850081 3.40165966 6.27184911 1.328125 9.43359375 C0.43914611 10.54878601 -0.4623718 11.65407709 -1.375 12.75 C-2.26749628 13.85135079 -3.15813792 14.95420723 -4.046875 16.05859375 C-4.48209473 16.59468262 -4.91731445 17.13077148 -5.36572266 17.68310547 C-6.6111076 19.29452446 -7.7213049 20.94644081 -8.8203125 22.66015625 C-10.625 25.3125 -10.625 25.3125 -12.75 26.3125 C-13.36875 26.3125 -13.9875 26.3125 -14.625 26.3125 C-15.285 25.6525 -15.945 24.9925 -16.625 24.3125 C-16.47941326 18.76402767 -13.9719809 15.43175247 -10.75 11.1875 C-10.30269531 10.58035156 -9.85539062 9.97320312 -9.39453125 9.34765625 C-8.5313324 8.17890028 -7.66134707 7.01511698 -6.78369141 5.85717773 C-5.81272541 4.56276099 -4.88518244 3.23592586 -3.96875 1.90234375 C-2.625 0.3125 -2.625 0.3125 0 0 Z " fill="#050408" transform="translate(406.625,139.6875)"/>
<path d="M0 0 C0.36075949 4.44936709 0.36075949 4.44936709 -1.1875 6.8125 C-3.6135694 8.40199375 -5.15397406 8.36487512 -8 8 C-8.66 7.34 -9.32 6.68 -10 6 C-9.82229322 3.24554484 -9.17311088 2.17929341 -7.25 0.1875 C-4.3995411 -1.31690887 -3.01911587 -0.92250763 0 0 Z " fill="#06050A" transform="translate(422,129)"/>
<path d="M0 0 C2.6875 0.3125 2.6875 0.3125 5.0625 2.0625 C6.6875 4.3125 6.6875 4.3125 6.4375 6.5625 C6.19 7.14 5.9425 7.7175 5.6875 8.3125 C2.67481243 9.23304342 1.26020838 9.59111489 -1.625 8.1875 C-3.3125 6.3125 -3.3125 6.3125 -3.625 3.6875 C-3.21220128 0.55022973 -3.12914486 0.42285741 0 0 Z " fill="#050509" transform="translate(97.3125,127.6875)"/>
<path d="M0 0 C1.60379341 -0.05416188 3.20811406 -0.09286638 4.8125 -0.125 C5.70582031 -0.14820312 6.59914063 -0.17140625 7.51953125 -0.1953125 C10 0 10 0 13 2 C10.69 2.33 8.38 2.66 6 3 C6 2.34 6 1.68 6 1 C4.02 1 2.04 1 0 1 C0 0.67 0 0.34 0 0 Z " fill="#E3DAC8" transform="translate(256,102)"/>
</svg>
