<?xml version="1.0" encoding="UTF-8"?>
<svg version="1.1" xmlns="http://www.w3.org/2000/svg" width="512" height="512">
<path d="M0 0 C0.69722168 0.21430664 1.39444336 0.42861328 2.11279297 0.64941406 C31.9381165 10.16857655 55.65524061 31.58188639 70.18164062 59.06860352 C84.22873751 87.01736018 85.84424909 119.58226608 76.3125 149.1875 C66.2515153 178.6072947 44.36417422 202.48521048 16.66699219 216.27099609 C-1.49490155 225 -1.49490155 225 -11 225 C-10.99631283 225.6927792 -10.99262566 226.3855584 -10.98882675 227.0993309 C-10.90004016 244.04707034 -10.83408044 260.994735 -10.79275131 277.94265366 C-10.77222767 286.13893803 -10.74430528 294.33506606 -10.69824219 302.53125 C-10.65805873 309.68472863 -10.63249335 316.83809391 -10.62364602 323.99168229 C-10.61848385 327.77071837 -10.60657129 331.5494305 -10.57707977 335.32836151 C-10.40843579 357.83518216 -12.73538391 377.68251999 -20 399 C-18.80793945 399.15033691 -18.80793945 399.15033691 -17.59179688 399.30371094 C31.86374432 405.61809822 31.86374432 405.61809822 41.85546875 417.0078125 C44 420 44 420 44.625 423.5 C43.83853623 427.90419712 42.43758282 430.27164479 39 433 C21.36784644 443.99610199 -1.90503719 447.09031021 -22.390625 447.203125 C-23.24978012 447.21009399 -24.10893524 447.21706299 -24.99412537 447.22424316 C-27.74613413 447.24151301 -30.49793933 447.24796084 -33.25 447.25 C-34.18897125 447.25100708 -35.1279425 447.25201416 -36.09536743 447.25305176 C-49.91060989 447.24301708 -63.44245838 446.92617713 -77 444 C-78.05743408 443.77521973 -78.05743408 443.77521973 -79.13623047 443.54589844 C-90.59736227 441.00974947 -103.97605397 437.85732091 -111.4375 428.125 C-112.31927745 424.79384074 -111.81612906 422.32281116 -111 419 C-104.10088996 408.81634783 -89.46192664 405.48286971 -77.99609375 403.16015625 C-68.06326938 401.27082292 -58.049518 400.06909766 -48 399 C-48.20157715 398.31075439 -48.4031543 397.62150879 -48.61083984 396.91137695 C-49.54066414 393.71413794 -50.45785783 390.51339897 -51.375 387.3125 C-51.69210938 386.22904297 -52.00921875 385.14558594 -52.3359375 384.02929688 C-52.6453125 382.94326172 -52.9546875 381.85722656 -53.2734375 380.73828125 C-53.55622559 379.75899658 -53.83901367 378.77971191 -54.13037109 377.77075195 C-56.49580429 367.51412204 -57.28871868 357.5453615 -57.22705078 347.03979492 C-57.22648486 345.69799305 -57.22680674 344.35619056 -57.22793579 343.01438904 C-57.22850327 339.41604403 -57.21684855 335.81783581 -57.20278788 332.21952224 C-57.19017814 328.44260484 -57.18910203 324.66568337 -57.18673706 320.88874817 C-57.1805521 313.75637547 -57.16418223 306.624065 -57.14403808 299.49171954 C-57.12158549 291.36340739 -57.11066225 283.23509207 -57.10064721 275.10675657 C-57.07981292 258.40446811 -57.0446958 241.70224203 -57 225 C-57.67524216 224.87026291 -58.35048431 224.74052582 -59.04618835 224.6068573 C-60.38397087 224.34549736 -60.38397087 224.34549736 -61.7487793 224.07885742 C-62.63027145 223.90787033 -63.51176361 223.73688324 -64.41996765 223.56071472 C-68.01330599 222.77977967 -71.38682715 221.63395012 -74.8125 220.3125 C-75.4933667 220.05194824 -76.1742334 219.79139648 -76.87573242 219.52294922 C-105.5634807 208.23256514 -128.37658344 185.8539578 -140.9128418 157.8034668 C-152.83470919 129.76362291 -153.45764875 96.96887307 -142.3125 68.58203125 C-130.31959191 39.53986331 -107.9693205 16.45172548 -79 4 C-74.0518329 2.09142126 -69.08877295 0.4763724 -64 -1 C-62.93265625 -1.32226562 -61.8653125 -1.64453125 -60.765625 -1.9765625 C-41.54084244 -6.80532244 -18.90543999 -5.83824868 0 0 Z " fill="#B718EC" transform="translate(305,31)"/>
<path d="M0 0 C1.18832417 0.97416465 2.3554123 1.9748024 3.5 3 C4.16128906 3.58136719 4.82257813 4.16273437 5.50390625 4.76171875 C16.9368839 15.45708494 25.23549459 31.02719909 25.8359375 46.79296875 C26.1464774 68.7372197 26.1464774 68.7372197 21.5 79 C21.07589844 80.00675781 20.65179688 81.01351562 20.21484375 82.05078125 C12.10862205 99.82124498 -1.77216123 110.89731541 -19.5 118 C-20.36753906 118.36222656 -21.23507812 118.72445312 -22.12890625 119.09765625 C-37.24159891 124.31311198 -55.60242305 121.90263951 -69.8515625 115.4921875 C-87.06168062 106.82667135 -100.0774103 93.02372817 -106.3137207 74.59545898 C-108.38635642 67.72458857 -109.0109061 61.34372816 -108.9375 54.1875 C-108.92920166 53.13651123 -108.92090332 52.08552246 -108.91235352 51.00268555 C-108.53005815 33.35587724 -101.79854695 18.27076356 -89.3828125 5.72265625 C-63.91785506 -18.32758133 -28.2774294 -20.2377681 0 0 Z " fill="#E639FE" transform="translate(312.5,47)"/>
<path d="M0 0 C0.94890106 0.07064667 1.89780212 0.14129333 2.87545776 0.21408081 C4.752509 0.35150192 4.752509 0.35150192 6.66748047 0.49169922 C7.90513153 0.58297089 9.14278259 0.67424255 10.41793823 0.76828003 C14.99345649 1.0642657 19.54163893 1.14765253 24.125 1.125 C25.31029297 1.13080078 25.31029297 1.13080078 26.51953125 1.13671875 C31.14474794 1.12927074 35.70721419 0.89037328 40.31591797 0.49169922 C41.38405731 0.40008514 42.45219666 0.30847107 43.55270386 0.21408081 C44.36031158 0.14343414 45.16791931 0.07278748 46 0 C46.09392519 17.64751308 46.16421306 35.29494687 46.20724869 52.94265366 C46.22777233 61.13893803 46.25569472 69.33506606 46.30175781 77.53125 C46.34194127 84.68472863 46.36750665 91.83809391 46.37635398 98.99168229 C46.38151615 102.77071837 46.39342871 106.5494305 46.42292023 110.32836151 C46.59156421 132.83518216 44.26461609 152.68251999 37 174 C38.19206055 174.15033691 38.19206055 174.15033691 39.40820312 174.30371094 C88.86374432 180.61809822 88.86374432 180.61809822 98.85546875 192.0078125 C101 195 101 195 101.625 198.5 C100.83853623 202.90419712 99.43758282 205.27164479 96 208 C78.36784644 218.99610199 55.09496281 222.09031021 34.609375 222.203125 C33.75021988 222.21009399 32.89106476 222.21706299 32.00587463 222.22424316 C29.25386587 222.24151301 26.50206067 222.24796084 23.75 222.25 C22.81102875 222.25100708 21.8720575 222.25201416 20.90463257 222.25305176 C7.08939011 222.24301708 -6.44245838 221.92617713 -20 219 C-20.70495605 218.85014648 -21.40991211 218.70029297 -22.13623047 218.54589844 C-33.59736227 216.00974947 -46.97605397 212.85732091 -54.4375 203.125 C-55.31927745 199.79384074 -54.81612906 197.32281116 -54 194 C-47.10088996 183.81634783 -32.46192664 180.48286971 -20.99609375 178.16015625 C-11.06326938 176.27082292 -1.049518 175.06909766 9 174 C8.69763428 172.96613159 8.69763428 172.96613159 8.38916016 171.91137695 C7.45933586 168.71413794 6.54214217 165.51339897 5.625 162.3125 C5.30789062 161.22904297 4.99078125 160.14558594 4.6640625 159.02929688 C4.3546875 157.94326172 4.0453125 156.85722656 3.7265625 155.73828125 C3.44377441 154.75899658 3.16098633 153.77971191 2.86962891 152.77075195 C0.50419571 142.51412204 -0.28871868 132.5453615 -0.22705078 122.03979492 C-0.22648486 120.69799305 -0.22680674 119.35619056 -0.22793579 118.01438904 C-0.22850327 114.41604403 -0.21684855 110.81783581 -0.20278788 107.21952224 C-0.19017814 103.44260484 -0.18910203 99.66568337 -0.18673706 95.88874817 C-0.1805521 88.75637547 -0.16418223 81.624065 -0.14403808 74.49171954 C-0.12158549 66.36340739 -0.11066225 58.23509207 -0.10064721 50.10675657 C-0.07981292 33.40446811 -0.0446958 16.70224203 0 0 Z " fill="#82ABFE" transform="translate(248,256)"/>
<path d="M0 0 C0.69722168 0.21430664 1.39444336 0.42861328 2.11279297 0.64941406 C31.9381165 10.16857655 55.65524061 31.58188639 70.18164062 59.06860352 C84.22873751 87.01736018 85.84424909 119.58226608 76.3125 149.1875 C66.24989944 178.61201971 44.36387898 202.47383617 16.66992188 216.27050781 C-10.52711419 229.33047067 -44.22135272 231.26694781 -72.875 221.3125 C-102.45054691 210.33572224 -126.5463228 188.44613294 -139.9765625 159.8984375 C-152.37601363 132.15405936 -153.79237323 99.4001907 -143.1953125 70.83056641 C-131.73679146 41.6455612 -110.42819996 18.89458579 -82.1171875 5.33984375 C-76.19634658 2.7949209 -70.18024139 0.793033 -64 -1 C-62.93265625 -1.32226562 -61.8653125 -1.64453125 -60.765625 -1.9765625 C-41.54084244 -6.80532244 -18.90543999 -5.83824868 0 0 Z M-85 16 C-85.97324219 16.54269531 -86.94648438 17.08539063 -87.94921875 17.64453125 C-109.90778437 30.51895417 -125.41825152 53.096794 -132.0703125 77.390625 C-132.37710938 78.58171875 -132.68390625 79.7728125 -133 81 C-133.24492187 81.88171875 -133.48984375 82.7634375 -133.7421875 83.671875 C-139.37378567 107.89546163 -133.35545488 134.87476891 -120.68188477 155.87207031 C-116.44611783 162.50517971 -111.47421638 168.35749849 -106 174 C-105.40058594 174.67289063 -104.80117187 175.34578125 -104.18359375 176.0390625 C-88.57462753 192.96282285 -64.39705276 202.90787434 -41.67456055 204.12451172 C-15.0803249 204.97717963 11.44184512 199.09901776 31.5 180.4375 C33.35572241 178.64603179 35.17725497 176.82548188 37 175 C38.07121094 174.03513672 38.07121094 174.03513672 39.1640625 173.05078125 C54.24970927 159.19722913 61.84796048 139.57708959 66 120 C66.1743457 119.20746826 66.34869141 118.41493652 66.52832031 117.59838867 C70.94409664 93.27276371 63.79271389 68.31374178 50.95703125 47.72265625 C37.64055427 28.77126286 17.28156921 10.81687639 -6 6 C-6.92167969 5.67773438 -7.84335937 5.35546875 -8.79296875 5.0234375 C-14.70637802 3.13633247 -20.84609801 2.59568672 -27 2 C-28.66482422 1.83371094 -28.66482422 1.83371094 -30.36328125 1.6640625 C-49.14757447 0.75409674 -68.99446186 6.33592063 -85 16 Z " fill="#7A169C" transform="translate(305,31)"/>
<path d="M0 0 C-0.95519531 0.27972656 -1.91039062 0.55945312 -2.89453125 0.84765625 C-11.48676746 3.46773036 -18.71374801 6.60599852 -26 12 C-26.92554688 12.680625 -27.85109375 13.36125 -28.8046875 14.0625 C-44.04412226 25.8825602 -53.50743834 41.72111057 -59 60 C-59.24621094 60.79148438 -59.49242187 61.58296875 -59.74609375 62.3984375 C-65.06986815 83.32637823 -59.99663999 106.80399751 -49.6875 125.3125 C-36.91578133 145.92014213 -17.88136726 159.61937216 5.60205078 165.3671875 C11.53872743 166.47279649 17.41623318 166.43207362 23.4375 166.375 C25.26764648 166.39240234 25.26764648 166.39240234 27.13476562 166.41015625 C38.35320812 166.37437174 48.88409344 164.46991203 59.125 159.8125 C59.7967627 159.51134277 60.46852539 159.21018555 61.16064453 158.89990234 C67.36613703 156.01152226 72.73076812 152.37060319 78 148 C78.86238281 147.30003906 79.72476563 146.60007813 80.61328125 145.87890625 C96.30972681 132.51668173 107.24114989 111.60820004 109 91 C110.47948009 65.35909719 104.65267971 42.98513965 87.3671875 23.49121094 C78.54997247 13.87414854 68.03567916 6.93538541 56 2 C58.33601091 1.18492999 59.6055952 0.87214111 61.99194336 1.64575195 C62.68425049 2.00628662 63.37655762 2.36682129 64.08984375 2.73828125 C65.25700928 3.34265015 65.25700928 3.34265015 66.44775391 3.95922852 C67.26937012 4.40580811 68.09098633 4.8523877 68.9375 5.3125 C69.78489746 5.7674585 70.63229492 6.22241699 71.50537109 6.69116211 C95.96394997 20.15334561 113.26261674 41.44401224 121.671875 68.0390625 C126.62727066 85.43520542 127.25713132 104.60290679 122 122 C121.64808594 123.2271875 121.29617188 124.454375 120.93359375 125.71875 C113.4281086 150.69888653 95.94621583 172.53399686 73 185 C72.40074707 185.32581055 71.80149414 185.65162109 71.18408203 185.98730469 C47.26711413 198.66755834 19.13657443 200.36805566 -6.70703125 192.93359375 C-31.82602396 184.54213312 -53.71233808 166.80797371 -65.94091797 143.18212891 C-69.8516152 135.12525632 -72.69583556 126.64061666 -75 118 C-75.226875 117.18015625 -75.45375 116.3603125 -75.6875 115.515625 C-80.77588678 93.3246049 -76.17896207 69.95186312 -66 50 C-65.46503906 48.94296875 -64.93007812 47.8859375 -64.37890625 46.796875 C-52.11150801 24.32135401 -31.67331643 8.88741265 -8 0 C-4.5417803 -0.93386524 -3.44834525 -1.14944842 0 0 Z " fill="#9800CB" transform="translate(247,38)"/>
<path d="M0 0 C1.17192435 3.12305373 2.33663876 6.24874739 3.5 9.375 C3.83386719 10.26445312 4.16773438 11.15390625 4.51171875 12.0703125 C4.82753906 12.92109375 5.14335937 13.771875 5.46875 14.6484375 C5.76201172 15.43395996 6.05527344 16.21948242 6.35742188 17.02880859 C7 19 7 19 7 21 C10.63 21 14.26 21 18 21 C18.061875 20.113125 18.12375 19.22625 18.1875 18.3125 C18.94526 12.82722238 21.03772258 3.96227742 25 0 C44.95229486 -0.1182008 71.31708811 2.46353522 87 16 C89.33418624 18.69740058 89.96348765 19.75354166 90.5 23.375 C89.87522384 27.90462715 88.50308315 30.21965821 85 33 C67.36784644 43.99610199 44.09496281 47.09031021 23.609375 47.203125 C22.32064232 47.21357849 22.32064232 47.21357849 21.00587463 47.22424316 C18.25386587 47.24151301 15.50206067 47.24796084 12.75 47.25 C11.81102875 47.25100708 10.8720575 47.25201416 9.90463257 47.25305176 C-3.91060989 47.24301708 -17.44245838 46.92617713 -31 44 C-31.70495605 43.85014648 -32.40991211 43.70029297 -33.13623047 43.54589844 C-44.59736227 41.00974947 -57.97605397 37.85732091 -65.4375 28.125 C-66.31927745 24.79384074 -65.81612906 22.32281116 -65 19 C-58.06046668 8.75667975 -43.28505267 5.41960725 -31.75 3.125 C-21.13620236 1.12898287 -10.80525121 -0.06556584 0 0 Z " fill="#B3B3B3" transform="translate(259,431)"/>
<path d="M0 0 C0.09392519 17.64751308 0.16421306 35.29494687 0.20724869 52.94265366 C0.22777233 61.13893803 0.25569472 69.33506606 0.30175781 77.53125 C0.34194127 84.68472863 0.36750665 91.83809391 0.37635398 98.99168229 C0.38151615 102.77071837 0.39342871 106.5494305 0.42292023 110.32836151 C0.59073186 132.7253768 -1.44386311 152.61183292 -9.16601562 173.70751953 C-10.05814026 176.15981764 -10.9108867 178.62428846 -11.765625 181.08984375 C-12.36226558 182.74823153 -12.96116202 184.40580974 -13.5625 186.0625 C-13.83102783 186.84318848 -14.09955566 187.62387695 -14.3762207 188.42822266 C-15.19140625 190.59765625 -15.19140625 190.59765625 -17 194 C-18.65 194.33 -20.3 194.66 -22 195 C-22 131.31 -22 67.62 -22 2 C-4 0 -4 0 0 0 Z " fill="#6699FE" transform="translate(294,256)"/>
</svg>
