<?xml version="1.0" encoding="UTF-8"?>
<svg version="1.1" xmlns="http://www.w3.org/2000/svg" width="512" height="512">
<path d="M0 0 C0.66485067 -0.00235223 1.32970135 -0.00470446 2.01469901 -0.00712797 C4.25238435 -0.01380835 6.49001149 -0.01336004 8.72770596 -0.01294994 C10.344366 -0.01624917 11.96102522 -0.01997486 13.57768339 -0.02409142 C18.02822899 -0.03411292 22.47876111 -0.03782846 26.9293164 -0.04048073 C31.72637148 -0.04438336 36.52341587 -0.05396175 41.32046413 -0.0626936 C52.90960526 -0.08245954 64.49874726 -0.09252454 76.08790103 -0.10142139 C81.54514206 -0.10580421 87.00238212 -0.11117105 92.45962238 -0.11641026 C110.60041668 -0.13342293 128.74121037 -0.14791705 146.88201141 -0.155159 C151.59005198 -0.1570689 156.29809254 -0.15898923 161.00613308 -0.16094494 C162.17629726 -0.16142868 163.34646145 -0.16191242 164.55208515 -0.16241082 C183.50751869 -0.17071092 202.46288911 -0.19604735 221.41829509 -0.22852562 C240.87841966 -0.26159687 260.33851216 -0.27960783 279.79866499 -0.28280324 C290.72519687 -0.28496831 301.65163672 -0.29371653 312.57814121 -0.31926441 C321.88384947 -0.34097231 331.18944335 -0.34902137 340.49517406 -0.33929763 C345.2418536 -0.33475317 349.98829717 -0.33664772 354.73494434 -0.35605907 C359.08460559 -0.37369306 363.43385873 -0.37269113 367.78352433 -0.35716178 C369.35290865 -0.35478607 370.92232125 -0.3591074 372.49166239 -0.37099043 C386.41231782 -0.46982623 397.93672737 2.21611618 408.33840847 11.94672108 C419.47099133 23.84706827 420.70302725 37.24333145 420.66833401 52.82104969 C420.67207424 54.41585211 420.67667724 56.01065269 420.68206465 57.60545039 C420.6942639 61.9724485 420.69403782 66.33936983 420.6916759 70.70638108 C420.69126696 75.42227396 420.70231425 80.13814247 420.71179104 84.85402393 C420.72838497 94.08750194 420.73389985 103.3209544 420.73501579 112.55444607 C420.735967 120.06175178 420.74008091 127.56904907 420.74641705 135.07635212 C420.76402481 156.37295292 420.7732566 177.66953359 420.7717561 198.96614173 C420.77167619 200.11360499 420.77159627 201.26106824 420.77151394 202.44330311 C420.77143218 203.59217148 420.77135042 204.74103984 420.77126618 205.9247224 C420.77045334 224.54223211 420.78959179 243.1596609 420.81779067 261.7771472 C420.84653373 280.90522057 420.86033019 300.0332545 420.85860312 319.16135001 C420.85793973 329.89559996 420.86340987 340.62976508 420.88495922 351.36399555 C420.90318967 360.50337841 420.90750299 369.64263796 420.89394037 378.78203115 C420.88742026 383.4419037 420.88725893 388.10153982 420.90464687 392.76138973 C420.92042492 397.03386493 420.91746598 401.30591716 420.90007861 405.57838234 C420.89701911 407.11736731 420.90060122 408.65638422 420.91179876 410.19533148 C421.00248101 423.55144362 419.03962726 435.54222555 410.40090847 446.13422108 C409.83758816 446.83289295 409.27426785 447.53156483 408.69387722 448.25140858 C402.55349291 455.10278476 394.29609976 459.03004659 385.40090847 461.13422108 C385.38688992 462.19165516 385.38688992 462.19165516 385.37258816 463.27045155 C385.31833985 466.5173726 385.23480123 469.76293595 385.15090847 473.00922108 C385.13672878 474.11781483 385.1225491 475.22640858 385.10793972 476.36859608 C384.77200172 487.79048792 381.8121587 495.61715958 373.91653347 503.93109608 C368.50482824 508.67053979 361.55155223 512.23876462 354.26635647 512.2813921 C353.42540936 512.2885474 352.58446224 512.29570271 351.71803188 512.30307484 C350.33878284 512.30710819 350.33878284 512.30710819 348.93167019 512.31122303 C347.47503208 512.32107983 347.47503208 512.32107983 345.98896694 512.33113575 C342.76950917 512.35087369 339.55009812 512.36253394 336.33059597 512.37250233 C335.23029175 512.37657785 334.12998753 512.38065338 332.99634075 512.38485241 C327.16993554 512.4057176 321.3435539 512.42001607 315.51711941 512.42938709 C309.50822822 512.44043825 303.4997087 512.4748223 297.49094868 512.51455879 C292.86341587 512.54074879 288.23597118 512.54908119 283.60837078 512.55266857 C281.39407886 512.55753017 279.17979076 512.56913191 276.9655714 512.58770657 C273.85892283 512.61214276 270.75322988 512.61112424 267.64651394 512.60419178 C266.73915997 512.61700184 265.83180599 512.6298119 264.89695644 512.64301014 C255.39175178 512.56607225 247.27852925 508.64909815 240.40090847 502.13422108 C230.065551 489.95159383 231.40090847 477.14656593 231.40090847 461.13422108 C203.68090847 461.13422108 175.96090847 461.13422108 147.40090847 461.13422108 C147.40090847 468.39422108 147.40090847 475.65422108 147.40090847 483.13422108 C143.87272093 494.8948462 140.14352857 502.75475745 129.40090847 509.13422108 C123.18391098 511.89563918 118.14064731 512.57209167 111.37991238 512.53827381 C109.92458851 512.54856869 109.92458851 512.54856869 108.43986416 512.55907154 C105.25224827 512.57728046 102.0651274 512.57351006 98.87747097 512.56781483 C96.64841459 512.57237974 94.41935961 512.57768624 92.19030666 512.58369923 C87.52509744 512.59261899 82.8600595 512.59022038 78.19485378 512.580266 C72.23435194 512.56878337 66.27444317 512.58898333 60.3140192 512.61818314 C55.71216011 512.63658387 51.11044208 512.63624483 46.50855541 512.63054562 C44.31185354 512.63039285 42.11514183 512.6364002 39.91847515 512.64883709 C36.83884309 512.66381668 33.76029326 512.65301816 30.68069363 512.63593006 C29.78479015 512.64559803 28.88888668 512.655266 27.96583462 512.66522694 C17.6623216 512.5463016 9.99892497 508.67266756 2.60403347 501.64984608 C-2.82375566 495.45215778 -5.73672485 488.34905151 -5.69674778 480.15375233 C-5.69352512 478.99037342 -5.69030247 477.82699451 -5.68698215 476.6283617 C-5.67860325 475.4134203 -5.67022434 474.19847889 -5.66159153 472.94672108 C-5.65707981 471.72017811 -5.65256809 470.49363514 -5.64791965 469.2299242 C-5.63612218 466.19797439 -5.61966074 463.16612202 -5.59909153 460.13422108 C-6.64194309 460.02207264 -7.68479465 459.9099242 -8.75924778 459.79437733 C-17.88170385 458.22602018 -26.09573156 452.50293042 -31.59909153 445.13422108 C-36.04884391 437.74906403 -39.7167629 430.51632818 -39.73331261 421.78058338 C-39.73777045 420.68826656 -39.74222829 419.59594975 -39.74682122 418.47053242 C-39.74663686 417.27093639 -39.7464525 416.07134037 -39.74626255 414.83539295 C-39.74993924 413.56072918 -39.75361593 412.28606541 -39.75740403 410.97277546 C-39.76741484 407.4322427 -39.77113931 403.89172689 -39.77379334 400.35118198 C-39.77769888 396.53381856 -39.78727676 392.71646852 -39.7960062 388.89911366 C-39.81575906 379.68155568 -39.82583335 370.46399662 -39.83473399 361.24642277 C-39.83911707 356.9075078 -39.84448366 352.56859406 -39.84972286 348.22968006 C-39.86673066 333.81102216 -39.881227 319.39236501 -39.8884716 304.97369862 C-39.89038153 301.23293526 -39.89230186 297.49217191 -39.89425755 293.75140858 C-39.89474129 292.82164802 -39.89522503 291.89188745 -39.89572342 290.93395233 C-39.90403198 275.85693129 -39.9293848 260.77998938 -39.96183822 245.70300293 C-39.99487176 230.23072559 -40.01291683 214.75848853 -40.01611584 199.28617573 C-40.01828391 190.59606993 -40.02707631 181.90607967 -40.05257702 173.21600819 C-40.07423309 165.81903327 -40.08235951 158.42220196 -40.07261024 151.02519894 C-40.06805124 147.24946649 -40.07004398 143.47403068 -40.08937168 139.69833851 C-40.11012134 135.6096977 -40.1000647 131.52172096 -40.08683872 127.4330492 C-40.09780797 126.23345318 -40.10877721 125.03385715 -40.12007886 123.79790974 C-40.11149797 122.70559292 -40.10291708 121.6132761 -40.09407616 120.48785877 C-40.09505297 119.543764 -40.09602977 118.59966923 -40.09703618 117.62696552 C-39.4397247 114.33641999 -38.25819222 113.12986478 -35.59909153 111.13422108 C-34.27909153 111.13422108 -32.95909153 111.13422108 -31.59909153 111.13422108 C-31.59909153 102.88422108 -31.59909153 94.63422108 -31.59909153 86.13422108 C-33.57909153 85.47422108 -35.55909153 84.81422108 -37.59909153 84.13422108 C-39.70596294 80.97391397 -39.85569716 80.17889743 -39.88961887 76.56195545 C-39.90237858 75.63669056 -39.91513828 74.71142567 -39.92828465 73.75812244 C-39.93051029 72.75817249 -39.93273594 71.75822254 -39.93502903 70.72797108 C-39.94168583 69.69289417 -39.94834263 68.65781727 -39.95520115 67.5913744 C-39.96533605 65.39571376 -39.97001791 63.20002227 -39.969697 61.00433826 C-39.97403874 57.67470434 -40.01026286 54.34643011 -40.04831028 51.01703358 C-40.05418483 48.87901725 -40.05814995 46.74099465 -40.06002903 44.60297108 C-40.07440006 43.61921497 -40.0887711 42.63545887 -40.10357761 41.62189198 C-40.02266782 29.12391114 -35.29509957 20.03904433 -26.72018528 11.19672108 C-18.99771261 3.95787801 -10.55794243 0.01591729 0 0 Z " fill="#FE9701" transform="translate(66.59909152984619,-0.13422107696533203)"/>
<path d="M0 0 C0.66485067 -0.00235223 1.32970135 -0.00470446 2.01469901 -0.00712797 C4.25238435 -0.01380835 6.49001149 -0.01336004 8.72770596 -0.01294994 C10.344366 -0.01624917 11.96102522 -0.01997486 13.57768339 -0.02409142 C18.02822899 -0.03411292 22.47876111 -0.03782846 26.9293164 -0.04048073 C31.72637148 -0.04438336 36.52341587 -0.05396175 41.32046413 -0.0626936 C52.90960526 -0.08245954 64.49874726 -0.09252454 76.08790103 -0.10142139 C81.54514206 -0.10580421 87.00238212 -0.11117105 92.45962238 -0.11641026 C110.60041668 -0.13342293 128.74121037 -0.14791705 146.88201141 -0.155159 C151.59005198 -0.1570689 156.29809254 -0.15898923 161.00613308 -0.16094494 C162.17629726 -0.16142868 163.34646145 -0.16191242 164.55208515 -0.16241082 C183.50751869 -0.17071092 202.46288911 -0.19604735 221.41829509 -0.22852562 C240.87841966 -0.26159687 260.33851216 -0.27960783 279.79866499 -0.28280324 C290.72519687 -0.28496831 301.65163672 -0.29371653 312.57814121 -0.31926441 C321.88384947 -0.34097231 331.18944335 -0.34902137 340.49517406 -0.33929763 C345.2418536 -0.33475317 349.98829717 -0.33664772 354.73494434 -0.35605907 C359.08460559 -0.37369306 363.43385873 -0.37269113 367.78352433 -0.35716178 C369.35290865 -0.35478607 370.92232125 -0.3591074 372.49166239 -0.37099043 C386.41231782 -0.46982623 397.93672737 2.21611618 408.33840847 11.94672108 C419.47099133 23.84706827 420.70302725 37.24333145 420.66833401 52.82104969 C420.67207424 54.41585211 420.67667724 56.01065269 420.68206465 57.60545039 C420.6942639 61.9724485 420.69403782 66.33936983 420.6916759 70.70638108 C420.69126696 75.42227396 420.70231425 80.13814247 420.71179104 84.85402393 C420.72838497 94.08750194 420.73389985 103.3209544 420.73501579 112.55444607 C420.735967 120.06175178 420.74008091 127.56904907 420.74641705 135.07635212 C420.76402481 156.37295292 420.7732566 177.66953359 420.7717561 198.96614173 C420.77167619 200.11360499 420.77159627 201.26106824 420.77151394 202.44330311 C420.77143218 203.59217148 420.77135042 204.74103984 420.77126618 205.9247224 C420.77045334 224.54223211 420.78959179 243.1596609 420.81779067 261.7771472 C420.84653373 280.90522057 420.86033019 300.0332545 420.85860312 319.16135001 C420.85793973 329.89559996 420.86340987 340.62976508 420.88495922 351.36399555 C420.90318967 360.50337841 420.90750299 369.64263796 420.89394037 378.78203115 C420.88742026 383.4419037 420.88725893 388.10153982 420.90464687 392.76138973 C420.92042492 397.03386493 420.91746598 401.30591716 420.90007861 405.57838234 C420.89701911 407.11736731 420.90060122 408.65638422 420.91179876 410.19533148 C421.00248101 423.55144362 419.03962726 435.54222555 410.40090847 446.13422108 C409.83758816 446.83289295 409.27426785 447.53156483 408.69387722 448.25140858 C402.55349291 455.10278476 394.29609976 459.03004659 385.40090847 461.13422108 C385.38688992 462.19165516 385.38688992 462.19165516 385.37258816 463.27045155 C385.31833985 466.5173726 385.23480123 469.76293595 385.15090847 473.00922108 C385.13672878 474.11781483 385.1225491 475.22640858 385.10793972 476.36859608 C384.77200172 487.79048792 381.8121587 495.61715958 373.91653347 503.93109608 C368.50482824 508.67053979 361.55155223 512.23876462 354.26635647 512.2813921 C353.42540936 512.2885474 352.58446224 512.29570271 351.71803188 512.30307484 C350.33878284 512.30710819 350.33878284 512.30710819 348.93167019 512.31122303 C347.47503208 512.32107983 347.47503208 512.32107983 345.98896694 512.33113575 C342.76950917 512.35087369 339.55009812 512.36253394 336.33059597 512.37250233 C335.23029175 512.37657785 334.12998753 512.38065338 332.99634075 512.38485241 C327.16993554 512.4057176 321.3435539 512.42001607 315.51711941 512.42938709 C309.50822822 512.44043825 303.4997087 512.4748223 297.49094868 512.51455879 C292.86341587 512.54074879 288.23597118 512.54908119 283.60837078 512.55266857 C281.39407886 512.55753017 279.17979076 512.56913191 276.9655714 512.58770657 C273.85892283 512.61214276 270.75322988 512.61112424 267.64651394 512.60419178 C266.73915997 512.61700184 265.83180599 512.6298119 264.89695644 512.64301014 C255.39175178 512.56607225 247.27852925 508.64909815 240.40090847 502.13422108 C230.065551 489.95159383 231.40090847 477.14656593 231.40090847 461.13422108 C203.68090847 461.13422108 175.96090847 461.13422108 147.40090847 461.13422108 C147.40090847 468.39422108 147.40090847 475.65422108 147.40090847 483.13422108 C143.87272093 494.8948462 140.14352857 502.75475745 129.40090847 509.13422108 C123.18391098 511.89563918 118.14064731 512.57209167 111.37991238 512.53827381 C109.92458851 512.54856869 109.92458851 512.54856869 108.43986416 512.55907154 C105.25224827 512.57728046 102.0651274 512.57351006 98.87747097 512.56781483 C96.64841459 512.57237974 94.41935961 512.57768624 92.19030666 512.58369923 C87.52509744 512.59261899 82.8600595 512.59022038 78.19485378 512.580266 C72.23435194 512.56878337 66.27444317 512.58898333 60.3140192 512.61818314 C55.71216011 512.63658387 51.11044208 512.63624483 46.50855541 512.63054562 C44.31185354 512.63039285 42.11514183 512.6364002 39.91847515 512.64883709 C36.83884309 512.66381668 33.76029326 512.65301816 30.68069363 512.63593006 C29.78479015 512.64559803 28.88888668 512.655266 27.96583462 512.66522694 C17.6623216 512.5463016 9.99892497 508.67266756 2.60403347 501.64984608 C-2.82375566 495.45215778 -5.73672485 488.34905151 -5.69674778 480.15375233 C-5.69352512 478.99037342 -5.69030247 477.82699451 -5.68698215 476.6283617 C-5.67860325 475.4134203 -5.67022434 474.19847889 -5.66159153 472.94672108 C-5.65707981 471.72017811 -5.65256809 470.49363514 -5.64791965 469.2299242 C-5.63612218 466.19797439 -5.61966074 463.16612202 -5.59909153 460.13422108 C-6.64194309 460.02207264 -7.68479465 459.9099242 -8.75924778 459.79437733 C-17.88170385 458.22602018 -26.09573156 452.50293042 -31.59909153 445.13422108 C-36.04884391 437.74906403 -39.7167629 430.51632818 -39.73331261 421.78058338 C-39.73777045 420.68826656 -39.74222829 419.59594975 -39.74682122 418.47053242 C-39.74663686 417.27093639 -39.7464525 416.07134037 -39.74626255 414.83539295 C-39.74993924 413.56072918 -39.75361593 412.28606541 -39.75740403 410.97277546 C-39.76741484 407.4322427 -39.77113931 403.89172689 -39.77379334 400.35118198 C-39.77769888 396.53381856 -39.78727676 392.71646852 -39.7960062 388.89911366 C-39.81575906 379.68155568 -39.82583335 370.46399662 -39.83473399 361.24642277 C-39.83911707 356.9075078 -39.84448366 352.56859406 -39.84972286 348.22968006 C-39.86673066 333.81102216 -39.881227 319.39236501 -39.8884716 304.97369862 C-39.89038153 301.23293526 -39.89230186 297.49217191 -39.89425755 293.75140858 C-39.89474129 292.82164802 -39.89522503 291.89188745 -39.89572342 290.93395233 C-39.90403198 275.85693129 -39.9293848 260.77998938 -39.96183822 245.70300293 C-39.99487176 230.23072559 -40.01291683 214.75848853 -40.01611584 199.28617573 C-40.01828391 190.59606993 -40.02707631 181.90607967 -40.05257702 173.21600819 C-40.07423309 165.81903327 -40.08235951 158.42220196 -40.07261024 151.02519894 C-40.06805124 147.24946649 -40.07004398 143.47403068 -40.08937168 139.69833851 C-40.11012134 135.6096977 -40.1000647 131.52172096 -40.08683872 127.4330492 C-40.09780797 126.23345318 -40.10877721 125.03385715 -40.12007886 123.79790974 C-40.11149797 122.70559292 -40.10291708 121.6132761 -40.09407616 120.48785877 C-40.09505297 119.543764 -40.09602977 118.59966923 -40.09703618 117.62696552 C-39.4397247 114.33641999 -38.25819222 113.12986478 -35.59909153 111.13422108 C-34.27909153 111.13422108 -32.95909153 111.13422108 -31.59909153 111.13422108 C-31.59909153 102.88422108 -31.59909153 94.63422108 -31.59909153 86.13422108 C-33.57909153 85.47422108 -35.55909153 84.81422108 -37.59909153 84.13422108 C-39.70596294 80.97391397 -39.85569716 80.17889743 -39.88961887 76.56195545 C-39.90237858 75.63669056 -39.91513828 74.71142567 -39.92828465 73.75812244 C-39.93051029 72.75817249 -39.93273594 71.75822254 -39.93502903 70.72797108 C-39.94168583 69.69289417 -39.94834263 68.65781727 -39.95520115 67.5913744 C-39.96533605 65.39571376 -39.97001791 63.20002227 -39.969697 61.00433826 C-39.97403874 57.67470434 -40.01026286 54.34643011 -40.04831028 51.01703358 C-40.05418483 48.87901725 -40.05814995 46.74099465 -40.06002903 44.60297108 C-40.07440006 43.61921497 -40.0887711 42.63545887 -40.10357761 41.62189198 C-40.02266782 29.12391114 -35.29509957 20.03904433 -26.72018528 11.19672108 C-18.99771261 3.95787801 -10.55794243 0.01591729 0 0 Z M25.65090847 67.32172108 C24.85426785 68.08549061 24.85426785 68.08549061 24.04153347 68.86468983 C17.58417082 77.79737483 17.83372321 86.83109429 17.89919949 97.41644764 C17.89541199 99.16333927 17.8899084 100.91022788 17.88282681 102.65710926 C17.86891524 107.38003072 17.88000981 112.10258616 17.89653802 116.82548714 C17.91042649 121.77457216 17.90392445 126.72363676 17.90040493 131.67273426 C17.89770682 139.97799016 17.91114752 148.2831012 17.93435574 156.58832264 C17.96099799 166.18888063 17.96269996 175.78919701 17.95096737 185.38977933 C17.94019015 194.63384576 17.94637396 203.87782485 17.96052265 213.12188435 C17.9662794 217.05320521 17.9662023 220.98446208 17.96145725 224.91578388 C17.95668617 229.54191638 17.96679454 234.16778404 17.9884119 238.79386616 C17.99397686 240.4913999 17.99444773 242.1889591 17.98945904 243.88649464 C17.98350409 246.20327123 17.9960143 248.51923858 18.01322842 250.83594227 C18.01565831 252.13227715 18.01808821 253.42861202 18.02059174 254.76422977 C18.4385903 258.46812022 18.98458322 260.30260757 21.40090847 263.13422108 C23.38090847 263.79422108 25.36090847 264.45422108 27.40090847 265.13422108 C27.40090847 273.38422108 27.40090847 281.63422108 27.40090847 290.13422108 C25.75090847 290.46422108 24.10090847 290.79422108 22.40090847 291.13422108 C19.27121342 293.9601726 18.47003397 295.62506581 17.89970303 299.8259325 C17.87909551 301.27653077 17.88034914 302.72754422 17.89919949 304.17816639 C17.8937965 304.97398624 17.88839352 305.7698061 17.88282681 306.58974171 C17.87034527 309.21432448 17.88683212 311.83780853 17.90481472 314.46234608 C17.90465966 316.29452033 17.90316946 318.1266949 17.90040493 319.95886707 C17.89902098 323.79887872 17.91157337 327.63851688 17.93435574 331.47845936 C17.96266008 336.38200941 17.96002478 341.28493528 17.94726562 346.18853092 C17.94028141 349.97371135 17.94813026 353.75874966 17.96052265 357.54391193 C17.96501622 359.35067415 17.9653924 361.15745176 17.96145725 362.96421528 C17.63808955 379.07327522 17.63808955 379.07327522 25.02590847 392.94672108 C25.6369241 393.65441639 26.24793972 394.3621117 26.87747097 395.09125233 C34.24378312 401.0550004 41.62582759 401.71441755 50.84303188 401.64215565 C52.07281531 401.64839561 53.30259874 401.65463557 54.56964833 401.66106462 C57.96219772 401.67420748 61.35385438 401.6695481 64.7463485 401.65711975 C68.4131129 401.64803919 72.07980142 401.66205389 75.74655056 401.67303944 C82.9216451 401.69079784 90.09657199 401.68699652 97.27167302 401.67538887 C103.1051968 401.66634354 108.9386737 401.6651353 114.77220249 401.66948414 C115.60347959 401.67009707 116.43475668 401.67071 117.29122399 401.67134151 C118.98012989 401.67262045 120.66903577 401.67391731 122.35794163 401.67523187 C138.18401474 401.68663001 154.00999507 401.67353639 169.83605296 401.65203041 C183.40402327 401.63416341 196.97185665 401.63726172 210.53982449 401.65570545 C226.30895159 401.67713142 242.07799741 401.68552797 257.84713703 401.6732564 C259.53002424 401.67198225 261.21291145 401.67072477 262.89579868 401.66948414 C263.72373386 401.66886704 264.55166904 401.66824993 265.40469317 401.66761413 C271.22805618 401.66416616 277.05136748 401.6699777 282.87472248 401.67940235 C289.9760875 401.69064307 297.07727575 401.68753902 304.17862063 401.66627938 C307.79917232 401.65579618 311.41942974 401.6516 315.03997898 401.66487598 C318.97075139 401.67907104 322.90104622 401.66207516 326.83180141 401.64215565 C327.96770936 401.65107853 329.1036173 401.66000142 330.2739467 401.6691947 C338.42362652 401.58921329 345.47946327 400.19072754 352.02200222 395.09125233 C359.65913983 386.07450276 360.93505364 378.82606528 360.40090847 367.13422108 C362.07153347 367.07234608 362.07153347 367.07234608 363.77590847 367.00922108 C370.0777336 366.20330383 375.73140967 362.96550768 380.07668972 358.35687733 C384.06524992 352.97996874 385.64412207 348.37260587 385.70730495 341.74261951 C385.72329235 340.47069752 385.73927975 339.19877552 385.75575161 337.88831043 C385.76213012 336.50674309 385.76752229 335.12517088 385.77200222 333.74359608 C385.78097889 332.31498596 385.79010091 330.88637675 385.79936123 329.45776844 C385.81582527 326.4652933 385.82354625 323.47292966 385.82644558 320.48041248 C385.8318184 316.66621536 385.86946198 312.85308284 385.91518974 309.03918552 C385.94509876 306.08783724 385.95217215 303.13674068 385.95317173 300.1852541 C385.95734883 298.78035337 385.96968127 297.37545013 385.99068928 295.97070026 C386.12801117 285.99204495 384.89765487 279.52666086 378.47903347 271.82953358 C373.11221949 267.21957798 367.62560844 264.13422108 360.40090847 264.13422108 C360.40090847 241.69422108 360.40090847 219.25422108 360.40090847 196.13422108 C363.37090847 195.80422108 366.34090847 195.47422108 369.40090847 195.13422108 C376.41389523 192.22513027 381.00852131 186.79783871 384.40090847 180.13422108 C385.47181886 176.75699655 385.55173694 173.58676039 385.59377956 170.0556078 C385.60984249 168.82687946 385.62590542 167.59815113 385.6424551 166.33218861 C385.65394679 164.99276904 385.66455461 163.65334165 385.67434597 162.31390858 C385.67966965 161.63500694 385.68499332 160.95610531 385.69047832 160.2566309 C385.71716575 156.65952404 385.73655021 153.06245127 385.75100613 149.46527576 C385.76431038 146.50499806 385.7921022 143.54541541 385.83303738 140.58539295 C385.88267418 136.99506439 385.90716472 133.40536277 385.91423321 129.81470585 C385.9241096 127.79963445 385.95827842 125.78472848 385.99304104 123.76993275 C385.97295352 114.97635371 384.71847793 107.9313066 378.68957424 101.23282337 C374.25384488 96.97734016 368.84920365 94.2226389 362.65872097 94.06390858 C361.91364285 94.0871117 361.16856472 94.11031483 360.40090847 94.13422108 C360.4531155 92.99146717 360.4531155 92.99146717 360.50637722 91.82562733 C360.77610787 81.53732954 359.47824376 74.49968778 352.31106472 66.86078358 C349.53774784 64.35402272 346.75548699 62.77862231 343.40090847 61.13422108 C342.74090847 60.80422108 342.08090847 60.47422108 341.40090847 60.13422108 C339.74602505 60.03682289 338.08722263 60.00322849 336.42947865 60 C335.37147788 59.99554216 334.31347712 59.99108431 333.22341573 59.98649138 C331.46606727 59.98676793 331.46606727 59.98676793 329.67321682 59.98705006 C327.81702046 59.98153502 327.81702046 59.98153502 325.92332518 59.97590858 C322.47719701 59.96676897 319.03111651 59.96216924 315.58498073 59.95951927 C311.87248253 59.9556208 308.15999818 59.94604204 304.44750881 59.9373064 C295.47529596 59.91752732 286.50308195 59.9074732 277.53085274 59.89857861 C273.30701177 59.89419741 269.08317206 59.8888301 264.85933208 59.88358974 C250.819927 59.86657476 236.78052271 59.85208084 222.74110889 59.844841 C219.09629598 59.84293106 215.45148308 59.84101074 211.80667019 59.83905506 C210.90075278 59.83857132 209.99483538 59.83808758 209.06146593 59.83758918 C194.3879435 59.82928986 179.71450262 59.80395582 165.04101579 59.77147438 C149.98010692 59.73840691 134.91923949 59.72039246 119.85829413 59.71719676 C111.40053766 59.71503119 102.94290006 59.70627594 94.48517895 59.68073559 C87.28150524 59.6590327 80.07797925 59.65097605 72.87427656 59.66070237 C69.19932253 59.66524853 65.52467328 59.66334293 61.84976101 59.64394093 C57.86321473 59.62307567 53.87708873 59.63329019 49.89050198 59.64647388 C48.15323001 59.63002002 48.15323001 59.63002002 46.38086164 59.61323375 C38.08870452 59.67950701 31.71757008 61.24004298 25.65090847 67.32172108 Z " fill="#FEDB00" transform="translate(66.59909152984619,-0.13422107696533203)"/>
<path d="M0 0 C0.66485067 -0.00235223 1.32970135 -0.00470446 2.01469901 -0.00712797 C4.25238435 -0.01380835 6.49001149 -0.01336004 8.72770596 -0.01294994 C10.344366 -0.01624917 11.96102522 -0.01997486 13.57768339 -0.02409142 C18.02822899 -0.03411292 22.47876111 -0.03782846 26.9293164 -0.04048073 C31.72637148 -0.04438336 36.52341587 -0.05396175 41.32046413 -0.0626936 C52.90960526 -0.08245954 64.49874726 -0.09252454 76.08790103 -0.10142139 C81.54514206 -0.10580421 87.00238212 -0.11117105 92.45962238 -0.11641026 C110.60041668 -0.13342293 128.74121037 -0.14791705 146.88201141 -0.155159 C151.59005198 -0.1570689 156.29809254 -0.15898923 161.00613308 -0.16094494 C162.17629726 -0.16142868 163.34646145 -0.16191242 164.55208515 -0.16241082 C183.50751869 -0.17071092 202.46288911 -0.19604735 221.41829509 -0.22852562 C240.87841966 -0.26159687 260.33851216 -0.27960783 279.79866499 -0.28280324 C290.72519687 -0.28496831 301.65163672 -0.29371653 312.57814121 -0.31926441 C321.88384947 -0.34097231 331.18944335 -0.34902137 340.49517406 -0.33929763 C345.2418536 -0.33475317 349.98829717 -0.33664772 354.73494434 -0.35605907 C359.08460559 -0.37369306 363.43385873 -0.37269113 367.78352433 -0.35716178 C369.35290865 -0.35478607 370.92232125 -0.3591074 372.49166239 -0.37099043 C386.41231782 -0.46982623 397.93672737 2.21611618 408.33840847 11.94672108 C419.47099133 23.84706827 420.70302725 37.24333145 420.66833401 52.82104969 C420.67207424 54.41585211 420.67667724 56.01065269 420.68206465 57.60545039 C420.6942639 61.9724485 420.69403782 66.33936983 420.6916759 70.70638108 C420.69126696 75.42227396 420.70231425 80.13814247 420.71179104 84.85402393 C420.72838497 94.08750194 420.73389985 103.3209544 420.73501579 112.55444607 C420.735967 120.06175178 420.74008091 127.56904907 420.74641705 135.07635212 C420.76402481 156.37295292 420.7732566 177.66953359 420.7717561 198.96614173 C420.77167619 200.11360499 420.77159627 201.26106824 420.77151394 202.44330311 C420.77143218 203.59217148 420.77135042 204.74103984 420.77126618 205.9247224 C420.77045334 224.54223211 420.78959179 243.1596609 420.81779067 261.7771472 C420.84653373 280.90522057 420.86033019 300.0332545 420.85860312 319.16135001 C420.85793973 329.89559996 420.86340987 340.62976508 420.88495922 351.36399555 C420.90318967 360.50337841 420.90750299 369.64263796 420.89394037 378.78203115 C420.88742026 383.4419037 420.88725893 388.10153982 420.90464687 392.76138973 C420.92042492 397.03386493 420.91746598 401.30591716 420.90007861 405.57838234 C420.89701911 407.11736731 420.90060122 408.65638422 420.91179876 410.19533148 C421.00248101 423.55144362 419.03962726 435.54222555 410.40090847 446.13422108 C409.83758816 446.83289295 409.27426785 447.53156483 408.69387722 448.25140858 C402.55349291 455.10278476 394.29609976 459.03004659 385.40090847 461.13422108 C385.38688992 462.19165516 385.38688992 462.19165516 385.37258816 463.27045155 C385.31833985 466.5173726 385.23480123 469.76293595 385.15090847 473.00922108 C385.13672878 474.11781483 385.1225491 475.22640858 385.10793972 476.36859608 C384.77200172 487.79048792 381.8121587 495.61715958 373.91653347 503.93109608 C368.50482824 508.67053979 361.55155223 512.23876462 354.26635647 512.2813921 C353.42540936 512.2885474 352.58446224 512.29570271 351.71803188 512.30307484 C350.33878284 512.30710819 350.33878284 512.30710819 348.93167019 512.31122303 C347.47503208 512.32107983 347.47503208 512.32107983 345.98896694 512.33113575 C342.76950917 512.35087369 339.55009812 512.36253394 336.33059597 512.37250233 C335.23029175 512.37657785 334.12998753 512.38065338 332.99634075 512.38485241 C327.16993554 512.4057176 321.3435539 512.42001607 315.51711941 512.42938709 C309.50822822 512.44043825 303.4997087 512.4748223 297.49094868 512.51455879 C292.86341587 512.54074879 288.23597118 512.54908119 283.60837078 512.55266857 C281.39407886 512.55753017 279.17979076 512.56913191 276.9655714 512.58770657 C273.85892283 512.61214276 270.75322988 512.61112424 267.64651394 512.60419178 C266.73915997 512.61700184 265.83180599 512.6298119 264.89695644 512.64301014 C255.39175178 512.56607225 247.27852925 508.64909815 240.40090847 502.13422108 C230.065551 489.95159383 231.40090847 477.14656593 231.40090847 461.13422108 C203.68090847 461.13422108 175.96090847 461.13422108 147.40090847 461.13422108 C147.40090847 468.39422108 147.40090847 475.65422108 147.40090847 483.13422108 C143.87272093 494.8948462 140.14352857 502.75475745 129.40090847 509.13422108 C123.18391098 511.89563918 118.14064731 512.57209167 111.37991238 512.53827381 C109.92458851 512.54856869 109.92458851 512.54856869 108.43986416 512.55907154 C105.25224827 512.57728046 102.0651274 512.57351006 98.87747097 512.56781483 C96.64841459 512.57237974 94.41935961 512.57768624 92.19030666 512.58369923 C87.52509744 512.59261899 82.8600595 512.59022038 78.19485378 512.580266 C72.23435194 512.56878337 66.27444317 512.58898333 60.3140192 512.61818314 C55.71216011 512.63658387 51.11044208 512.63624483 46.50855541 512.63054562 C44.31185354 512.63039285 42.11514183 512.6364002 39.91847515 512.64883709 C36.83884309 512.66381668 33.76029326 512.65301816 30.68069363 512.63593006 C29.78479015 512.64559803 28.88888668 512.655266 27.96583462 512.66522694 C17.6623216 512.5463016 9.99892497 508.67266756 2.60403347 501.64984608 C-2.82375566 495.45215778 -5.73672485 488.34905151 -5.69674778 480.15375233 C-5.69352512 478.99037342 -5.69030247 477.82699451 -5.68698215 476.6283617 C-5.67860325 475.4134203 -5.67022434 474.19847889 -5.66159153 472.94672108 C-5.65707981 471.72017811 -5.65256809 470.49363514 -5.64791965 469.2299242 C-5.63612218 466.19797439 -5.61966074 463.16612202 -5.59909153 460.13422108 C-6.64194309 460.02207264 -7.68479465 459.9099242 -8.75924778 459.79437733 C-17.88170385 458.22602018 -26.09573156 452.50293042 -31.59909153 445.13422108 C-36.04884391 437.74906403 -39.7167629 430.51632818 -39.73331261 421.78058338 C-39.73777045 420.68826656 -39.74222829 419.59594975 -39.74682122 418.47053242 C-39.74663686 417.27093639 -39.7464525 416.07134037 -39.74626255 414.83539295 C-39.74993924 413.56072918 -39.75361593 412.28606541 -39.75740403 410.97277546 C-39.76741484 407.4322427 -39.77113931 403.89172689 -39.77379334 400.35118198 C-39.77769888 396.53381856 -39.78727676 392.71646852 -39.7960062 388.89911366 C-39.81575906 379.68155568 -39.82583335 370.46399662 -39.83473399 361.24642277 C-39.83911707 356.9075078 -39.84448366 352.56859406 -39.84972286 348.22968006 C-39.86673066 333.81102216 -39.881227 319.39236501 -39.8884716 304.97369862 C-39.89038153 301.23293526 -39.89230186 297.49217191 -39.89425755 293.75140858 C-39.89474129 292.82164802 -39.89522503 291.89188745 -39.89572342 290.93395233 C-39.90403198 275.85693129 -39.9293848 260.77998938 -39.96183822 245.70300293 C-39.99487176 230.23072559 -40.01291683 214.75848853 -40.01611584 199.28617573 C-40.01828391 190.59606993 -40.02707631 181.90607967 -40.05257702 173.21600819 C-40.07423309 165.81903327 -40.08235951 158.42220196 -40.07261024 151.02519894 C-40.06805124 147.24946649 -40.07004398 143.47403068 -40.08937168 139.69833851 C-40.11012134 135.6096977 -40.1000647 131.52172096 -40.08683872 127.4330492 C-40.09780797 126.23345318 -40.10877721 125.03385715 -40.12007886 123.79790974 C-40.11149797 122.70559292 -40.10291708 121.6132761 -40.09407616 120.48785877 C-40.09505297 119.543764 -40.09602977 118.59966923 -40.09703618 117.62696552 C-39.44251771 114.35040201 -38.21589046 113.15420225 -35.59909153 111.13422108 C-31.41394974 110.68581303 -28.10835038 110.66474263 -24.59909153 113.13422108 C-22.39329125 116.4429215 -22.34900841 117.42718043 -22.34855175 121.27275753 C-22.34355305 122.34258283 -22.33855436 123.41240813 -22.33340418 124.51465237 C-22.340399 126.28411766 -22.340399 126.28411766 -22.34753513 128.08932972 C-22.34456499 129.33919348 -22.34159486 130.58905723 -22.33853471 131.87679565 C-22.33047491 135.35296107 -22.33481087 138.82901926 -22.34105349 142.30518436 C-22.34557794 146.05176839 -22.33855183 149.79833165 -22.33274937 153.54491138 C-22.32410629 160.04043913 -22.32231071 166.53593964 -22.32469654 173.03147221 C-22.32779103 182.43278386 -22.31616591 191.83403516 -22.30014674 201.23533164 C-22.27416666 216.50045085 -22.25415821 231.7655701 -22.24069309 247.03070545 C-22.23947754 248.40179761 -22.23947754 248.40179761 -22.23823743 249.80058859 C-22.2270228 262.76410561 -22.22173658 275.72761835 -22.2188503 288.69113956 C-22.21864631 289.60338185 -22.21844232 290.51562414 -22.21823215 291.45551014 C-22.21803222 292.36664098 -22.21783228 293.27777183 -22.21762629 294.21651269 C-22.2138918 309.41648058 -22.19479405 324.61638319 -22.16313779 339.81631839 C-22.14422957 349.1913747 -22.1382578 358.56626358 -22.14895497 367.9413337 C-22.15527966 374.36939592 -22.14721781 380.79733824 -22.12790085 387.22537418 C-22.11722978 390.93284558 -22.11304849 394.64002573 -22.12637234 398.34749508 C-22.14068633 402.37097683 -22.12407431 406.39375061 -22.10461521 410.41721058 C-22.11373987 411.58346977 -22.12286453 412.74972897 -22.13226569 413.95132935 C-22.04047433 423.70608375 -19.55408977 431.17922284 -12.59909153 438.13422108 C-6.62393239 442.41985246 -1.24143094 443.25669878 5.96966743 443.27123547 C6.61908781 443.27388729 7.26850819 443.27653912 7.93760797 443.2792713 C10.11677029 443.28693932 12.29587603 443.28752251 14.47505093 443.28812122 C16.05203891 443.29213747 17.62902587 443.29657597 19.20601159 443.30140078 C23.54221075 443.31335363 27.87839878 443.31901172 32.21461117 443.32358193 C36.89029393 443.32954276 41.56596343 443.34115125 46.24163723 443.35187244 C57.53372377 443.37638308 68.8258147 443.39102042 80.11791965 443.40393251 C83.30724004 443.40764503 86.49655999 443.4116182 89.68587995 443.41568518 C109.49206245 443.44091923 129.29824566 443.46297178 149.10444069 443.47541332 C153.6909749 443.478343 158.27750908 443.48130467 162.86404324 443.48431873 C164.00399808 443.48506478 165.14395293 443.48581083 166.31845186 443.48657949 C184.78952474 443.49923612 203.26050142 443.53246448 221.73152932 443.57412057 C240.69560465 443.61653808 259.65963072 443.64010803 278.62375337 443.64533389 C289.27136654 443.64874789 299.91882929 443.66050223 310.56639576 443.69343662 C319.63314121 443.72143553 328.69970539 443.73243704 337.76649072 443.72124116 C342.3915928 443.71605442 347.01631525 443.71894246 351.64136219 443.7437067 C355.87875119 443.76620576 360.11548802 443.76545447 364.3528885 443.74650283 C365.8825255 443.74370376 367.41220678 443.7492963 368.9417726 443.76431577 C377.9704888 443.84752372 384.58313655 442.87804993 392.40090847 438.13422108 C393.39090847 437.80422108 394.38090847 437.47422108 395.40090847 437.13422108 C396.51513523 435.28808109 396.51513523 435.28808109 397.40090847 433.13422108 C397.74829683 432.53800939 398.09568519 431.94179771 398.45360047 431.327519 C402.33777656 424.01138439 401.95649421 416.4677715 401.90211391 408.41374683 C401.90601032 406.81537811 401.91165348 405.21701286 401.91888481 403.61865574 C401.93360863 399.24190155 401.9234766 394.86550827 401.9091481 390.48876584 C401.89802478 385.76273768 401.90998537 381.03675959 401.91899014 376.31073475 C401.932915 367.05883797 401.92537211 357.80707778 401.91031455 348.55518752 C401.89344555 337.77974744 401.89666582 327.0043413 401.90040863 316.2288921 C401.90628576 297.00272742 401.89212101 277.77662826 401.8674612 258.55048084 C401.84353754 239.89615899 401.83645845 221.24192466 401.84695339 202.58759022 C401.85836328 182.27059638 401.86029203 161.95364301 401.8458553 141.63664967 C401.84432947 139.4701761 401.84280911 137.30370254 401.84129429 135.13722897 C401.84053647 134.07129888 401.83977866 133.00536879 401.83899788 131.90713779 C401.83425587 124.39668452 401.83610588 116.88624932 401.84035969 109.37579632 C401.84528686 100.22346502 401.83929959 91.07121647 401.81946539 81.91890412 C401.80959557 77.24957134 401.80448499 72.58036454 401.8123579 67.91102505 C401.81941886 63.63577595 401.81260037 59.36078095 401.79475427 55.08556534 C401.79071251 53.53994665 401.79170511 51.99430477 401.79827314 50.44869476 C401.83848698 40.09873227 401.58921763 32.21339249 394.40090847 24.13422108 C385.6629212 17.81517566 376.78282891 17.27509863 366.40905666 17.37904835 C364.81776688 17.37284022 363.22648556 17.36401535 361.63522303 17.35282296 C357.29175843 17.32984123 352.94910752 17.34395933 348.60566044 17.36453211 C343.91029547 17.38022381 339.21504925 17.36121845 334.51969814 17.34673023 C325.33365995 17.32394667 316.14792673 17.33335468 306.96189474 17.3542311 C299.49513877 17.37053653 292.02846586 17.3747094 284.56169415 17.37026501 C282.96569269 17.36931899 282.96569269 17.36931899 281.33744878 17.36835387 C279.17575948 17.36700778 277.0140702 17.3656282 274.85238095 17.36421552 C254.59974141 17.3522889 234.34726881 17.37631964 214.09466727 17.4132336 C196.7250089 17.44413388 179.35554256 17.446492 161.98586941 17.42743397 C141.80102459 17.40531254 121.61628734 17.39918544 101.43143713 17.41975659 C99.27845519 17.42191947 97.12547323 17.42406857 94.97249126 17.42620373 C93.91325579 17.42727009 92.85402031 17.42833646 91.76268678 17.42943514 C84.30572336 17.43589902 76.84881539 17.43114498 69.39185619 17.42217922 C60.30328002 17.41163435 51.21492891 17.41917451 42.12639426 17.44963501 C37.49114714 17.46474334 32.85625503 17.47195355 28.22099781 17.45744419 C23.97458858 17.44439171 19.72888141 17.45457824 15.48255308 17.48300292 C13.94978043 17.48926205 12.4169452 17.48718171 10.88420253 17.47573248 C1.24774608 17.40966127 -7.10756149 18.06467105 -14.50050604 24.88952714 C-20.79817411 31.52997447 -22.02737797 38.21850388 -21.93502903 47.04828358 C-21.94753305 48.96234952 -21.96056978 50.87641205 -21.97409153 52.79047108 C-21.97803006 55.78375725 -21.97400645 58.77670851 -21.95944309 61.76996326 C-21.95087709 64.67574198 -21.97253475 67.58012765 -21.99752903 70.48578358 C-21.98418522 71.37859028 -21.97084141 72.27139698 -21.95709324 73.19125843 C-22.01010713 77.65123306 -22.1414371 79.54211343 -24.94918919 83.17474842 C-28.02772223 85.45117243 -29.77342115 86.13422108 -33.59909153 86.13422108 C-38.16430892 84.00378629 -38.16430892 84.00378629 -39.59909153 81.13422108 C-39.70886266 79.65085977 -39.7581307 78.16278976 -39.77609348 76.67548084 C-39.78892872 75.75014042 -39.80176395 74.8248 -39.81498814 73.87141895 C-39.82237507 72.86630772 -39.829762 71.86119648 -39.83737278 70.82562733 C-39.84544453 69.78913548 -39.85351627 68.75264362 -39.86183262 67.68474293 C-39.87568694 65.48310492 -39.88640303 63.28144531 -39.89425755 61.07977772 C-39.91136272 57.74137769 -39.95522425 54.40399595 -39.99948215 51.0658617 C-40.00961865 48.92329084 -40.01813175 46.78071156 -40.02487278 44.63812733 C-40.04238087 43.65123417 -40.05988895 42.66434101 -40.07792759 41.647542 C-40.03953712 29.13257858 -35.30408066 20.0483055 -26.72018528 11.19672108 C-18.99771261 3.95787801 -10.55794243 0.01591729 0 0 Z " fill="#010000" transform="translate(66.59909152984619,-0.13422107696533203)"/>
<path d="M0 0 C1.80404297 0.51046875 1.80404297 0.51046875 3.64453125 1.03125 C19.10500765 5.74422736 31.8185252 13.47244923 44 24 C44.75925781 24.65613281 45.51851562 25.31226563 46.30078125 25.98828125 C60.463494 39.24276392 69.5177718 57.36103127 74 76 C74.35578125 77.155 74.7115625 78.31 75.078125 79.5 C76.620994 85.71899458 76.38328414 92.13186673 76.375 98.5 C76.37478851 99.16885223 76.37457703 99.83770447 76.37435913 100.52682495 C76.34146085 110.93593601 75.54006348 120.16649034 72 130 C71.62617188 131.11632812 71.25234375 132.23265625 70.8671875 133.3828125 C66.51351669 145.57885723 60.46532443 156.22222217 52 166 C51.39671875 166.74765625 50.7934375 167.4953125 50.171875 168.265625 C35.09543161 186.38269563 11.1271219 198.43042501 -12.078125 201.79296875 C-23.81122781 202.62432496 -35.46733937 202.48044864 -47 200 C-48.17691406 199.75507813 -49.35382813 199.51015625 -50.56640625 199.2578125 C-76.24422178 193.20652333 -99.1652444 176.31221595 -113.21191406 154.08203125 C-127.00734127 131.26522394 -132.73606485 102.08056935 -126.4375 75.875 C-125.72473289 73.21114261 -124.89874732 70.60656079 -124 68 C-123.76394043 67.30261719 -123.52788086 66.60523438 -123.28466797 65.88671875 C-114.03947315 39.42078386 -94.67734001 18.37207681 -69.59765625 6.01171875 C-48.30228833 -3.76785896 -22.59329598 -6.89192793 0 0 Z " fill="#01A7F1" transform="translate(282,131)"/>
<path d="M0 0 C1.06397391 -0.00644889 2.12794781 -0.01289778 3.22416335 -0.0195421 C4.38699047 -0.01644489 5.54981759 -0.01334769 6.74788189 -0.01015663 C7.9879094 -0.01468774 9.22793692 -0.01921886 10.50554103 -0.02388728 C13.94494709 -0.03436079 17.38414412 -0.03585657 20.8235513 -0.03349853 C24.53395946 -0.03309042 28.24433641 -0.04412896 31.95473003 -0.05361366 C39.22323316 -0.07022596 46.49170385 -0.07572331 53.76022438 -0.07683842 C59.66869922 -0.0777888 65.57716335 -0.08189859 71.4856348 -0.08823967 C88.23818282 -0.10585282 104.99070522 -0.11507844 121.74326257 -0.11357872 C122.64638042 -0.11349881 123.54949827 -0.1134189 124.47998333 -0.11333656 C125.83631468 -0.11321392 125.83631468 -0.11321392 127.22004666 -0.1130888 C141.87398391 -0.11227591 156.52781838 -0.13141408 171.1817259 -0.1596133 C186.22917528 -0.18834127 201.27657453 -0.20215363 216.32405204 -0.20042574 C224.77169617 -0.1997618 233.21923256 -0.20525577 241.666852 -0.22678185 C248.8594819 -0.24499253 256.05195521 -0.24934196 263.24459819 -0.235763 C266.91349143 -0.22923267 270.58208424 -0.22911811 274.25094891 -0.2464695 C278.23077858 -0.26509775 282.21016953 -0.25264721 286.19002056 -0.23720741 C287.34615551 -0.24749454 288.50229046 -0.25778167 289.69345981 -0.26838052 C297.51433377 -0.20126595 302.58038135 1.09510633 308.86645794 5.96820641 C315.52349723 12.86820333 317.82710007 18.99899112 317.72192669 28.56976891 C317.71290325 29.63840172 317.70387981 30.70703453 317.69458294 31.80805016 C317.6771806 33.02041344 317.6771806 33.02041344 317.65942669 34.25726891 C318.81442669 34.33976891 319.96942669 34.42226891 321.15942669 34.50726891 C328.51848742 35.46940759 333.58057286 38.55650492 338.33520794 44.18305016 C343.21332335 51.823992 343.09901407 58.51778709 343.05786419 67.44086266 C343.05988873 68.82417008 343.06280332 70.20747646 343.0665617 71.59078026 C343.07096872 74.48142278 343.06460786 77.37178598 343.05053997 80.26239586 C343.03346475 83.94861171 343.04328843 87.63417132 343.06125736 91.32036304 C343.07215321 94.17474274 343.06862221 97.02896962 343.06087399 99.88335419 C343.05792795 101.89727395 343.06696464 103.91119989 343.07626629 105.92510033 C343.00380543 115.41218662 341.95900998 122.57307362 335.31958294 129.71820641 C329.76646839 134.86627025 325.56801987 135.37853633 317.65942669 136.25726891 C317.65942669 158.69726891 317.65942669 181.13726891 317.65942669 204.25726891 C320.62942669 204.91726891 323.59942669 205.57726891 326.65942669 206.25726891 C334.53231829 209.8601176 339.19039307 215.34748562 342.65942669 223.25726891 C343.04710674 226.39261436 343.04710674 226.39261436 343.06347942 229.778265 C343.08250568 231.69087624 343.08250568 231.69087624 343.10191631 233.64212608 C343.09986438 235.02165452 343.09687594 236.40118183 343.09302044 237.78070641 C343.09758729 239.21028452 343.10289435 240.63986044 343.10890484 242.06943321 C343.11781873 245.06019593 343.11543351 248.05069139 343.10547161 251.04144859 C343.09399601 254.8567315 343.11417931 258.67108689 343.14338875 262.48624802 C343.16181961 265.43757462 343.16144452 268.38868188 343.15575123 271.34005165 C343.15559879 272.74574266 343.16157881 274.15144928 343.1740427 275.55708504 C343.25380863 286.02852755 342.17741263 293.43468685 334.65942669 301.25726891 C331.81958294 303.05805016 331.81958294 303.05805016 328.72192669 304.56976891 C327.70227825 305.08152672 326.68262981 305.59328453 325.63208294 306.12055016 C322.70547266 307.23966131 320.75327867 307.50227008 317.65942669 307.25726891 C317.69423138 308.01910484 317.72903606 308.78094078 317.76489544 309.56586266 C318.04951864 320.42220493 316.328483 326.89315727 309.28052044 335.21430016 C301.66135065 341.15293771 293.45912147 341.83989323 284.09704876 341.7719326 C282.86641091 341.77887813 281.63577306 341.78582366 280.36784315 341.79297966 C276.97756049 341.80803532 273.58816256 341.80533947 270.19792104 341.79482663 C266.5318483 341.78780434 262.86586323 341.80385532 259.1998167 341.81682396 C252.02820939 341.83841807 244.85676103 341.83834901 237.68513191 341.83019841 C231.85449085 341.82388807 226.02389601 341.82504491 220.19325542 341.83147049 C219.36211382 341.83237214 218.53097221 341.8332738 217.6746445 341.83420278 C215.98598014 341.83605405 214.29731579 341.83791661 212.60865146 341.83979034 C196.78925487 341.85635254 180.96994759 341.84766276 165.15055639 341.83080476 C150.68901668 341.81610633 136.22768471 341.83074097 121.76617175 341.85957492 C106.90160111 341.88899089 92.03712626 341.89993497 77.17252779 341.89039272 C75.49021786 341.88937021 73.80790792 341.8883756 72.12559795 341.88740921 C71.29795776 341.88693282 70.47031757 341.88645643 69.61759737 341.8859656 C63.79671031 341.88380454 57.97591429 341.89358905 52.15504742 341.90818024 C45.05734033 341.92572462 37.95989811 341.92555601 30.86220133 341.90282858 C27.24360462 341.89170583 23.62547419 341.88847854 20.00689793 341.90712929 C16.07829119 341.92711691 12.15040882 341.90810563 8.22180462 341.88545799 C7.08657879 341.89729372 5.95135297 341.90912945 4.78172636 341.92132384 C-4.60148586 341.81159533 -11.63868197 339.25632299 -18.27807331 332.50726891 C-26.10980918 323.65567554 -24.79813964 311.40454787 -24.77416706 300.39789391 C-24.77873345 298.56185272 -24.78404039 296.72581325 -24.79005146 294.88977623 C-24.79895239 291.05696186 -24.7965912 287.22435624 -24.78661823 283.39154625 C-24.77508972 278.48315604 -24.79541446 273.57548113 -24.82453537 268.66718483 C-24.84288048 264.88218186 -24.84260903 261.09735125 -24.83689785 257.31231499 C-24.83674466 255.50223087 -24.84278742 253.69213506 -24.85518932 251.88209343 C-24.87007843 249.35467492 -24.85944118 246.82859111 -24.8422823 244.30121422 C-24.85195026 243.5572187 -24.86161823 242.81322319 -24.87157917 242.04668236 C-24.82067469 238.46342947 -24.42319647 236.39100451 -22.52406025 233.31702232 C-19.50898378 230.47280377 -17.43994934 230.25726891 -13.34057331 230.25726891 C-10.39301599 231.6028929 -8.79780059 232.34281435 -7.34057331 235.25726891 C-7.24420618 237.85484952 -7.20742949 240.42631698 -7.21459675 243.02411461 C-7.21272861 243.82592155 -7.21086048 244.6277285 -7.20893574 245.45383263 C-7.20492706 247.19827324 -7.20285647 248.94271913 -7.20247364 250.68716431 C-7.19906399 254.3946057 -7.17770859 258.10187079 -7.15724277 261.80925083 C-7.11918882 268.71569352 -7.08795863 275.62194972 -7.09008503 282.52850914 C-7.09087178 287.32916055 -7.067523 292.12916948 -7.02820301 296.92965317 C-7.0177343 298.75923525 -7.01622539 300.58889142 -7.02385426 302.41848755 C-7.03347013 304.98044571 -7.01230668 307.54045724 -6.984128 310.10223961 C-6.99432468 310.85723244 -7.00452137 311.61222527 -7.01502705 312.39009666 C-6.94590797 315.89719182 -6.49719052 318.02332491 -4.53647709 320.95210361 C0.27657779 324.4236997 4.62912537 323.94295776 10.42639446 323.87872887 C12.23448282 323.8883121 12.23448282 323.8883121 14.07909822 323.89808893 C17.4221292 323.91071268 20.76373253 323.90089759 24.10664153 323.88157415 C27.71271108 323.86615314 31.31868852 323.87954743 34.92476177 323.88931847 C41.98781852 323.90385088 49.05058799 323.89160527 56.11361754 323.87020522 C64.33709979 323.84620305 72.56051611 323.84790911 80.78402561 323.85051113 C95.45593124 323.85420207 110.12770145 323.83336927 124.79956341 323.79926109 C139.03950708 323.76616925 153.27930862 323.75200271 167.51928997 323.75824547 C183.02208747 323.7650084 198.52482541 323.76255201 214.02761412 323.74288607 C214.84728451 323.74184658 215.6669549 323.7408071 216.51146379 323.73973611 C218.15777142 323.7376452 219.80407903 323.73553423 221.45038661 323.73340294 C227.18386459 323.72650521 232.91732422 323.72583838 238.65080547 323.72728539 C245.63711319 323.72872461 252.62330496 323.71904314 259.6095742 323.69533902 C263.1747451 323.68347307 266.73975431 323.67635778 270.30494404 323.68217659 C274.16756381 323.6882946 278.02987891 323.67119652 281.89245892 323.65167809 C283.02231386 323.65700601 284.1521688 323.66233394 285.31626177 323.66782331 C286.35073521 323.65876667 287.38520865 323.64971004 288.45102978 323.64037895 C289.34256079 323.63880775 290.23409181 323.63723655 291.15263891 323.63561773 C294.23784063 323.16996904 296.13618138 322.06321477 298.65942669 320.25726891 C299.94389588 317.68833053 299.98919813 315.49150554 300.22192669 312.63226891 C300.30571575 311.62937828 300.38950481 310.62648766 300.47583294 309.59320641 C300.53641888 308.82234703 300.59700481 308.05148766 300.65942669 307.25726891 C300.10255169 307.24308922 299.54567669 307.22890953 298.97192669 307.21430016 C290.99103372 306.71549435 285.71986217 303.75808997 280.34692669 297.88226891 C273.93141592 290.41895265 274.19212274 282.55296347 274.19067669 273.14398766 C274.18356232 271.76546995 274.17586149 270.38695517 274.1676054 269.00844383 C274.15420288 266.12621384 274.15257195 263.24425754 274.15845013 260.36200523 C274.16433448 256.69362086 274.13379002 253.02656539 274.09333324 249.35843754 C274.06730258 246.5125342 274.06459269 243.66694406 274.06822491 240.82093811 C274.06573908 238.81922807 274.04115053 236.817584 274.01599407 234.8160305 C274.08149823 226.10160241 275.31993857 218.91247772 281.43225384 212.35545921 C287.61791887 206.64907322 292.01395638 205.25726891 300.65942669 205.25726891 C300.65942669 182.48726891 300.65942669 159.71726891 300.65942669 136.25726891 C298.34942669 136.25726891 296.03942669 136.25726891 293.65942669 136.25726891 C285.90877205 133.96206017 280.66306435 129.18401701 276.65942669 122.25726891 C275.01294132 118.01284807 274.40091269 114.46233673 274.36889935 109.91986656 C274.35613964 108.68483391 274.34337994 107.44980125 274.33023357 106.17734337 C274.3271756 104.84200766 274.32494801 103.50666982 274.32348919 102.17133141 C274.31705326 100.78659493 274.31032431 99.40185979 274.30331707 98.01712608 C274.29137439 95.12057915 274.28763316 92.22415121 274.28882122 89.32758141 C274.28902431 85.63339912 274.26171971 81.93998693 274.2272768 78.24598694 C274.20493553 75.38733035 274.20098586 72.52885706 274.20204067 69.67012215 C274.19856308 67.6517192 274.1769484 65.63337346 274.15494061 63.61508751 C274.20224575 54.07191237 275.80007433 47.30715883 282.65942669 40.25726891 C288.73567432 35.9065277 293.05872053 34.11385936 300.65942669 34.25726891 C300.62609968 32.52729407 300.55639777 30.7980016 300.47192669 29.06976891 C300.437122 28.10683922 300.40231731 27.14390953 300.36645794 26.15180016 C299.36115881 22.03618327 298.08891456 20.78804005 294.65942669 18.25726891 C290.71616597 17.50126678 286.81449585 17.58311144 282.80980206 17.62235069 C281.59553714 17.61455074 280.38127223 17.60675079 279.13021141 17.59871447 C275.76247055 17.58221622 272.39612312 17.58815872 269.02846682 17.60364556 C265.39581188 17.6149517 261.7632793 17.59750018 258.13064861 17.58374596 C251.01581035 17.56150164 243.90123566 17.56631974 236.78638702 17.58080916 C231.00514883 17.59209587 225.22398457 17.59363478 219.44273853 17.58819008 C218.20906361 17.58704083 218.20906361 17.58704083 216.95046597 17.58586837 C215.27974754 17.58426976 213.60902913 17.5826487 211.93831075 17.58100541 C196.26883729 17.56674465 180.59951005 17.58314619 164.93006057 17.61000724 C151.47950589 17.63235051 138.02916694 17.62846288 124.57861614 17.60541344 C108.96411351 17.57866834 93.34973901 17.56811359 77.73521668 17.58347476 C76.07091083 17.58506753 74.40660497 17.58663938 72.74229908 17.58819008 C71.92339612 17.58896146 71.10449316 17.58973283 70.26077495 17.59052759 C64.48472196 17.59484816 58.70875012 17.58755045 52.93270969 17.57579231 C45.8961822 17.56178325 38.85993366 17.56553358 31.82343822 17.59219603 C28.23195416 17.60535539 24.64093552 17.61045124 21.04945469 17.59395027 C17.1600613 17.57635049 13.27143347 17.59733482 9.38206768 17.62235069 C8.241518 17.61119708 7.10096832 17.60004348 5.92585653 17.58855188 C-0.0005307 17.57747671 -0.0005307 17.57747671 -5.04248428 20.34107876 C-6.65086275 23.95434205 -6.83724826 26.59167117 -6.83263874 30.55122948 C-6.83731773 31.27546811 -6.84199672 31.99970673 -6.84681749 32.74589199 C-6.85773177 35.1674478 -6.84027367 37.58795986 -6.82299519 40.00946617 C-6.82518145 41.74753692 -6.82917879 43.48560619 -6.83485126 45.22366905 C-6.84341341 48.96365859 -6.83963664 52.70336111 -6.82642841 56.44333649 C-6.80610134 62.35520014 -6.81606433 68.26677407 -6.83068562 74.17864037 C-6.85744673 86.7257091 -6.85070683 99.27268388 -6.84057331 111.81976891 C-6.82963311 125.36838183 -6.82434856 138.91684612 -6.85786772 152.46543354 C-6.87126246 158.34442456 -6.86525184 164.22298259 -6.84450245 170.1019479 C-6.83553354 173.75577586 -6.84297486 177.40943585 -6.85491467 181.06324959 C-6.85705012 182.75960225 -6.8522972 184.45597941 -6.84020901 186.15229034 C-6.82465227 188.46541184 -6.83353173 190.77719632 -6.84850788 193.09029198 C-6.84624573 195.03290838 -6.84624573 195.03290838 -6.84393787 197.01476955 C-7.42382674 200.80082496 -8.3263507 201.97561334 -11.34057331 204.25726891 C-14.08019619 204.98498123 -16.5727147 204.83698467 -19.34057331 204.25726891 C-21.77176954 202.38711796 -22.98126504 200.97588546 -24.34057331 198.25726891 C-24.44607074 195.94884678 -24.48455166 193.63729301 -24.49447346 191.32648277 C-24.49885571 190.60495726 -24.50323797 189.88343175 -24.50775301 189.14004183 C-24.52116275 186.7097139 -24.52732485 184.27942224 -24.5334444 181.84906578 C-24.54134395 180.111322 -24.54961281 178.37357986 -24.55822468 176.63583946 C-24.58447202 170.91591527 -24.59975965 165.19598368 -24.61401081 159.47601891 C-24.61937026 157.5068467 -24.62474776 155.53767454 -24.63014317 153.56850243 C-24.65178001 145.37439928 -24.67051473 137.18029813 -24.68176556 128.98617363 C-24.69798943 117.24709523 -24.73112008 105.50834866 -24.7881664 93.76939535 C-24.82691091 85.51448995 -24.84640386 77.25967312 -24.85168612 69.0046792 C-24.85533472 64.07573978 -24.86730294 59.14715406 -24.89978886 54.21831322 C-24.92994712 49.57578442 -24.93615374 44.93382185 -24.9244051 40.2912159 C-24.92418498 38.59253258 -24.93243874 36.89382242 -24.95005894 35.19523048 C-25.05516879 24.47377241 -24.32598131 16.06219603 -17.05932331 7.60101891 C-16.32713581 6.99258141 -15.59494831 6.38414391 -14.84057331 5.75726891 C-14.10838581 5.12820641 -13.37619831 4.49914391 -12.62182331 3.85101891 C-8.52548498 0.98919349 -4.96937513 0.00763276 0 0 Z " fill="#020200" transform="translate(109.34057331085205,59.74273109436035)"/>
<path d="M0 0 C1.80404297 0.51046875 1.80404297 0.51046875 3.64453125 1.03125 C19.10500765 5.74422736 31.8185252 13.47244923 44 24 C44.75925781 24.65613281 45.51851562 25.31226563 46.30078125 25.98828125 C60.463494 39.24276392 69.5177718 57.36103127 74 76 C74.35578125 77.155 74.7115625 78.31 75.078125 79.5 C76.620994 85.71899458 76.38328414 92.13186673 76.375 98.5 C76.37478851 99.16885223 76.37457703 99.83770447 76.37435913 100.52682495 C76.34146085 110.93593601 75.54006348 120.16649034 72 130 C71.62617188 131.11632812 71.25234375 132.23265625 70.8671875 133.3828125 C66.51351669 145.57885723 60.46532443 156.22222217 52 166 C51.39671875 166.74765625 50.7934375 167.4953125 50.171875 168.265625 C35.09543161 186.38269563 11.1271219 198.43042501 -12.078125 201.79296875 C-23.81122781 202.62432496 -35.46733937 202.48044864 -47 200 C-48.17691406 199.75507813 -49.35382813 199.51015625 -50.56640625 199.2578125 C-76.24422178 193.20652333 -99.1652444 176.31221595 -113.21191406 154.08203125 C-127.00734127 131.26522394 -132.73606485 102.08056935 -126.4375 75.875 C-125.72473289 73.21114261 -124.89874732 70.60656079 -124 68 C-123.76394043 67.30261719 -123.52788086 66.60523438 -123.28466797 65.88671875 C-114.03947315 39.42078386 -94.67734001 18.37207681 -69.59765625 6.01171875 C-48.30228833 -3.76785896 -22.59329598 -6.89192793 0 0 Z M-50 17 C-49.43260132 21.12973628 -49.43260132 21.12973628 -48 25 C-47.64480097 28.83614957 -47.45275406 31.14629634 -49.5625 34.4375 C-52.96719488 36.61999672 -55.03430012 36.63734462 -59 36 C-62.31531236 32.86887166 -64.08971636 29.10710982 -66 25 C-78.72874143 27.32488428 -89.91566165 41.38614322 -97.1875 51.203125 C-98.84682988 53.76364265 -99.99436877 56.12976086 -101 59 C-100.30132812 59.32613281 -99.60265625 59.65226562 -98.8828125 59.98828125 C-97.97273438 60.42527344 -97.06265625 60.86226562 -96.125 61.3125 C-95.22007812 61.74175781 -94.31515625 62.17101562 -93.3828125 62.61328125 C-91 64 -91 64 -89 67 C-89.17864287 70.33466685 -89.44395023 72.9860269 -91.0625 75.9375 C-95.36518603 78.2970375 -100.47327639 77.27889143 -105 76 C-105.99 75.67 -106.98 75.34 -108 75 C-110.52644748 82.77816992 -111.45518358 89.7783557 -111.3125 97.9375 C-111.3026709 98.98566895 -111.2928418 100.03383789 -111.28271484 101.11376953 C-111.6893005 113.42325875 -111.6893005 113.42325875 -107 124 C-105.515 123.2265625 -105.515 123.2265625 -104 122.4375 C-99.58908136 120.55479083 -96.63563841 120.8410904 -92 122 C-89.9375 123.625 -89.9375 123.625 -89 126 C-89.21116222 132.01812337 -89.21116222 132.01812337 -91.29296875 134.609375 C-93.20036047 136.16322271 -94.86751294 136.88881593 -97.1875 137.6875 C-97.90292969 137.93886719 -98.61835938 138.19023437 -99.35546875 138.44921875 C-99.89816406 138.63097656 -100.44085938 138.81273437 -101 139 C-96.8284875 150.45639774 -87.88987995 159.96471852 -78.4375 167.375 C-77.89528809 167.80425781 -77.35307617 168.23351562 -76.79443359 168.67578125 C-73.34646583 171.29285045 -70.16908292 172.85898783 -66 174 C-65.66226563 173.28972656 -65.32453125 172.57945312 -64.9765625 171.84765625 C-64.53054687 170.92855469 -64.08453125 170.00945312 -63.625 169.0625 C-63.18414062 168.14597656 -62.74328125 167.22945312 -62.2890625 166.28515625 C-61 164 -61 164 -59 163 C-55.21291051 162.64934357 -52.83547676 162.51960086 -49.5 164.4375 C-47.2053652 168.35750111 -48.15426901 171.6790835 -49 176 C-49.2784375 177.5159375 -49.2784375 177.5159375 -49.5625 179.0625 C-49.706875 179.701875 -49.85125 180.34125 -50 181 C-48.80375 181.474375 -47.6075 181.94875 -46.375 182.4375 C-45.70210938 182.70433594 -45.02921875 182.97117187 -44.3359375 183.24609375 C-30.6770084 187.65441033 -15.29098434 185.45019505 -2 181 C-2.14953125 180.26910156 -2.2990625 179.53820312 -2.453125 178.78515625 C-4.49923943 168.36458777 -4.49923943 168.36458777 -3.0625 164.4375 C-0.40828487 162.58759249 1.87606891 162.4397356 5.0703125 162.62109375 C8.14733767 163.22528695 9.23498867 164.45053918 11 167 C12.13999689 169.30466904 13.07456091 171.59385836 14 174 C18.45249809 172.73802743 21.46005341 171.15447447 25 168.1875 C25.86367188 167.46691406 26.72734375 166.74632812 27.6171875 166.00390625 C28.40351563 165.34261719 29.18984375 164.68132812 30 164 C31.546875 162.824375 31.546875 162.824375 33.125 161.625 C39.41910289 155.8782104 45.11358479 148.6233529 49 141 C49 140.34 49 139.68 49 139 C48.37351562 138.73445313 47.74703125 138.46890625 47.1015625 138.1953125 C46.28429687 137.84210938 45.46703125 137.48890625 44.625 137.125 C43.81289063 136.77695312 43.00078125 136.42890625 42.1640625 136.0703125 C40 135 40 135 38 133 C37.50385997 129.95970005 37.56009166 127.04594763 38 124 C39.5625 121.875 39.5625 121.875 42 121 C46.87347401 121.27585702 51.35841027 122.57910518 56 124 C56.309375 122.989375 56.61875 121.97875 56.9375 120.9375 C57.11152344 120.36902344 57.28554688 119.80054688 57.46484375 119.21484375 C59.14509648 112.26080508 59.2145637 105.37269588 59.25 98.25 C59.270625 97.2290625 59.29125 96.208125 59.3125 95.15625 C59.34886118 87.99309811 58.22943322 81.80262958 56 75 C55.030625 75.33 54.06125 75.66 53.0625 76 C48.74043116 77.20595404 44.44788871 77.8594526 40 77 C37.875 74.875 37.875 74.875 37 72 C37.12422015 68.89449613 37.26769225 66.873902 39.29296875 64.45703125 C41.16300999 62.86086333 42.97000292 61.86671992 45.1875 60.8125 C46.26064453 60.29623047 46.26064453 60.29623047 47.35546875 59.76953125 C47.89816406 59.51558594 48.44085938 59.26164062 49 59 C43.85123753 46.49586257 33.66990073 36.92572498 23 29 C22.37867188 28.51402344 21.75734375 28.02804688 21.1171875 27.52734375 C18.32912763 25.45205693 18.32912763 25.45205693 14.96875 25.16796875 C12.36297887 26.26921726 12.01233801 27.36440294 10.9375 29.9375 C9.54411636 33.23258319 9.14418459 33.90387694 6 36 C2.4227467 36.45667063 0.66541695 36.43777431 -2.375 34.4375 C-4.59464544 31.10803184 -4.42107788 28.93006023 -4 25 C-3.34870203 23.65909241 -2.68486725 22.32407669 -2 21 C-2.40631179 18.91071245 -2.40631179 18.91071245 -3 17 C-4.39567835 16.68680856 -5.79155082 16.37448212 -7.1875 16.0625 C-7.96480469 15.88847656 -8.74210937 15.71445313 -9.54296875 15.53515625 C-10.35378906 15.35855469 -11.16460937 15.18195313 -12 15 C-12.73992187 14.81824219 -13.47984375 14.63648438 -14.2421875 14.44921875 C-26.16992312 12.50631564 -38.43325105 13.82999376 -50 17 Z " fill="#010201" transform="translate(282,131)"/>
<path d="M0 0 C7.77729127 -0.89737976 13.5418666 1.7187655 20 6 C24.95520588 10.80273801 27.70730303 16.27905272 28.25299966 23.2162903 C28.25511294 24.96897604 28.25511294 24.96897604 28.25726891 26.75706959 C28.26077498 27.4146969 28.26428105 28.07232421 28.26789337 28.74987963 C28.27718886 30.95099854 28.27228894 33.15185179 28.26742554 35.35298157 C28.27116273 36.94804559 28.27576453 38.54310779 28.28115618 40.13816708 C28.29339299 44.51966554 28.29312491 48.90108768 28.29076743 53.28259933 C28.29035944 58.00869352 28.30139672 62.73476318 28.31088257 67.46084595 C28.32749714 76.71946161 28.33299232 85.97805181 28.33410732 95.23668114 C28.33505756 102.76220892 28.3391666 110.28772829 28.34550858 117.8132534 C28.36312202 139.1478413 28.37234725 160.48240908 28.37084763 181.8170043 C28.37076772 182.96721466 28.3706878 184.11742502 28.37060547 185.30249023 C28.37052371 186.45410435 28.37044195 187.60571846 28.37035771 188.79222997 C28.36954472 207.45789825 28.3886854 226.12348585 28.4168822 244.78913078 C28.44560368 263.95325025 28.45942291 283.11733037 28.45769465 302.28147191 C28.45703051 313.0413489 28.46253349 323.8011413 28.48405075 334.56099892 C28.50225281 343.7217955 28.50661786 352.88246916 28.4930319 362.04327599 C28.48649743 366.71680869 28.48640241 371.39010548 28.5037384 376.0636158 C28.51945285 380.3440201 28.51662222 384.62400113 28.49917014 388.90439501 C28.49609666 390.45080082 28.49974578 391.99723809 28.51089029 393.5436068 C28.57638359 403.27782209 28.10812205 411.13511863 21.625 418.8125 C15.13799397 424.21833836 9.91780279 427.25166251 1.40330791 427.24609566 C0.75089157 427.24840335 0.09847523 427.25071103 -0.57371131 427.25308865 C-2.76305489 427.25838859 -4.95210517 427.24940477 -7.14143372 427.24050903 C-8.72554823 427.2413811 -10.30966247 427.24313211 -11.89377517 427.24568737 C-16.24931805 427.25016463 -20.60476279 427.24215199 -24.96029317 427.23213124 C-29.65622734 427.22350452 -34.35215585 427.22641635 -39.0480957 427.22793579 C-47.18497342 427.22898513 -55.32181908 427.22270336 -63.45868874 427.21146011 C-75.223272 427.19521478 -86.98783976 427.1899981 -98.75243302 427.18748413 C-117.83911453 427.18310551 -136.92577895 427.16979187 -156.01245117 427.15087891 C-174.55476801 427.13252443 -193.09708021 427.11836581 -211.6394043 427.10986328 C-212.78210999 427.10933783 -213.92481567 427.10881239 -215.10214881 427.10827102 C-220.8346949 427.10566097 -226.56724102 427.10313354 -232.29978716 427.10064721 C-279.86653658 427.07990951 -327.43326746 427.04467943 -375 427 C-375 426.67 -375 426.34 -375 426 C-373.8100106 426.00138269 -373.8100106 426.00138269 -372.595981 426.00279331 C-325.5992299 426.05638693 -278.60262617 426.06842531 -231.60585835 426.02634037 C-225.965592 426.02132561 -220.32532541 426.0166588 -214.68505859 426.01220703 C-213.5621613 426.0113149 -212.43926401 426.01042277 -211.28233953 426.0095036 C-193.08953991 425.99587978 -174.89686628 426.01045684 -156.70408337 426.03541696 C-138.0429636 426.06039337 -119.38202961 426.05515434 -100.72092211 426.02174091 C-89.20164017 426.00207132 -77.68286326 426.00609927 -66.16361304 426.04023629 C-58.26932834 426.06137536 -50.37541612 426.05322135 -42.48116677 426.02184123 C-37.92323783 426.00459424 -33.36626806 426.0004458 -28.80838776 426.03101921 C-24.63659995 426.05871817 -20.46657399 426.04969239 -16.29488619 426.01125896 C-14.78469896 426.0038629 -13.27437273 426.01003001 -11.76431327 426.03102028 C-3.8160344 426.37718809 -3.8160344 426.37718809 3.18765521 423.27397442 C4.75680149 421.23749289 5.90716785 419.32125409 7 417 C7.61198242 415.85829346 8.22396484 414.71658691 8.85449219 413.5402832 C11.06959583 406.84638122 10.38584051 399.32670245 10.328125 392.35546875 C10.32506311 390.73741329 10.32319026 389.11935518 10.32244873 387.501297 C10.31786508 384.12486547 10.30350906 380.74867503 10.28125 377.37231445 C10.25285557 373.04349195 10.24202483 368.71485785 10.2375679 364.38595104 C10.23341496 361.05141824 10.22360034 357.71692346 10.21169281 354.38241005 C10.20599693 352.78559992 10.20123598 351.18878618 10.19742584 349.59197044 C10.19055965 347.36617963 10.17692845 345.14053804 10.16113281 342.91479492 C10.15430481 341.64874924 10.14747681 340.38270355 10.14044189 339.07829285 C10.13838843 335.96072851 10.13838843 335.96072851 9 333 C9.33 332.34 9.66 331.68 10 331 C10.11710695 328.98536794 10.16976512 326.96687513 10.19287109 324.94897461 C10.20893402 323.67682602 10.22499695 322.40467743 10.24154663 321.09397888 C10.25303845 319.69677399 10.26364625 318.29956159 10.2734375 316.90234375 C10.27876118 316.1982947 10.28408485 315.49424564 10.28956985 314.76886177 C10.31631152 311.03675551 10.33567642 307.3046827 10.35009766 303.57250977 C10.3633954 300.49473065 10.39116722 297.41762112 10.43212891 294.34008789 C10.4816937 290.6159121 10.50624849 286.89234007 10.51332474 283.16784859 C10.5200018 281.75455704 10.53513076 280.34127706 10.55921555 278.92817497 C10.71367698 269.31086964 9.81537671 262.71932935 3.54867554 255.27622986 C-1.76313158 250.03842282 -6.30567936 249.56477355 -14 247 C-14 224.56 -14 202.12 -14 179 C-10.37 178.01 -6.74 177.02 -3 176 C3.33744094 172.07257181 7.28386353 168.40670646 9.58887863 161.14473152 C10.09622951 158.49799141 10.1324886 156.00532384 10.14044189 153.30929565 C10.14615204 152.14868118 10.15186218 150.98806671 10.15774536 149.7922821 C10.15886322 148.522621 10.15998108 147.2529599 10.16113281 145.94482422 C10.16576345 144.59101731 10.17078844 143.2372117 10.17617798 141.88340759 C10.18928379 138.2074709 10.19574385 134.53155246 10.20018864 130.85559607 C10.20312343 128.55592067 10.20722909 126.25625021 10.21169281 123.9565773 C10.22536544 116.75270641 10.23503219 109.54884687 10.2388947 102.34496391 C10.24336942 94.04597783 10.26089093 85.74715695 10.2898953 77.44822109 C10.31156515 71.02340547 10.32160187 64.59863613 10.32293582 58.17378438 C10.32398043 54.34154918 10.32981398 50.50946932 10.34775543 46.6772728 C10.36432727 43.06733455 10.3663479 39.45766685 10.35761642 35.84770393 C10.35648822 33.90541224 10.37013661 31.96312916 10.3843689 30.02088928 C10.34310808 21.2967628 9.73022832 12.44388886 3.875 5.5 C1.01265823 2.02531646 1.01265823 2.02531646 0 0 Z " fill="#F9BE07" transform="translate(441,17)"/>
<path d="M0 0 C11.49748485 8.88677776 20.8083615 20.22271465 23 35 C24.14575747 49.34372324 22.44038711 62.0062797 13.75 73.9375 C12.53889048 75.32655763 11.28642813 76.6803902 10 78 C9.2471875 78.77988281 8.494375 79.55976563 7.71875 80.36328125 C-2.45871352 90.20256955 -14.36391525 94.40989722 -28.375 94.3125 C-29.63062744 94.30512817 -29.63062744 94.30512817 -30.91162109 94.29760742 C-37.02306409 94.18170279 -42.38354855 93.55952677 -48 91 C-48.73992187 90.67128906 -49.47984375 90.34257812 -50.2421875 90.00390625 C-63.31463227 83.46768387 -72.61792521 72.24636796 -77.2734375 58.54296875 C-81.35958261 44.24146086 -79.48248863 29.79578179 -72.375 16.8125 C-64.44726688 4.56235962 -53.38145588 -3.38919747 -39.42578125 -7.30859375 C-25.88153288 -10.04215357 -11.63994811 -7.48681462 0 0 Z " fill="#000203" transform="translate(284,187)"/>
<path d="M0 0 C38.94 0 77.88 0 118 0 C118 24.91096289 118 24.91096289 112.18753147 30.85281277 C106.93844387 33.98884056 102.7325296 34.71658037 96.66577148 34.63110352 C95.76876526 34.63825882 94.87175903 34.64541412 93.9475708 34.65278625 C91.0048817 34.66959074 88.06373376 34.65032069 85.12109375 34.62890625 C83.06421279 34.62973563 81.00733191 34.63219764 78.95045471 34.63621521 C74.64913883 34.63906748 70.34834532 34.62442628 66.04711914 34.59692383 C60.54361865 34.5628209 55.04105045 34.56887205 49.53750515 34.5875864 C45.29344459 34.59817173 41.04959968 34.58920493 36.80555916 34.57420158 C34.776649 34.56903204 32.74771621 34.56948661 30.71880913 34.57574654 C27.88032725 34.58121808 25.0431653 34.56076225 22.20483398 34.53344727 C21.37295059 34.53997314 20.5410672 34.54649902 19.68397522 34.55322266 C13.9976787 34.46052844 10.69300645 33.24603599 6 30 C-2.81391869 20.47143926 0 15.3615405 0 0 Z " fill="#5F7C8A" transform="translate(78,461)"/>
<path d="M0 0 C38.94 0 77.88 0 118 0 C118 21 118 21 113 29 C107.46987736 34.26036056 102.61029318 34.15709444 95.2434082 34.20874023 C93.91822426 34.22341591 93.91822426 34.22341591 92.56626892 34.23838806 C89.6444549 34.2682849 86.72268649 34.28971261 83.80078125 34.30859375 C82.30064012 34.31845149 82.30064012 34.31845149 80.7701931 34.32850838 C75.47547189 34.36107823 70.1807706 34.38553397 64.88598633 34.4050293 C60.51231504 34.42283257 56.13928966 34.45764104 51.76586914 34.50756836 C46.4767844 34.56787188 41.18829786 34.59851889 35.89888573 34.60820198 C33.88829777 34.61674065 31.87772511 34.63551939 29.86733437 34.6649456 C10.97852667 34.92651838 10.97852667 34.92651838 4.52824402 29.97425842 C-2.78805024 20.52272098 0 12.56836297 0 0 Z " fill="#5F7C8A" transform="translate(316,461)"/>
<path d="M0 0 C8.13914073 6.54670015 13.98520957 13.86977378 15.25 24.44921875 C15.63763257 34.68514134 13.07520912 43.54010818 6.57421875 51.53125 C0.19657377 58.21678129 -7.20318723 62.60300367 -16.53198242 62.88256836 C-27.54273041 62.84602696 -35.65303787 60.62742213 -44.0625 53.0625 C-51.38784328 45.02074173 -53.43831922 36.18509308 -53.34375 25.640625 C-52.70798433 15.96790441 -48.03249061 8.65205889 -41.19140625 1.98828125 C-28.33624149 -8.43679565 -13.91298774 -7.51301338 0 0 Z " fill="#0276BA" transform="translate(275.125,201.6875)"/>
<path d="M0 0 C0.99902344 0.00257812 1.99804688 0.00515625 3.02734375 0.0078125 C4.05988281 0.03617187 5.09242188 0.06453125 6.15625 0.09375 C7.70505859 0.08988281 7.70505859 0.08988281 9.28515625 0.0859375 C18.73931713 0.20792667 18.73931713 0.20792667 22.65625 3.59375 C23.95874528 6.19874057 23.81200568 8.14836462 23.84912109 11.06567383 C23.86518402 12.21058792 23.88124695 13.35550201 23.89779663 14.53511047 C23.94215947 19.7734705 23.983751 25.01174288 24.00634766 30.25024414 C24.01968269 33.01588043 24.04752554 35.78077808 24.08837891 38.54614258 C24.14718476 42.52683532 24.16500882 46.50716895 24.1796875 50.48828125 C24.20235687 51.72487991 24.22502625 52.96147858 24.24838257 54.23554993 C24.22739673 62.73559261 24.22739673 62.73559261 21.47338867 66.87353516 C18.35731977 68.77628422 16.68332848 69.22541177 13.05859375 69.22265625 C12.00994141 69.22458984 10.96128906 69.22652344 9.88085938 69.22851562 C8.79611328 69.20466797 7.71136719 69.18082031 6.59375 69.15625 C5.50513672 69.16720703 4.41652344 69.17816406 3.29492188 69.18945312 C-4.72136904 69.11545659 -4.72136904 69.11545659 -7.62280273 66.68334961 C-10.34970007 63.37231056 -10.48183085 61.44450716 -10.53662109 57.21362305 C-10.55268402 56.08872971 -10.56874695 54.96383636 -10.58529663 53.80485535 C-10.62966476 48.65808909 -10.67125102 43.51141199 -10.69384766 38.36450195 C-10.70718211 35.64736221 -10.73502382 32.9309744 -10.77587891 30.21411133 C-10.83469168 26.3029177 -10.85250963 22.39208948 -10.8671875 18.48046875 C-10.88985687 17.26574387 -10.91252625 16.05101898 -10.93588257 14.79948425 C-10.91488632 6.44271757 -10.91488632 6.44271757 -8.14501953 2.32543945 C-5.10184758 0.44421071 -3.54452102 -0.0277507 0 0 Z " fill="#9D9E9E" transform="translate(411.34375,110.40625)"/>
<path d="M0 0 C1.04414063 -0.00644531 2.08828125 -0.01289063 3.1640625 -0.01953125 C4.24429687 -0.00019531 5.32453125 0.01914062 6.4375 0.0390625 C8.05785156 0.01005859 8.05785156 0.01005859 9.7109375 -0.01953125 C11.27714844 -0.00986328 11.27714844 -0.00986328 12.875 0 C14.29619141 0.00845947 14.29619141 0.00845947 15.74609375 0.01708984 C19.83601467 1.00024391 21.07677288 2.13835586 23.4375 5.6640625 C24.17450953 10.00850834 24.11379323 14.30184018 24.06640625 18.69921875 C24.06881821 19.97002792 24.07123016 21.2408371 24.07371521 22.55015564 C24.07273621 25.2349037 24.06193142 27.91741923 24.03442383 30.60180664 C24.00030507 34.03761629 24.00637466 37.47193339 24.0250864 40.90781498 C24.03820939 44.19253632 24.01993992 47.47702968 24.00390625 50.76171875 C24.00886612 51.99406754 24.01382599 53.22641632 24.01893616 54.49610901 C23.99518166 56.21325356 23.99518166 56.21325356 23.97094727 57.96508789 C23.96474869 58.97148819 23.95855011 59.97788849 23.9521637 61.01478577 C23.30118995 64.3657305 22.04675951 65.53550565 19.4375 67.6640625 C15.58134631 69.59213935 10.86700167 68.93595623 6.625 68.9765625 C5.62662109 69.00556641 4.62824219 69.03457031 3.59960938 69.06445312 C-3.79357012 69.12848466 -3.79357012 69.12848466 -7.69921875 66.76953125 C-10.60383977 63.48737039 -10.6996005 61.59052178 -10.75537109 57.28393555 C-10.77143402 56.15904221 -10.78749695 55.03414886 -10.80404663 53.87516785 C-10.84841476 48.72840159 -10.89000102 43.58172449 -10.91259766 38.43481445 C-10.92593211 35.71767471 -10.95377382 33.0012869 -10.99462891 30.28442383 C-11.05344168 26.3732302 -11.07125963 22.46240198 -11.0859375 18.55078125 C-11.10860687 17.33605637 -11.13127625 16.12133148 -11.15463257 14.86979675 C-11.13364682 6.51720907 -11.13364682 6.51720907 -8.37744141 2.40014648 C-5.27890452 0.48915813 -3.61315388 0.02150687 0 0 Z " fill="#9D9D9D" transform="translate(411.5625,281.3359375)"/>
<path d="M0 0 C0 33.33 0 66.66 0 101 C-3 98 -3 98 -4.8125 95.125 C-10.46462812 87.05053126 -14.98549956 86.33816681 -25 83 C-25 60.56 -25 38.12 -25 15 C-21.37 14.01 -17.74 13.02 -14 12 C-8.91865561 8.75358553 -5.77254378 6.39105736 -3 1 C-1 0 -1 0 0 0 Z " fill="#FDDB00" transform="translate(452,181)"/>
<path d="M0 0 C0.96472733 -0.01606293 1.92945465 -0.03212585 2.92341614 -0.04867554 C7.33744642 -0.09309404 11.75132589 -0.13418891 16.16552734 -0.15722656 C18.49440501 -0.17379065 20.82323174 -0.20108633 23.15185547 -0.23925781 C26.50734872 -0.29398893 29.86164995 -0.31589538 33.2175293 -0.33056641 C34.77713127 -0.36457047 34.77713127 -0.36457047 36.36824036 -0.39926147 C43.57286474 -0.37818389 43.57286474 -0.37818389 47.51513672 2.50292969 C49.92727217 6.03099399 50.03999912 8.00217012 49.35424805 12.19287109 C47.487163 14.55784549 46.03363374 15.85317825 43.35424805 17.19287109 C40.65531623 17.27962647 37.98255574 17.30845007 35.28393555 17.29052734 C34.48770782 17.2891124 33.6914801 17.28769745 32.87112427 17.28623962 C30.32379425 17.28063454 27.77655158 17.26808123 25.22924805 17.25537109 C23.5039889 17.25035675 21.77872837 17.24579373 20.0534668 17.24169922 C15.82036014 17.23066347 11.58731891 17.21339546 7.35424805 17.19287109 C7.3699585 18.25723389 7.38566895 19.32159668 7.40185547 20.41821289 C7.45627859 24.37842195 7.49064297 28.33859813 7.51904297 32.29907227 C7.53410145 34.01104293 7.5545526 35.72297521 7.58056641 37.43481445 C7.61707994 39.89983614 7.63400367 42.36434645 7.6472168 44.82958984 C7.66270065 45.59123947 7.67818451 46.3528891 7.69413757 47.13761902 C7.69556477 51.67485409 7.18682374 54.59673526 4.35424805 58.19287109 C1.16191319 59.78903852 -2.18036692 59.70753224 -5.64575195 59.19287109 C-8.07694818 57.32272015 -9.28644368 55.91148764 -10.64575195 53.19287109 C-10.75547481 51.70836468 -10.8047847 50.21916024 -10.82275391 48.73071289 C-10.84200676 47.34368416 -10.84200676 47.34368416 -10.86164856 45.92863464 C-10.86903549 44.92657486 -10.87642242 43.92451508 -10.8840332 42.89208984 C-10.89210495 41.863564 -10.9001767 40.83503815 -10.90849304 39.77534485 C-10.92233962 37.59560841 -10.9330592 35.41585024 -10.94091797 33.23608398 C-10.95812884 29.90420382 -11.0020103 26.57331623 -11.04614258 23.24169922 C-11.05626951 21.12517007 -11.06478561 19.00863247 -11.0715332 16.89208984 C-11.08904129 15.89610275 -11.10654938 14.90011566 -11.12458801 13.87394714 C-11.11075516 9.45707706 -11.09029519 6.91901355 -8.74414062 3.08666992 C-5.69383405 0.3337638 -4.01413838 0.06066516 0 0 Z " fill="#F5F2ED" transform="translate(129.645751953125,93.80712890625)"/>
<path d="M0 0 C-1.03943952 2.71853412 -2.13160977 5.23659628 -3.54896545 7.78459167 C-5.11857489 11.26275507 -5.38506237 13.53006086 -5.40405273 17.3215332 C-5.42307899 19.16924065 -5.42307899 19.16924065 -5.44248962 21.05427551 C-5.43955399 22.37312241 -5.43661835 23.6919693 -5.43359375 25.05078125 C-5.43816147 26.43312332 -5.4434688 27.81546313 -5.44947815 29.19779968 C-5.45839155 32.09021242 -5.45600816 34.98234883 -5.44604492 37.87475586 C-5.43458079 41.55991684 -5.454735 45.24411589 -5.48396206 48.92915058 C-5.50241897 51.78358405 -5.50201252 54.63779127 -5.49632454 57.49226952 C-5.49609894 59.50450619 -5.51291716 61.51672187 -5.53013611 63.52888489 C-5.47339274 71.03701055 -4.58648639 76.41535054 -1 83 C-0.67 83.99 -0.34 84.98 0 86 C-6.47279385 86.59687648 -10.94127625 86.26813274 -16.30859375 82.4296875 C-19.91804076 79.37874615 -22.1309159 76.64092127 -23 72 C-23.10555352 70.08231855 -23.15843292 68.16146123 -23.17700195 66.2409668 C-23.18983719 65.0826384 -23.20267242 63.92431 -23.21589661 62.73088074 C-23.22328354 61.48293228 -23.23067047 60.23498383 -23.23828125 58.94921875 C-23.246353 57.6619136 -23.25442474 56.37460846 -23.26274109 55.04829407 C-23.27773943 52.32394546 -23.28759118 49.59962264 -23.29516602 46.87524414 C-23.30622259 43.3984086 -23.34062502 39.92221442 -23.38033772 36.44560528 C-23.41288397 33.11350299 -23.41728874 29.78146764 -23.42578125 26.44921875 C-23.44328934 25.20734299 -23.46079742 23.96546722 -23.47883606 22.68595886 C-23.46181685 15.89248105 -23.15394724 11.47927921 -19 6 C-13.03273302 0.33874671 -7.90528085 -0.31001101 0 0 Z " fill="#F47B00" transform="translate(390,102)"/>
<path d="M0 0 C1.27484253 0.0165564 1.27484253 0.0165564 2.57543945 0.03344727 C3.68278442 0.04782837 3.68278442 0.04782837 4.8125 0.0625 C4.45926666 0.68829453 4.10603333 1.31408905 3.74209595 1.95884705 C-0.35952233 9.92857495 -0.92114134 16.69884315 -0.8515625 25.56640625 C-0.8549418 26.93920824 -0.85980361 28.31200729 -0.86605835 29.68479919 C-0.87337521 32.54333354 -0.86289382 35.40107975 -0.83935547 38.25952148 C-0.81084124 41.89651115 -0.82731814 45.53165745 -0.85721779 49.16858006 C-0.87541048 51.99738599 -0.8694793 54.82576508 -0.85657883 57.65458488 C-0.85169276 59.63851517 -0.86669069 61.62246308 -0.88223267 63.6063385 C-0.77873685 71.65080673 0.55810566 77.22384594 4.8125 84.0625 C5.3075 85.0525 5.3075 85.0525 5.8125 86.0625 C-1.53410594 86.45606818 -6.7384086 85.20860131 -13 81.3125 C-19.3261058 74.80564832 -18.64106739 67.02051659 -18.62109375 58.46484375 C-18.6263356 57.15721573 -18.63157745 55.84958771 -18.63697815 54.50233459 C-18.64587683 51.74454034 -18.64352219 48.9870362 -18.63354492 46.22924805 C-18.62203718 42.70635131 -18.64230904 39.18445431 -18.67146206 35.6616888 C-18.69427696 32.28352153 -18.68735607 28.90558612 -18.68359375 25.52734375 C-18.70044472 23.63809425 -18.70044472 23.63809425 -18.71763611 21.7106781 C-18.65542711 13.89755511 -18.05944908 10.0480515 -12.58984375 4.41796875 C-8.25345708 0.96042311 -5.47804523 -0.07114344 0 0 Z " fill="#F47B00" transform="translate(385.1875,272.9375)"/>
<path d="M0 0 C5 2 5 2 7.375 3.0625 C10.64995795 4.33067688 10.64995795 4.33067688 17 5 C17 27.77 17 50.54 17 74 C12.05 74.99 12.05 74.99 7 76 C4.11290012 77.4955108 4.11290012 77.4955108 2 79 C1.34 79 0.68 79 0 79 C0 52.93 0 26.86 0 0 Z " fill="#EE7800" transform="translate(393,191)"/>
<path d="M0 0 C0.85980469 0.0103125 1.71960938 0.020625 2.60546875 0.03125 C4.8125 0.5 4.8125 0.5 6.8125 3.5 C7.06646729 6.10494995 7.06646729 6.10494995 7.07128906 9.26904297 C7.07759338 10.45392303 7.08389771 11.6388031 7.09039307 12.85958862 C7.0863446 14.14084625 7.08229614 15.42210388 7.078125 16.7421875 C7.08003845 18.05784698 7.0819519 19.37350647 7.08392334 20.72903442 C7.08687191 23.51487927 7.08258702 26.30059585 7.07324219 29.08642578 C7.06186986 32.64961956 7.06839449 36.21251129 7.08038712 39.77569389 C7.0893743 43.18121562 7.0830707 46.5866572 7.078125 49.9921875 C7.08217346 51.26939667 7.08622192 52.54660583 7.09039307 53.86251831 C7.08408875 55.0537027 7.07778442 56.24488708 7.07128906 57.47216797 C7.06890228 59.04078079 7.06890228 59.04078079 7.06646729 60.64108276 C6.80240607 63.61362769 6.06132258 65.80483185 4.8125 68.5 C-3.18401568 69.1271777 -3.18401568 69.1271777 -7.1875 66.625 C-10.25575552 63.36497851 -10.32359125 61.50439317 -10.38037109 57.11987305 C-10.39643402 55.99497971 -10.41249695 54.87008636 -10.42904663 53.71110535 C-10.47341476 48.56433909 -10.51500102 43.41766199 -10.53759766 38.27075195 C-10.55093211 35.55361221 -10.57877382 32.8372244 -10.61962891 30.12036133 C-10.67844168 26.2091677 -10.69625963 22.29833948 -10.7109375 18.38671875 C-10.73360687 17.17199387 -10.75627625 15.95726898 -10.77963257 14.70573425 C-10.7560626 5.32459627 -10.7560626 5.32459627 -7.81762695 2.23168945 C-4.91228526 0.31879717 -3.44579476 -0.12511206 0 0 Z " fill="#CDD6DA" transform="translate(411.1875,281.5)"/>
<path d="M0 0 C0.88300781 0.04511719 1.76601563 0.09023437 2.67578125 0.13671875 C3.67158203 0.22373047 3.67158203 0.22373047 4.6875 0.3125 C6.41594894 4.06642646 6.93975907 7.00399454 6.94628906 11.125 C6.95259338 12.2696875 6.95889771 13.414375 6.96539307 14.59375 C6.9613446 15.8209375 6.95729614 17.048125 6.953125 18.3125 C6.95503845 19.5809375 6.9569519 20.849375 6.95892334 22.15625 C6.96028337 24.83607687 6.95760752 27.51553799 6.94824219 30.1953125 C6.93684806 33.62169032 6.94341258 37.04775476 6.95538712 40.47412109 C6.96437202 43.7535918 6.95807212 47.03302519 6.953125 50.3125 C6.95717346 51.5396875 6.96122192 52.766875 6.96539307 54.03125 C6.95908875 55.1759375 6.95278442 56.320625 6.94628906 57.5 C6.94390228 59.00626953 6.94390228 59.00626953 6.94146729 60.54296875 C6.67304176 63.47016813 5.91147823 65.6542067 4.6875 68.3125 C-4.45416085 68.94055304 -4.45416085 68.94055304 -7.875 66.4375 C-10.19052296 63.01455301 -10.45203675 61.05083263 -10.50537109 56.93237305 C-10.52143402 55.80747971 -10.53749695 54.68258636 -10.55404663 53.52360535 C-10.59841476 48.37683909 -10.64000102 43.23016199 -10.66259766 38.08325195 C-10.67593211 35.36611221 -10.70377382 32.6497244 -10.74462891 29.93286133 C-10.80344168 26.0216677 -10.82125963 22.11083948 -10.8359375 18.19921875 C-10.85860687 16.98449387 -10.88127625 15.76976898 -10.90463257 14.51823425 C-10.88106201 5.13686217 -10.88106201 5.13686217 -7.94702148 2.03759766 C-4.96818073 0.08703805 -3.51686654 -0.23445777 0 0 Z " fill="#CDD6DA" transform="translate(411.3125,110.6875)"/>
<path d="M0 0 C2.52651976 7.77839247 3.45453131 14.77822668 3.3125 22.9375 C3.303396 23.98566895 3.29429199 25.03383789 3.28491211 26.11376953 C3.0135837 42.97283261 3.0135837 42.97283261 0 49 C-0.56847656 48.7834375 -1.13695312 48.566875 -1.72265625 48.34375 C-6.7242219 46.54018042 -10.68962036 45.6610396 -16 46 C-15.83757812 44.98164063 -15.67515625 43.96328125 -15.5078125 42.9140625 C-14.69921733 36.42530059 -14.85541589 29.9030359 -14.875 23.375 C-14.87113281 22.07820313 -14.86726563 20.78140625 -14.86328125 19.4453125 C-14.86457031 18.19234375 -14.86585938 16.939375 -14.8671875 15.6484375 C-14.86831543 14.51583496 -14.86944336 13.38323242 -14.87060547 12.21630859 C-14.99743269 9.06381456 -15.41089597 6.09645246 -16 3 C-15.11248047 2.92652344 -15.11248047 2.92652344 -14.20703125 2.8515625 C-9.41567676 2.39822064 -4.55203067 0 0 0 Z " fill="#0275B9" transform="translate(338,206)"/>
<path d="M0 0 C5.61 0 11.22 0 17 0 C17.13592625 3.33472392 17.23455198 6.66382467 17.3125 10 C17.35439453 10.93457031 17.39628906 11.86914062 17.43945312 12.83203125 C17.55675544 19.54172371 16.31924321 23.81137066 12 29 C7.39296413 33.38230242 3.97092102 34.14435422 -2.25 34.0625 C-3.14203125 34.05347656 -4.0340625 34.04445313 -4.953125 34.03515625 C-5.62859375 34.02355469 -6.3040625 34.01195312 -7 34 C-6.65066406 33.32453125 -6.30132812 32.6490625 -5.94140625 31.953125 C-5.48636719 31.06109375 -5.03132813 30.1690625 -4.5625 29.25 C-4.11003906 28.36828125 -3.65757812 27.4865625 -3.19140625 26.578125 C-1.43259783 22.77217891 -0.87085895 19.40771379 -0.68359375 15.234375 C-0.64169922 14.34492188 -0.59980469 13.45546875 -0.55664062 12.5390625 C-0.49766602 11.15847656 -0.49766602 11.15847656 -0.4375 9.75 C-0.37272461 8.34621094 -0.37272461 8.34621094 -0.30664062 6.9140625 C-0.20082061 4.60953778 -0.09993083 2.30478761 0 0 Z " fill="#36464E" transform="translate(417,461)"/>
<path d="M0 0 C5.61 0 11.22 0 17 0 C17.10872471 3.33422438 17.18766068 6.66484659 17.25 10 C17.30027344 11.40185547 17.30027344 11.40185547 17.3515625 12.83203125 C17.45240532 20.04229285 16.26864113 25.50568432 11.24609375 30.875 C5.5486822 34.41896226 0.60304158 34.54620748 -6 34 C-5.65066406 33.47277344 -5.30132812 32.94554687 -4.94140625 32.40234375 C0.68757753 22.34033591 -0.10400681 11.24219042 0 0 Z " fill="#36464E" transform="translate(179,461)"/>
<path d="M0 0 C0.33 0 0.66 0 1 0 C1.103125 1.093125 1.20625 2.18625 1.3125 3.3125 C2.01754595 7.09411009 2.17288366 7.73830693 5 10 C7.03077684 10.98628417 7.03077684 10.98628417 9.1875 11.6875 C9.90292969 11.93886719 10.61835938 12.19023437 11.35546875 12.44921875 C11.89816406 12.63097656 12.44085938 12.81273437 13 13 C8.8284875 24.45639774 -0.11012005 33.96471852 -9.5625 41.375 C-10.10471191 41.80425781 -10.64692383 42.23351562 -11.20556641 42.67578125 C-14.65353417 45.29285045 -17.83091708 46.85898783 -22 48 C-22.66 46.02 -23.32 44.04 -24 42 C-23.18208984 41.26910156 -23.18208984 41.26910156 -22.34765625 40.5234375 C-11.34225088 30.17647519 -0.74677616 15.43337393 0 0 Z " fill="#0275B8" transform="translate(318,257)"/>
<path d="M0 0 C12.72874143 2.32488428 23.91566165 16.38614322 31.1875 26.203125 C32.84682988 28.76364265 33.99436877 31.12976086 35 34 C34.31292969 34.31453125 33.62585938 34.6290625 32.91796875 34.953125 C32.01691406 35.38109375 31.11585938 35.8090625 30.1875 36.25 C29.29417969 36.66765625 28.40085937 37.0853125 27.48046875 37.515625 C24.89071669 39.06539789 23.61819166 40.48400766 22 43 C21.81566406 42.36835938 21.63132812 41.73671875 21.44140625 41.0859375 C17.54218437 29.05900424 10.59347228 19.12482321 1.84765625 10.0859375 C0.08715809 8.09839835 -1.07994777 6.48466083 -2 4 C-1.125 1.75 -1.125 1.75 0 0 Z " fill="#0275B9" transform="translate(296,156)"/>
<path d="M0 0 C0.79664063 0.42152344 1.59328125 0.84304688 2.4140625 1.27734375 C4.00347656 2.09912109 4.00347656 2.09912109 5.625 2.9375 C6.66914063 3.48277344 7.71328125 4.02804687 8.7890625 4.58984375 C11.92416918 5.96669717 14.61454632 6.59842216 18 7 C18.62552427 16.92150989 18.62552427 16.92150989 16.1875 21.125 C12.53137142 24.2588245 9.4520094 24.1123872 4.8125 24.0625 C3.18248047 24.04896484 3.18248047 24.04896484 1.51953125 24.03515625 C0.68808594 24.02355469 -0.14335937 24.01195312 -1 24 C-0.75443359 22.80503906 -0.75443359 22.80503906 -0.50390625 21.5859375 C0.10791538 17.23204401 0.10799591 13.0136058 0.0625 8.625 C0.05798828 7.79355469 0.05347656 6.96210938 0.04882812 6.10546875 C0.03713164 4.07028103 0.01919935 2.03513077 0 0 Z " fill="#EE7900" transform="translate(392,360)"/>
<path d="M0 0 C2.06132142 -0.10864945 4.12431321 -0.18588321 6.1875 -0.25 C7.33605469 -0.29640625 8.48460937 -0.3428125 9.66796875 -0.390625 C13.63979862 0.0750057 15.18771485 1.22370387 18 4 C19.32229189 6.64458379 19.09677194 8.67761301 19.0625 11.625 C19.05347656 12.62789062 19.04445313 13.63078125 19.03515625 14.6640625 C19.02355469 15.43492188 19.01195312 16.20578125 19 17 C18.03900391 17.14695312 18.03900391 17.14695312 17.05859375 17.296875 C16.19363281 17.44640625 15.32867187 17.5959375 14.4375 17.75 C13.59058594 17.88921875 12.74367188 18.0284375 11.87109375 18.171875 C8.15051924 19.2450203 5.30648047 20.98913672 2 23 C1.93941406 21.75863281 1.87882812 20.51726562 1.81640625 19.23828125 C1.73196377 17.59634423 1.64731764 15.95441768 1.5625 14.3125 C1.52318359 13.49587891 1.48386719 12.67925781 1.44335938 11.83789062 C1.23101997 7.80344189 0.95552078 3.94252691 0 0 Z " fill="#EF7900" transform="translate(391,77)"/>
</svg>
